G04 #@! TF.GenerationSoftware,KiCad,Pcbnew,5.1.5-52549c5~84~ubuntu18.04.1*
G04 #@! TF.CreationDate,2020-02-25T00:11:06-08:00*
G04 #@! TF.ProjectId,dotkb_micro,646f746b-625f-46d6-9963-726f2e6b6963,rev?*
G04 #@! TF.SameCoordinates,Original*
G04 #@! TF.FileFunction,Soldermask,Top*
G04 #@! TF.FilePolarity,Negative*
%FSLAX46Y46*%
G04 Gerber Fmt 4.6, Leading zero omitted, Abs format (unit mm)*
G04 Created by KiCad (PCBNEW 5.1.5-52549c5~84~ubuntu18.04.1) date 2020-02-25 00:11:06*
%MOMM*%
%LPD*%
G04 APERTURE LIST*
%ADD10C,0.100000*%
G04 APERTURE END LIST*
D10*
G36*
X150873991Y-112471793D02*
G01*
X151133470Y-112579272D01*
X151366995Y-112735309D01*
X151565591Y-112933905D01*
X151721628Y-113167430D01*
X151829107Y-113426909D01*
X151883900Y-113702371D01*
X151883900Y-113983229D01*
X151829107Y-114258691D01*
X151721628Y-114518170D01*
X151565591Y-114751695D01*
X151366995Y-114950291D01*
X151133470Y-115106328D01*
X150873991Y-115213807D01*
X150598529Y-115268600D01*
X150317671Y-115268600D01*
X150042209Y-115213807D01*
X149782730Y-115106328D01*
X149549205Y-114950291D01*
X149350609Y-114751695D01*
X149194572Y-114518170D01*
X149087093Y-114258691D01*
X149032300Y-113983229D01*
X149032300Y-113702371D01*
X149087093Y-113426909D01*
X149194572Y-113167430D01*
X149350609Y-112933905D01*
X149549205Y-112735309D01*
X149782730Y-112579272D01*
X150042209Y-112471793D01*
X150317671Y-112417000D01*
X150598529Y-112417000D01*
X150873991Y-112471793D01*
G37*
G36*
X58873991Y-112471793D02*
G01*
X59133470Y-112579272D01*
X59366995Y-112735309D01*
X59565591Y-112933905D01*
X59721628Y-113167430D01*
X59829107Y-113426909D01*
X59883900Y-113702371D01*
X59883900Y-113983229D01*
X59829107Y-114258691D01*
X59721628Y-114518170D01*
X59565591Y-114751695D01*
X59366995Y-114950291D01*
X59133470Y-115106328D01*
X58873991Y-115213807D01*
X58598529Y-115268600D01*
X58317671Y-115268600D01*
X58042209Y-115213807D01*
X57782730Y-115106328D01*
X57549205Y-114950291D01*
X57350609Y-114751695D01*
X57194572Y-114518170D01*
X57087093Y-114258691D01*
X57032300Y-113983229D01*
X57032300Y-113702371D01*
X57087093Y-113426909D01*
X57194572Y-113167430D01*
X57350609Y-112933905D01*
X57549205Y-112735309D01*
X57782730Y-112579272D01*
X58042209Y-112471793D01*
X58317671Y-112417000D01*
X58598529Y-112417000D01*
X58873991Y-112471793D01*
G37*
G36*
X130763754Y-109090417D02*
G01*
X130927689Y-109158321D01*
X131075227Y-109256903D01*
X131200697Y-109382373D01*
X131299279Y-109529911D01*
X131367183Y-109693846D01*
X131401800Y-109867879D01*
X131401800Y-110045321D01*
X131367183Y-110219354D01*
X131299279Y-110383289D01*
X131200697Y-110530827D01*
X131075227Y-110656297D01*
X130927689Y-110754879D01*
X130763754Y-110822783D01*
X130589721Y-110857400D01*
X130412279Y-110857400D01*
X130238246Y-110822783D01*
X130074311Y-110754879D01*
X129926773Y-110656297D01*
X129801303Y-110530827D01*
X129702721Y-110383289D01*
X129634817Y-110219354D01*
X129600200Y-110045321D01*
X129600200Y-109867879D01*
X129634817Y-109693846D01*
X129702721Y-109529911D01*
X129801303Y-109382373D01*
X129926773Y-109256903D01*
X130074311Y-109158321D01*
X130238246Y-109090417D01*
X130412279Y-109055800D01*
X130589721Y-109055800D01*
X130763754Y-109090417D01*
G37*
G36*
X135263754Y-109090417D02*
G01*
X135427689Y-109158321D01*
X135575227Y-109256903D01*
X135700697Y-109382373D01*
X135799279Y-109529911D01*
X135867183Y-109693846D01*
X135901800Y-109867879D01*
X135901800Y-110045321D01*
X135867183Y-110219354D01*
X135799279Y-110383289D01*
X135700697Y-110530827D01*
X135575227Y-110656297D01*
X135427689Y-110754879D01*
X135263754Y-110822783D01*
X135089721Y-110857400D01*
X134912279Y-110857400D01*
X134738246Y-110822783D01*
X134574311Y-110754879D01*
X134426773Y-110656297D01*
X134301303Y-110530827D01*
X134202721Y-110383289D01*
X134134817Y-110219354D01*
X134100200Y-110045321D01*
X134100200Y-109867879D01*
X134134817Y-109693846D01*
X134202721Y-109529911D01*
X134301303Y-109382373D01*
X134426773Y-109256903D01*
X134574311Y-109158321D01*
X134738246Y-109090417D01*
X134912279Y-109055800D01*
X135089721Y-109055800D01*
X135263754Y-109090417D01*
G37*
G36*
X71920197Y-100726012D02*
G01*
X72293419Y-100880606D01*
X72629310Y-101105041D01*
X72914961Y-101390692D01*
X73139396Y-101726583D01*
X73293990Y-102099805D01*
X73372801Y-102496015D01*
X73372801Y-102899987D01*
X73293990Y-103296197D01*
X73139396Y-103669419D01*
X72914961Y-104005310D01*
X72629310Y-104290961D01*
X72293419Y-104515396D01*
X71920197Y-104669990D01*
X71523987Y-104748801D01*
X71120015Y-104748801D01*
X70723805Y-104669990D01*
X70350583Y-104515396D01*
X70014692Y-104290961D01*
X69729041Y-104005310D01*
X69504606Y-103669419D01*
X69350012Y-103296197D01*
X69271201Y-102899987D01*
X69271201Y-102496015D01*
X69350012Y-102099805D01*
X69504606Y-101726583D01*
X69729041Y-101390692D01*
X70014692Y-101105041D01*
X70350583Y-100880606D01*
X70723805Y-100726012D01*
X71120015Y-100647201D01*
X71523987Y-100647201D01*
X71920197Y-100726012D01*
G37*
G36*
X92120197Y-100726012D02*
G01*
X92493419Y-100880606D01*
X92829310Y-101105041D01*
X93114961Y-101390692D01*
X93339396Y-101726583D01*
X93493990Y-102099805D01*
X93572801Y-102496015D01*
X93572801Y-102899987D01*
X93493990Y-103296197D01*
X93339396Y-103669419D01*
X93114961Y-104005310D01*
X92829310Y-104290961D01*
X92493419Y-104515396D01*
X92120197Y-104669990D01*
X91723987Y-104748801D01*
X91320015Y-104748801D01*
X90923805Y-104669990D01*
X90550583Y-104515396D01*
X90214692Y-104290961D01*
X89929041Y-104005310D01*
X89704606Y-103669419D01*
X89550012Y-103296197D01*
X89471201Y-102899987D01*
X89471201Y-102496015D01*
X89550012Y-102099805D01*
X89704606Y-101726583D01*
X89929041Y-101390692D01*
X90214692Y-101105041D01*
X90550583Y-100880606D01*
X90923805Y-100726012D01*
X91320015Y-100647201D01*
X91723987Y-100647201D01*
X92120197Y-100726012D01*
G37*
G36*
X112320197Y-100726012D02*
G01*
X112693419Y-100880606D01*
X113029310Y-101105041D01*
X113314961Y-101390692D01*
X113539396Y-101726583D01*
X113693990Y-102099805D01*
X113772801Y-102496015D01*
X113772801Y-102899987D01*
X113693990Y-103296197D01*
X113539396Y-103669419D01*
X113314961Y-104005310D01*
X113029310Y-104290961D01*
X112693419Y-104515396D01*
X112320197Y-104669990D01*
X111923987Y-104748801D01*
X111520015Y-104748801D01*
X111123805Y-104669990D01*
X110750583Y-104515396D01*
X110414692Y-104290961D01*
X110129041Y-104005310D01*
X109904606Y-103669419D01*
X109750012Y-103296197D01*
X109671201Y-102899987D01*
X109671201Y-102496015D01*
X109750012Y-102099805D01*
X109904606Y-101726583D01*
X110129041Y-101390692D01*
X110414692Y-101105041D01*
X110750583Y-100880606D01*
X111123805Y-100726012D01*
X111520015Y-100647201D01*
X111923987Y-100647201D01*
X112320197Y-100726012D01*
G37*
G36*
X135263754Y-102590417D02*
G01*
X135427689Y-102658321D01*
X135575227Y-102756903D01*
X135700697Y-102882373D01*
X135799279Y-103029911D01*
X135867183Y-103193846D01*
X135901800Y-103367879D01*
X135901800Y-103545321D01*
X135867183Y-103719354D01*
X135799279Y-103883289D01*
X135700697Y-104030827D01*
X135575227Y-104156297D01*
X135427689Y-104254879D01*
X135263754Y-104322783D01*
X135089721Y-104357400D01*
X134912279Y-104357400D01*
X134738246Y-104322783D01*
X134574311Y-104254879D01*
X134426773Y-104156297D01*
X134301303Y-104030827D01*
X134202721Y-103883289D01*
X134134817Y-103719354D01*
X134100200Y-103545321D01*
X134100200Y-103367879D01*
X134134817Y-103193846D01*
X134202721Y-103029911D01*
X134301303Y-102882373D01*
X134426773Y-102756903D01*
X134574311Y-102658321D01*
X134738246Y-102590417D01*
X134912279Y-102555800D01*
X135089721Y-102555800D01*
X135263754Y-102590417D01*
G37*
G36*
X130763754Y-102590417D02*
G01*
X130927689Y-102658321D01*
X131075227Y-102756903D01*
X131200697Y-102882373D01*
X131299279Y-103029911D01*
X131367183Y-103193846D01*
X131401800Y-103367879D01*
X131401800Y-103545321D01*
X131367183Y-103719354D01*
X131299279Y-103883289D01*
X131200697Y-104030827D01*
X131075227Y-104156297D01*
X130927689Y-104254879D01*
X130763754Y-104322783D01*
X130589721Y-104357400D01*
X130412279Y-104357400D01*
X130238246Y-104322783D01*
X130074311Y-104254879D01*
X129926773Y-104156297D01*
X129801303Y-104030827D01*
X129702721Y-103883289D01*
X129634817Y-103719354D01*
X129600200Y-103545321D01*
X129600200Y-103367879D01*
X129634817Y-103193846D01*
X129702721Y-103029911D01*
X129801303Y-102882373D01*
X129926773Y-102756903D01*
X130074311Y-102658321D01*
X130238246Y-102590417D01*
X130412279Y-102555800D01*
X130589721Y-102555800D01*
X130763754Y-102590417D01*
G37*
G36*
X106904755Y-101831818D02*
G01*
X107068690Y-101899722D01*
X107216228Y-101998304D01*
X107341698Y-102123774D01*
X107440280Y-102271312D01*
X107508184Y-102435247D01*
X107542801Y-102609280D01*
X107542801Y-102786722D01*
X107508184Y-102960755D01*
X107440280Y-103124690D01*
X107341698Y-103272228D01*
X107216228Y-103397698D01*
X107068690Y-103496280D01*
X106904755Y-103564184D01*
X106730722Y-103598801D01*
X106553280Y-103598801D01*
X106379247Y-103564184D01*
X106215312Y-103496280D01*
X106067774Y-103397698D01*
X105942304Y-103272228D01*
X105843722Y-103124690D01*
X105775818Y-102960755D01*
X105741201Y-102786722D01*
X105741201Y-102609280D01*
X105775818Y-102435247D01*
X105843722Y-102271312D01*
X105942304Y-102123774D01*
X106067774Y-101998304D01*
X106215312Y-101899722D01*
X106379247Y-101831818D01*
X106553280Y-101797201D01*
X106730722Y-101797201D01*
X106904755Y-101831818D01*
G37*
G36*
X96864755Y-101831818D02*
G01*
X97028690Y-101899722D01*
X97176228Y-101998304D01*
X97301698Y-102123774D01*
X97400280Y-102271312D01*
X97468184Y-102435247D01*
X97502801Y-102609280D01*
X97502801Y-102786722D01*
X97468184Y-102960755D01*
X97400280Y-103124690D01*
X97301698Y-103272228D01*
X97176228Y-103397698D01*
X97028690Y-103496280D01*
X96864755Y-103564184D01*
X96690722Y-103598801D01*
X96513280Y-103598801D01*
X96339247Y-103564184D01*
X96175312Y-103496280D01*
X96027774Y-103397698D01*
X95902304Y-103272228D01*
X95803722Y-103124690D01*
X95735818Y-102960755D01*
X95701201Y-102786722D01*
X95701201Y-102609280D01*
X95735818Y-102435247D01*
X95803722Y-102271312D01*
X95902304Y-102123774D01*
X96027774Y-101998304D01*
X96175312Y-101899722D01*
X96339247Y-101831818D01*
X96513280Y-101797201D01*
X96690722Y-101797201D01*
X96864755Y-101831818D01*
G37*
G36*
X76664755Y-101831818D02*
G01*
X76828690Y-101899722D01*
X76976228Y-101998304D01*
X77101698Y-102123774D01*
X77200280Y-102271312D01*
X77268184Y-102435247D01*
X77302801Y-102609280D01*
X77302801Y-102786722D01*
X77268184Y-102960755D01*
X77200280Y-103124690D01*
X77101698Y-103272228D01*
X76976228Y-103397698D01*
X76828690Y-103496280D01*
X76664755Y-103564184D01*
X76490722Y-103598801D01*
X76313280Y-103598801D01*
X76139247Y-103564184D01*
X75975312Y-103496280D01*
X75827774Y-103397698D01*
X75702304Y-103272228D01*
X75603722Y-103124690D01*
X75535818Y-102960755D01*
X75501201Y-102786722D01*
X75501201Y-102609280D01*
X75535818Y-102435247D01*
X75603722Y-102271312D01*
X75702304Y-102123774D01*
X75827774Y-101998304D01*
X75975312Y-101899722D01*
X76139247Y-101831818D01*
X76313280Y-101797201D01*
X76490722Y-101797201D01*
X76664755Y-101831818D01*
G37*
G36*
X66504755Y-101831818D02*
G01*
X66668690Y-101899722D01*
X66816228Y-101998304D01*
X66941698Y-102123774D01*
X67040280Y-102271312D01*
X67108184Y-102435247D01*
X67142801Y-102609280D01*
X67142801Y-102786722D01*
X67108184Y-102960755D01*
X67040280Y-103124690D01*
X66941698Y-103272228D01*
X66816228Y-103397698D01*
X66668690Y-103496280D01*
X66504755Y-103564184D01*
X66330722Y-103598801D01*
X66153280Y-103598801D01*
X65979247Y-103564184D01*
X65815312Y-103496280D01*
X65667774Y-103397698D01*
X65542304Y-103272228D01*
X65443722Y-103124690D01*
X65375818Y-102960755D01*
X65341201Y-102786722D01*
X65341201Y-102609280D01*
X65375818Y-102435247D01*
X65443722Y-102271312D01*
X65542304Y-102123774D01*
X65667774Y-101998304D01*
X65815312Y-101899722D01*
X65979247Y-101831818D01*
X66153280Y-101797201D01*
X66330722Y-101797201D01*
X66504755Y-101831818D01*
G37*
G36*
X117064755Y-101831818D02*
G01*
X117228690Y-101899722D01*
X117376228Y-101998304D01*
X117501698Y-102123774D01*
X117600280Y-102271312D01*
X117668184Y-102435247D01*
X117702801Y-102609280D01*
X117702801Y-102786722D01*
X117668184Y-102960755D01*
X117600280Y-103124690D01*
X117501698Y-103272228D01*
X117376228Y-103397698D01*
X117228690Y-103496280D01*
X117064755Y-103564184D01*
X116890722Y-103598801D01*
X116713280Y-103598801D01*
X116539247Y-103564184D01*
X116375312Y-103496280D01*
X116227774Y-103397698D01*
X116102304Y-103272228D01*
X116003722Y-103124690D01*
X115935818Y-102960755D01*
X115901201Y-102786722D01*
X115901201Y-102609280D01*
X115935818Y-102435247D01*
X116003722Y-102271312D01*
X116102304Y-102123774D01*
X116227774Y-101998304D01*
X116375312Y-101899722D01*
X116539247Y-101831818D01*
X116713280Y-101797201D01*
X116890722Y-101797201D01*
X117064755Y-101831818D01*
G37*
G36*
X86704755Y-101831818D02*
G01*
X86868690Y-101899722D01*
X87016228Y-101998304D01*
X87141698Y-102123774D01*
X87240280Y-102271312D01*
X87308184Y-102435247D01*
X87342801Y-102609280D01*
X87342801Y-102786722D01*
X87308184Y-102960755D01*
X87240280Y-103124690D01*
X87141698Y-103272228D01*
X87016228Y-103397698D01*
X86868690Y-103496280D01*
X86704755Y-103564184D01*
X86530722Y-103598801D01*
X86353280Y-103598801D01*
X86179247Y-103564184D01*
X86015312Y-103496280D01*
X85867774Y-103397698D01*
X85742304Y-103272228D01*
X85643722Y-103124690D01*
X85575818Y-102960755D01*
X85541201Y-102786722D01*
X85541201Y-102609280D01*
X85575818Y-102435247D01*
X85643722Y-102271312D01*
X85742304Y-102123774D01*
X85867774Y-101998304D01*
X86015312Y-101899722D01*
X86179247Y-101831818D01*
X86353280Y-101797201D01*
X86530722Y-101797201D01*
X86704755Y-101831818D01*
G37*
G36*
X67699456Y-99021943D02*
G01*
X67847679Y-99051426D01*
X68057110Y-99138175D01*
X68245594Y-99264116D01*
X68405886Y-99424408D01*
X68531827Y-99612892D01*
X68618576Y-99822323D01*
X68662801Y-100044658D01*
X68662801Y-100271344D01*
X68618576Y-100493679D01*
X68531827Y-100703110D01*
X68405886Y-100891594D01*
X68245594Y-101051886D01*
X68057110Y-101177827D01*
X67847679Y-101264576D01*
X67699456Y-101294059D01*
X67625345Y-101308801D01*
X67398657Y-101308801D01*
X67324546Y-101294059D01*
X67176323Y-101264576D01*
X66966892Y-101177827D01*
X66778408Y-101051886D01*
X66618116Y-100891594D01*
X66492175Y-100703110D01*
X66405426Y-100493679D01*
X66361201Y-100271344D01*
X66361201Y-100044658D01*
X66405426Y-99822323D01*
X66492175Y-99612892D01*
X66618116Y-99424408D01*
X66778408Y-99264116D01*
X66966892Y-99138175D01*
X67176323Y-99051426D01*
X67324546Y-99021943D01*
X67398657Y-99007201D01*
X67625345Y-99007201D01*
X67699456Y-99021943D01*
G37*
G36*
X87899456Y-99021943D02*
G01*
X88047679Y-99051426D01*
X88257110Y-99138175D01*
X88445594Y-99264116D01*
X88605886Y-99424408D01*
X88731827Y-99612892D01*
X88818576Y-99822323D01*
X88862801Y-100044658D01*
X88862801Y-100271344D01*
X88818576Y-100493679D01*
X88731827Y-100703110D01*
X88605886Y-100891594D01*
X88445594Y-101051886D01*
X88257110Y-101177827D01*
X88047679Y-101264576D01*
X87899456Y-101294059D01*
X87825345Y-101308801D01*
X87598657Y-101308801D01*
X87524546Y-101294059D01*
X87376323Y-101264576D01*
X87166892Y-101177827D01*
X86978408Y-101051886D01*
X86818116Y-100891594D01*
X86692175Y-100703110D01*
X86605426Y-100493679D01*
X86561201Y-100271344D01*
X86561201Y-100044658D01*
X86605426Y-99822323D01*
X86692175Y-99612892D01*
X86818116Y-99424408D01*
X86978408Y-99264116D01*
X87166892Y-99138175D01*
X87376323Y-99051426D01*
X87524546Y-99021943D01*
X87598657Y-99007201D01*
X87825345Y-99007201D01*
X87899456Y-99021943D01*
G37*
G36*
X108099456Y-99021943D02*
G01*
X108247679Y-99051426D01*
X108457110Y-99138175D01*
X108645594Y-99264116D01*
X108805886Y-99424408D01*
X108931827Y-99612892D01*
X109018576Y-99822323D01*
X109062801Y-100044658D01*
X109062801Y-100271344D01*
X109018576Y-100493679D01*
X108931827Y-100703110D01*
X108805886Y-100891594D01*
X108645594Y-101051886D01*
X108457110Y-101177827D01*
X108247679Y-101264576D01*
X108099456Y-101294059D01*
X108025345Y-101308801D01*
X107798657Y-101308801D01*
X107724546Y-101294059D01*
X107576323Y-101264576D01*
X107366892Y-101177827D01*
X107178408Y-101051886D01*
X107018116Y-100891594D01*
X106892175Y-100703110D01*
X106805426Y-100493679D01*
X106761201Y-100271344D01*
X106761201Y-100044658D01*
X106805426Y-99822323D01*
X106892175Y-99612892D01*
X107018116Y-99424408D01*
X107178408Y-99264116D01*
X107366892Y-99138175D01*
X107576323Y-99051426D01*
X107724546Y-99021943D01*
X107798657Y-99007201D01*
X108025345Y-99007201D01*
X108099456Y-99021943D01*
G37*
G36*
X94249456Y-96481943D02*
G01*
X94397679Y-96511426D01*
X94607110Y-96598175D01*
X94795594Y-96724116D01*
X94955886Y-96884408D01*
X95081827Y-97072892D01*
X95168576Y-97282323D01*
X95212801Y-97504658D01*
X95212801Y-97731344D01*
X95168576Y-97953679D01*
X95081827Y-98163110D01*
X94955886Y-98351594D01*
X94795594Y-98511886D01*
X94607110Y-98637827D01*
X94397679Y-98724576D01*
X94249456Y-98754059D01*
X94175345Y-98768801D01*
X93948657Y-98768801D01*
X93874546Y-98754059D01*
X93726323Y-98724576D01*
X93516892Y-98637827D01*
X93328408Y-98511886D01*
X93168116Y-98351594D01*
X93042175Y-98163110D01*
X92955426Y-97953679D01*
X92911201Y-97731344D01*
X92911201Y-97504658D01*
X92955426Y-97282323D01*
X93042175Y-97072892D01*
X93168116Y-96884408D01*
X93328408Y-96724116D01*
X93516892Y-96598175D01*
X93726323Y-96511426D01*
X93874546Y-96481943D01*
X93948657Y-96467201D01*
X94175345Y-96467201D01*
X94249456Y-96481943D01*
G37*
G36*
X114449456Y-96481943D02*
G01*
X114597679Y-96511426D01*
X114807110Y-96598175D01*
X114995594Y-96724116D01*
X115155886Y-96884408D01*
X115281827Y-97072892D01*
X115368576Y-97282323D01*
X115412801Y-97504658D01*
X115412801Y-97731344D01*
X115368576Y-97953679D01*
X115281827Y-98163110D01*
X115155886Y-98351594D01*
X114995594Y-98511886D01*
X114807110Y-98637827D01*
X114597679Y-98724576D01*
X114449456Y-98754059D01*
X114375345Y-98768801D01*
X114148657Y-98768801D01*
X114074546Y-98754059D01*
X113926323Y-98724576D01*
X113716892Y-98637827D01*
X113528408Y-98511886D01*
X113368116Y-98351594D01*
X113242175Y-98163110D01*
X113155426Y-97953679D01*
X113111201Y-97731344D01*
X113111201Y-97504658D01*
X113155426Y-97282323D01*
X113242175Y-97072892D01*
X113368116Y-96884408D01*
X113528408Y-96724116D01*
X113716892Y-96598175D01*
X113926323Y-96511426D01*
X114074546Y-96481943D01*
X114148657Y-96467201D01*
X114375345Y-96467201D01*
X114449456Y-96481943D01*
G37*
G36*
X74049456Y-96481943D02*
G01*
X74197679Y-96511426D01*
X74407110Y-96598175D01*
X74595594Y-96724116D01*
X74755886Y-96884408D01*
X74881827Y-97072892D01*
X74968576Y-97282323D01*
X75012801Y-97504658D01*
X75012801Y-97731344D01*
X74968576Y-97953679D01*
X74881827Y-98163110D01*
X74755886Y-98351594D01*
X74595594Y-98511886D01*
X74407110Y-98637827D01*
X74197679Y-98724576D01*
X74049456Y-98754059D01*
X73975345Y-98768801D01*
X73748657Y-98768801D01*
X73674546Y-98754059D01*
X73526323Y-98724576D01*
X73316892Y-98637827D01*
X73128408Y-98511886D01*
X72968116Y-98351594D01*
X72842175Y-98163110D01*
X72755426Y-97953679D01*
X72711201Y-97731344D01*
X72711201Y-97504658D01*
X72755426Y-97282323D01*
X72842175Y-97072892D01*
X72968116Y-96884408D01*
X73128408Y-96724116D01*
X73316892Y-96598175D01*
X73526323Y-96511426D01*
X73674546Y-96481943D01*
X73748657Y-96467201D01*
X73975345Y-96467201D01*
X74049456Y-96481943D01*
G37*
G36*
X112320197Y-80526012D02*
G01*
X112693419Y-80680606D01*
X113029310Y-80905041D01*
X113314961Y-81190692D01*
X113539396Y-81526583D01*
X113693990Y-81899805D01*
X113772801Y-82296015D01*
X113772801Y-82699987D01*
X113693990Y-83096197D01*
X113539396Y-83469419D01*
X113314961Y-83805310D01*
X113029310Y-84090961D01*
X112693419Y-84315396D01*
X112320197Y-84469990D01*
X111923987Y-84548801D01*
X111520015Y-84548801D01*
X111123805Y-84469990D01*
X110750583Y-84315396D01*
X110414692Y-84090961D01*
X110129041Y-83805310D01*
X109904606Y-83469419D01*
X109750012Y-83096197D01*
X109671201Y-82699987D01*
X109671201Y-82296015D01*
X109750012Y-81899805D01*
X109904606Y-81526583D01*
X110129041Y-81190692D01*
X110414692Y-80905041D01*
X110750583Y-80680606D01*
X111123805Y-80526012D01*
X111520015Y-80447201D01*
X111923987Y-80447201D01*
X112320197Y-80526012D01*
G37*
G36*
X92120197Y-80526012D02*
G01*
X92493419Y-80680606D01*
X92829310Y-80905041D01*
X93114961Y-81190692D01*
X93339396Y-81526583D01*
X93493990Y-81899805D01*
X93572801Y-82296015D01*
X93572801Y-82699987D01*
X93493990Y-83096197D01*
X93339396Y-83469419D01*
X93114961Y-83805310D01*
X92829310Y-84090961D01*
X92493419Y-84315396D01*
X92120197Y-84469990D01*
X91723987Y-84548801D01*
X91320015Y-84548801D01*
X90923805Y-84469990D01*
X90550583Y-84315396D01*
X90214692Y-84090961D01*
X89929041Y-83805310D01*
X89704606Y-83469419D01*
X89550012Y-83096197D01*
X89471201Y-82699987D01*
X89471201Y-82296015D01*
X89550012Y-81899805D01*
X89704606Y-81526583D01*
X89929041Y-81190692D01*
X90214692Y-80905041D01*
X90550583Y-80680606D01*
X90923805Y-80526012D01*
X91320015Y-80447201D01*
X91723987Y-80447201D01*
X92120197Y-80526012D01*
G37*
G36*
X71920197Y-80526012D02*
G01*
X72293419Y-80680606D01*
X72629310Y-80905041D01*
X72914961Y-81190692D01*
X73139396Y-81526583D01*
X73293990Y-81899805D01*
X73372801Y-82296015D01*
X73372801Y-82699987D01*
X73293990Y-83096197D01*
X73139396Y-83469419D01*
X72914961Y-83805310D01*
X72629310Y-84090961D01*
X72293419Y-84315396D01*
X71920197Y-84469990D01*
X71523987Y-84548801D01*
X71120015Y-84548801D01*
X70723805Y-84469990D01*
X70350583Y-84315396D01*
X70014692Y-84090961D01*
X69729041Y-83805310D01*
X69504606Y-83469419D01*
X69350012Y-83096197D01*
X69271201Y-82699987D01*
X69271201Y-82296015D01*
X69350012Y-81899805D01*
X69504606Y-81526583D01*
X69729041Y-81190692D01*
X70014692Y-80905041D01*
X70350583Y-80680606D01*
X70723805Y-80526012D01*
X71120015Y-80447201D01*
X71523987Y-80447201D01*
X71920197Y-80526012D01*
G37*
G36*
X117064755Y-81631818D02*
G01*
X117228690Y-81699722D01*
X117376228Y-81798304D01*
X117501698Y-81923774D01*
X117600280Y-82071312D01*
X117668184Y-82235247D01*
X117702801Y-82409280D01*
X117702801Y-82586722D01*
X117668184Y-82760755D01*
X117600280Y-82924690D01*
X117501698Y-83072228D01*
X117376228Y-83197698D01*
X117228690Y-83296280D01*
X117064755Y-83364184D01*
X116890722Y-83398801D01*
X116713280Y-83398801D01*
X116539247Y-83364184D01*
X116375312Y-83296280D01*
X116227774Y-83197698D01*
X116102304Y-83072228D01*
X116003722Y-82924690D01*
X115935818Y-82760755D01*
X115901201Y-82586722D01*
X115901201Y-82409280D01*
X115935818Y-82235247D01*
X116003722Y-82071312D01*
X116102304Y-81923774D01*
X116227774Y-81798304D01*
X116375312Y-81699722D01*
X116539247Y-81631818D01*
X116713280Y-81597201D01*
X116890722Y-81597201D01*
X117064755Y-81631818D01*
G37*
G36*
X106904755Y-81631818D02*
G01*
X107068690Y-81699722D01*
X107216228Y-81798304D01*
X107341698Y-81923774D01*
X107440280Y-82071312D01*
X107508184Y-82235247D01*
X107542801Y-82409280D01*
X107542801Y-82586722D01*
X107508184Y-82760755D01*
X107440280Y-82924690D01*
X107341698Y-83072228D01*
X107216228Y-83197698D01*
X107068690Y-83296280D01*
X106904755Y-83364184D01*
X106730722Y-83398801D01*
X106553280Y-83398801D01*
X106379247Y-83364184D01*
X106215312Y-83296280D01*
X106067774Y-83197698D01*
X105942304Y-83072228D01*
X105843722Y-82924690D01*
X105775818Y-82760755D01*
X105741201Y-82586722D01*
X105741201Y-82409280D01*
X105775818Y-82235247D01*
X105843722Y-82071312D01*
X105942304Y-81923774D01*
X106067774Y-81798304D01*
X106215312Y-81699722D01*
X106379247Y-81631818D01*
X106553280Y-81597201D01*
X106730722Y-81597201D01*
X106904755Y-81631818D01*
G37*
G36*
X96864755Y-81631818D02*
G01*
X97028690Y-81699722D01*
X97176228Y-81798304D01*
X97301698Y-81923774D01*
X97400280Y-82071312D01*
X97468184Y-82235247D01*
X97502801Y-82409280D01*
X97502801Y-82586722D01*
X97468184Y-82760755D01*
X97400280Y-82924690D01*
X97301698Y-83072228D01*
X97176228Y-83197698D01*
X97028690Y-83296280D01*
X96864755Y-83364184D01*
X96690722Y-83398801D01*
X96513280Y-83398801D01*
X96339247Y-83364184D01*
X96175312Y-83296280D01*
X96027774Y-83197698D01*
X95902304Y-83072228D01*
X95803722Y-82924690D01*
X95735818Y-82760755D01*
X95701201Y-82586722D01*
X95701201Y-82409280D01*
X95735818Y-82235247D01*
X95803722Y-82071312D01*
X95902304Y-81923774D01*
X96027774Y-81798304D01*
X96175312Y-81699722D01*
X96339247Y-81631818D01*
X96513280Y-81597201D01*
X96690722Y-81597201D01*
X96864755Y-81631818D01*
G37*
G36*
X66504755Y-81631818D02*
G01*
X66668690Y-81699722D01*
X66816228Y-81798304D01*
X66941698Y-81923774D01*
X67040280Y-82071312D01*
X67108184Y-82235247D01*
X67142801Y-82409280D01*
X67142801Y-82586722D01*
X67108184Y-82760755D01*
X67040280Y-82924690D01*
X66941698Y-83072228D01*
X66816228Y-83197698D01*
X66668690Y-83296280D01*
X66504755Y-83364184D01*
X66330722Y-83398801D01*
X66153280Y-83398801D01*
X65979247Y-83364184D01*
X65815312Y-83296280D01*
X65667774Y-83197698D01*
X65542304Y-83072228D01*
X65443722Y-82924690D01*
X65375818Y-82760755D01*
X65341201Y-82586722D01*
X65341201Y-82409280D01*
X65375818Y-82235247D01*
X65443722Y-82071312D01*
X65542304Y-81923774D01*
X65667774Y-81798304D01*
X65815312Y-81699722D01*
X65979247Y-81631818D01*
X66153280Y-81597201D01*
X66330722Y-81597201D01*
X66504755Y-81631818D01*
G37*
G36*
X76664755Y-81631818D02*
G01*
X76828690Y-81699722D01*
X76976228Y-81798304D01*
X77101698Y-81923774D01*
X77200280Y-82071312D01*
X77268184Y-82235247D01*
X77302801Y-82409280D01*
X77302801Y-82586722D01*
X77268184Y-82760755D01*
X77200280Y-82924690D01*
X77101698Y-83072228D01*
X76976228Y-83197698D01*
X76828690Y-83296280D01*
X76664755Y-83364184D01*
X76490722Y-83398801D01*
X76313280Y-83398801D01*
X76139247Y-83364184D01*
X75975312Y-83296280D01*
X75827774Y-83197698D01*
X75702304Y-83072228D01*
X75603722Y-82924690D01*
X75535818Y-82760755D01*
X75501201Y-82586722D01*
X75501201Y-82409280D01*
X75535818Y-82235247D01*
X75603722Y-82071312D01*
X75702304Y-81923774D01*
X75827774Y-81798304D01*
X75975312Y-81699722D01*
X76139247Y-81631818D01*
X76313280Y-81597201D01*
X76490722Y-81597201D01*
X76664755Y-81631818D01*
G37*
G36*
X86704755Y-81631818D02*
G01*
X86868690Y-81699722D01*
X87016228Y-81798304D01*
X87141698Y-81923774D01*
X87240280Y-82071312D01*
X87308184Y-82235247D01*
X87342801Y-82409280D01*
X87342801Y-82586722D01*
X87308184Y-82760755D01*
X87240280Y-82924690D01*
X87141698Y-83072228D01*
X87016228Y-83197698D01*
X86868690Y-83296280D01*
X86704755Y-83364184D01*
X86530722Y-83398801D01*
X86353280Y-83398801D01*
X86179247Y-83364184D01*
X86015312Y-83296280D01*
X85867774Y-83197698D01*
X85742304Y-83072228D01*
X85643722Y-82924690D01*
X85575818Y-82760755D01*
X85541201Y-82586722D01*
X85541201Y-82409280D01*
X85575818Y-82235247D01*
X85643722Y-82071312D01*
X85742304Y-81923774D01*
X85867774Y-81798304D01*
X86015312Y-81699722D01*
X86179247Y-81631818D01*
X86353280Y-81597201D01*
X86530722Y-81597201D01*
X86704755Y-81631818D01*
G37*
G36*
X87899456Y-78821943D02*
G01*
X88047679Y-78851426D01*
X88257110Y-78938175D01*
X88445594Y-79064116D01*
X88605886Y-79224408D01*
X88731827Y-79412892D01*
X88818576Y-79622323D01*
X88862801Y-79844658D01*
X88862801Y-80071344D01*
X88818576Y-80293679D01*
X88731827Y-80503110D01*
X88605886Y-80691594D01*
X88445594Y-80851886D01*
X88257110Y-80977827D01*
X88047679Y-81064576D01*
X87899456Y-81094059D01*
X87825345Y-81108801D01*
X87598657Y-81108801D01*
X87524546Y-81094059D01*
X87376323Y-81064576D01*
X87166892Y-80977827D01*
X86978408Y-80851886D01*
X86818116Y-80691594D01*
X86692175Y-80503110D01*
X86605426Y-80293679D01*
X86561201Y-80071344D01*
X86561201Y-79844658D01*
X86605426Y-79622323D01*
X86692175Y-79412892D01*
X86818116Y-79224408D01*
X86978408Y-79064116D01*
X87166892Y-78938175D01*
X87376323Y-78851426D01*
X87524546Y-78821943D01*
X87598657Y-78807201D01*
X87825345Y-78807201D01*
X87899456Y-78821943D01*
G37*
G36*
X108099456Y-78821943D02*
G01*
X108247679Y-78851426D01*
X108457110Y-78938175D01*
X108645594Y-79064116D01*
X108805886Y-79224408D01*
X108931827Y-79412892D01*
X109018576Y-79622323D01*
X109062801Y-79844658D01*
X109062801Y-80071344D01*
X109018576Y-80293679D01*
X108931827Y-80503110D01*
X108805886Y-80691594D01*
X108645594Y-80851886D01*
X108457110Y-80977827D01*
X108247679Y-81064576D01*
X108099456Y-81094059D01*
X108025345Y-81108801D01*
X107798657Y-81108801D01*
X107724546Y-81094059D01*
X107576323Y-81064576D01*
X107366892Y-80977827D01*
X107178408Y-80851886D01*
X107018116Y-80691594D01*
X106892175Y-80503110D01*
X106805426Y-80293679D01*
X106761201Y-80071344D01*
X106761201Y-79844658D01*
X106805426Y-79622323D01*
X106892175Y-79412892D01*
X107018116Y-79224408D01*
X107178408Y-79064116D01*
X107366892Y-78938175D01*
X107576323Y-78851426D01*
X107724546Y-78821943D01*
X107798657Y-78807201D01*
X108025345Y-78807201D01*
X108099456Y-78821943D01*
G37*
G36*
X67699456Y-78821943D02*
G01*
X67847679Y-78851426D01*
X68057110Y-78938175D01*
X68245594Y-79064116D01*
X68405886Y-79224408D01*
X68531827Y-79412892D01*
X68618576Y-79622323D01*
X68662801Y-79844658D01*
X68662801Y-80071344D01*
X68618576Y-80293679D01*
X68531827Y-80503110D01*
X68405886Y-80691594D01*
X68245594Y-80851886D01*
X68057110Y-80977827D01*
X67847679Y-81064576D01*
X67699456Y-81094059D01*
X67625345Y-81108801D01*
X67398657Y-81108801D01*
X67324546Y-81094059D01*
X67176323Y-81064576D01*
X66966892Y-80977827D01*
X66778408Y-80851886D01*
X66618116Y-80691594D01*
X66492175Y-80503110D01*
X66405426Y-80293679D01*
X66361201Y-80071344D01*
X66361201Y-79844658D01*
X66405426Y-79622323D01*
X66492175Y-79412892D01*
X66618116Y-79224408D01*
X66778408Y-79064116D01*
X66966892Y-78938175D01*
X67176323Y-78851426D01*
X67324546Y-78821943D01*
X67398657Y-78807201D01*
X67625345Y-78807201D01*
X67699456Y-78821943D01*
G37*
G36*
X74049456Y-76281943D02*
G01*
X74197679Y-76311426D01*
X74407110Y-76398175D01*
X74595594Y-76524116D01*
X74755886Y-76684408D01*
X74881827Y-76872892D01*
X74968576Y-77082323D01*
X75012801Y-77304658D01*
X75012801Y-77531344D01*
X74968576Y-77753679D01*
X74881827Y-77963110D01*
X74755886Y-78151594D01*
X74595594Y-78311886D01*
X74407110Y-78437827D01*
X74197679Y-78524576D01*
X74049456Y-78554059D01*
X73975345Y-78568801D01*
X73748657Y-78568801D01*
X73674546Y-78554059D01*
X73526323Y-78524576D01*
X73316892Y-78437827D01*
X73128408Y-78311886D01*
X72968116Y-78151594D01*
X72842175Y-77963110D01*
X72755426Y-77753679D01*
X72711201Y-77531344D01*
X72711201Y-77304658D01*
X72755426Y-77082323D01*
X72842175Y-76872892D01*
X72968116Y-76684408D01*
X73128408Y-76524116D01*
X73316892Y-76398175D01*
X73526323Y-76311426D01*
X73674546Y-76281943D01*
X73748657Y-76267201D01*
X73975345Y-76267201D01*
X74049456Y-76281943D01*
G37*
G36*
X94249456Y-76281943D02*
G01*
X94397679Y-76311426D01*
X94607110Y-76398175D01*
X94795594Y-76524116D01*
X94955886Y-76684408D01*
X95081827Y-76872892D01*
X95168576Y-77082323D01*
X95212801Y-77304658D01*
X95212801Y-77531344D01*
X95168576Y-77753679D01*
X95081827Y-77963110D01*
X94955886Y-78151594D01*
X94795594Y-78311886D01*
X94607110Y-78437827D01*
X94397679Y-78524576D01*
X94249456Y-78554059D01*
X94175345Y-78568801D01*
X93948657Y-78568801D01*
X93874546Y-78554059D01*
X93726323Y-78524576D01*
X93516892Y-78437827D01*
X93328408Y-78311886D01*
X93168116Y-78151594D01*
X93042175Y-77963110D01*
X92955426Y-77753679D01*
X92911201Y-77531344D01*
X92911201Y-77304658D01*
X92955426Y-77082323D01*
X93042175Y-76872892D01*
X93168116Y-76684408D01*
X93328408Y-76524116D01*
X93516892Y-76398175D01*
X93726323Y-76311426D01*
X93874546Y-76281943D01*
X93948657Y-76267201D01*
X94175345Y-76267201D01*
X94249456Y-76281943D01*
G37*
G36*
X114449456Y-76281943D02*
G01*
X114597679Y-76311426D01*
X114807110Y-76398175D01*
X114995594Y-76524116D01*
X115155886Y-76684408D01*
X115281827Y-76872892D01*
X115368576Y-77082323D01*
X115412801Y-77304658D01*
X115412801Y-77531344D01*
X115368576Y-77753679D01*
X115281827Y-77963110D01*
X115155886Y-78151594D01*
X114995594Y-78311886D01*
X114807110Y-78437827D01*
X114597679Y-78524576D01*
X114449456Y-78554059D01*
X114375345Y-78568801D01*
X114148657Y-78568801D01*
X114074546Y-78554059D01*
X113926323Y-78524576D01*
X113716892Y-78437827D01*
X113528408Y-78311886D01*
X113368116Y-78151594D01*
X113242175Y-77963110D01*
X113155426Y-77753679D01*
X113111201Y-77531344D01*
X113111201Y-77304658D01*
X113155426Y-77082323D01*
X113242175Y-76872892D01*
X113368116Y-76684408D01*
X113528408Y-76524116D01*
X113716892Y-76398175D01*
X113926323Y-76311426D01*
X114074546Y-76281943D01*
X114148657Y-76267201D01*
X114375345Y-76267201D01*
X114449456Y-76281943D01*
G37*
G36*
X58873991Y-70471793D02*
G01*
X59133470Y-70579272D01*
X59366995Y-70735309D01*
X59565591Y-70933905D01*
X59721628Y-71167430D01*
X59829107Y-71426909D01*
X59883900Y-71702371D01*
X59883900Y-71983229D01*
X59829107Y-72258691D01*
X59721628Y-72518170D01*
X59565591Y-72751695D01*
X59366995Y-72950291D01*
X59133470Y-73106328D01*
X58873991Y-73213807D01*
X58598529Y-73268600D01*
X58317671Y-73268600D01*
X58042209Y-73213807D01*
X57782730Y-73106328D01*
X57549205Y-72950291D01*
X57350609Y-72751695D01*
X57194572Y-72518170D01*
X57087093Y-72258691D01*
X57032300Y-71983229D01*
X57032300Y-71702371D01*
X57087093Y-71426909D01*
X57194572Y-71167430D01*
X57350609Y-70933905D01*
X57549205Y-70735309D01*
X57782730Y-70579272D01*
X58042209Y-70471793D01*
X58317671Y-70417000D01*
X58598529Y-70417000D01*
X58873991Y-70471793D01*
G37*
G36*
X150873991Y-70471793D02*
G01*
X151133470Y-70579272D01*
X151366995Y-70735309D01*
X151565591Y-70933905D01*
X151721628Y-71167430D01*
X151829107Y-71426909D01*
X151883900Y-71702371D01*
X151883900Y-71983229D01*
X151829107Y-72258691D01*
X151721628Y-72518170D01*
X151565591Y-72751695D01*
X151366995Y-72950291D01*
X151133470Y-73106328D01*
X150873991Y-73213807D01*
X150598529Y-73268600D01*
X150317671Y-73268600D01*
X150042209Y-73213807D01*
X149782730Y-73106328D01*
X149549205Y-72950291D01*
X149350609Y-72751695D01*
X149194572Y-72518170D01*
X149087093Y-72258691D01*
X149032300Y-71983229D01*
X149032300Y-71702371D01*
X149087093Y-71426909D01*
X149194572Y-71167430D01*
X149350609Y-70933905D01*
X149549205Y-70735309D01*
X149782730Y-70579272D01*
X150042209Y-70471793D01*
X150317671Y-70417000D01*
X150598529Y-70417000D01*
X150873991Y-70471793D01*
G37*
M02*
