M48
; DRILL file {KiCad 5.1.5-52549c5~84~ubuntu18.04.1} date Tue 25 Feb 2020 12:11:18 AM PST
; FORMAT={-:-/ absolute / inch / decimal}
; #@! TF.CreationDate,2020-02-25T00:11:18-08:00
; #@! TF.GenerationSoftware,Kicad,Pcbnew,5.1.5-52549c5~84~ubuntu18.04.1
; #@! TF.FileFunction,NonPlated,1,2,NPTH
FMAT,2
INCH
T1C0.0669
T2C0.1083
T3C0.1575
%
G90
G05
T1
X3.4032Y-4.0432
X3.008Y-4.0432
X2.608Y-3.248
X3.008Y-3.248
X4.1985Y-4.0432
X4.5985Y-4.0432
X4.1985Y-3.248
X4.5985Y-3.248
X3.8032Y-4.0432
X3.4032Y-3.248
X3.8032Y-3.248
X2.608Y-4.0432
T2
X2.3015Y-2.8285
X5.9235Y-2.8285
X5.9235Y-4.482
X2.3015Y-4.482
T3
X3.6032Y-4.0432
X3.6032Y-3.248
X2.808Y-4.0432
X2.808Y-3.248
X4.3985Y-4.0432
X4.3985Y-3.248
T0
M30
