M48
; DRILL file {KiCad 5.1.5-52549c5~84~ubuntu18.04.1} date Tue 25 Feb 2020 12:11:18 AM PST
; FORMAT={-:-/ absolute / inch / decimal}
; #@! TF.CreationDate,2020-02-25T00:11:18-08:00
; #@! TF.GenerationSoftware,Kicad,Pcbnew,5.1.5-52549c5~84~ubuntu18.04.1
; #@! TF.FileFunction,Plated,1,2,PTH
FMAT,2
INCH
T1C0.0157
T2C0.0394
T3C0.0591
%
G90
G05
T1
X4.7935Y-3.4095
X4.954Y-2.75
X4.9838Y-3.1878
X5.168Y-3.362
X5.168Y-3.416
X5.168Y-3.457
X5.168Y-3.5
X5.236Y-3.952
X5.276Y-3.074
X5.35Y-3.186
X5.3595Y-3.6174
X5.3922Y-3.3598
X5.422Y-3.802
X5.4555Y-3.989
X5.61Y-2.904
X5.61Y-3.032
X5.6155Y-3.989
X5.645Y-3.677
X5.68Y-3.078
X5.9Y-4.188
T2
X5.1378Y-4.0731
X5.1378Y-4.329
X5.315Y-4.0731
X5.315Y-4.329
T3
X3.4532Y-3.9432
X3.7032Y-3.8432
X3.4532Y-3.148
X3.7032Y-3.048
X2.658Y-3.9432
X2.908Y-3.8432
X2.658Y-3.148
X2.908Y-3.048
X4.2485Y-3.9432
X4.4985Y-3.8432
X4.2485Y-3.148
X4.4985Y-3.048
T0
M30
