G04 #@! TF.GenerationSoftware,KiCad,Pcbnew,5.1.5-52549c5~84~ubuntu18.04.1*
G04 #@! TF.CreationDate,2020-02-25T00:11:06-08:00*
G04 #@! TF.ProjectId,dotkb_micro,646f746b-625f-46d6-9963-726f2e6b6963,rev?*
G04 #@! TF.SameCoordinates,Original*
G04 #@! TF.FileFunction,Legend,Top*
G04 #@! TF.FilePolarity,Positive*
%FSLAX46Y46*%
G04 Gerber Fmt 4.6, Leading zero omitted, Abs format (unit mm)*
G04 Created by KiCad (PCBNEW 5.1.5-52549c5~84~ubuntu18.04.1) date 2020-02-25 00:11:06*
%MOMM*%
%LPD*%
G04 APERTURE LIST*
%ADD10C,0.150000*%
%ADD11C,0.250000*%
%ADD12C,0.120000*%
G04 APERTURE END LIST*
D10*
X57210438Y-99077966D02*
X59210438Y-99077966D01*
X57972342Y-99268442D02*
X57210438Y-99839871D01*
X58543771Y-99839871D02*
X57781866Y-99077966D01*
X57305676Y-101458919D02*
X57210438Y-101268442D01*
X57210438Y-100887490D01*
X57305676Y-100697014D01*
X57496152Y-100601776D01*
X58258057Y-100601776D01*
X58448533Y-100697014D01*
X58543771Y-100887490D01*
X58543771Y-101268442D01*
X58448533Y-101458919D01*
X58258057Y-101554157D01*
X58067580Y-101554157D01*
X57877104Y-100601776D01*
X57210438Y-102411300D02*
X58543771Y-102411300D01*
X58353295Y-102411300D02*
X58448533Y-102506538D01*
X58543771Y-102697014D01*
X58543771Y-102982728D01*
X58448533Y-103173204D01*
X58258057Y-103268442D01*
X57210438Y-103268442D01*
X58258057Y-103268442D02*
X58448533Y-103363680D01*
X58543771Y-103554157D01*
X58543771Y-103839871D01*
X58448533Y-104030347D01*
X58258057Y-104125585D01*
X57210438Y-104125585D01*
X58543771Y-104792252D02*
X58543771Y-105554157D01*
X57210438Y-105077966D02*
X58924723Y-105077966D01*
X59115200Y-105173204D01*
X59210438Y-105363680D01*
X59210438Y-105554157D01*
X57210438Y-106220823D02*
X58543771Y-106220823D01*
X59210438Y-106220823D02*
X59115200Y-106125585D01*
X59019961Y-106220823D01*
X59115200Y-106316061D01*
X59210438Y-106220823D01*
X59019961Y-106220823D01*
X57305676Y-108030347D02*
X57210438Y-107839871D01*
X57210438Y-107458919D01*
X57305676Y-107268442D01*
X57400914Y-107173204D01*
X57591390Y-107077966D01*
X58162819Y-107077966D01*
X58353295Y-107173204D01*
X58448533Y-107268442D01*
X58543771Y-107458919D01*
X58543771Y-107839871D01*
X58448533Y-108030347D01*
X60411038Y-79008890D02*
X62411038Y-79008890D01*
X60982466Y-79675557D01*
X62411038Y-80342223D01*
X60411038Y-80342223D01*
X60411038Y-81294604D02*
X62411038Y-81294604D01*
X60411038Y-82437461D02*
X61553895Y-81580319D01*
X62411038Y-82437461D02*
X61268180Y-81294604D01*
X60411038Y-83294604D02*
X62411038Y-83294604D01*
X58594371Y-78723176D02*
X58594371Y-79485080D01*
X57261038Y-79008890D02*
X58975323Y-79008890D01*
X59165800Y-79104128D01*
X59261038Y-79294604D01*
X59261038Y-79485080D01*
X57356276Y-80913652D02*
X57261038Y-80723176D01*
X57261038Y-80342223D01*
X57356276Y-80151747D01*
X57546752Y-80056509D01*
X58308657Y-80056509D01*
X58499133Y-80151747D01*
X58594371Y-80342223D01*
X58594371Y-80723176D01*
X58499133Y-80913652D01*
X58308657Y-81008890D01*
X58118180Y-81008890D01*
X57927704Y-80056509D01*
X57261038Y-81866033D02*
X59261038Y-81866033D01*
X58499133Y-81866033D02*
X58594371Y-82056509D01*
X58594371Y-82437461D01*
X58499133Y-82627938D01*
X58403895Y-82723176D01*
X58213419Y-82818414D01*
X57641990Y-82818414D01*
X57451514Y-82723176D01*
X57356276Y-82627938D01*
X57261038Y-82437461D01*
X57261038Y-82056509D01*
X57356276Y-81866033D01*
X59070561Y-85104128D02*
X59165800Y-85199366D01*
X59261038Y-85389842D01*
X59261038Y-85866033D01*
X59165800Y-86056509D01*
X59070561Y-86151747D01*
X58880085Y-86246985D01*
X58689609Y-86246985D01*
X58403895Y-86151747D01*
X57261038Y-85008890D01*
X57261038Y-86246985D01*
X59261038Y-87485080D02*
X59261038Y-87675557D01*
X59165800Y-87866033D01*
X59070561Y-87961271D01*
X58880085Y-88056509D01*
X58499133Y-88151747D01*
X58022942Y-88151747D01*
X57641990Y-88056509D01*
X57451514Y-87961271D01*
X57356276Y-87866033D01*
X57261038Y-87675557D01*
X57261038Y-87485080D01*
X57356276Y-87294604D01*
X57451514Y-87199366D01*
X57641990Y-87104128D01*
X58022942Y-87008890D01*
X58499133Y-87008890D01*
X58880085Y-87104128D01*
X59070561Y-87199366D01*
X59165800Y-87294604D01*
X59261038Y-87485080D01*
X59070561Y-88913652D02*
X59165800Y-89008890D01*
X59261038Y-89199366D01*
X59261038Y-89675557D01*
X59165800Y-89866033D01*
X59070561Y-89961271D01*
X58880085Y-90056509D01*
X58689609Y-90056509D01*
X58403895Y-89961271D01*
X57261038Y-88818414D01*
X57261038Y-90056509D01*
X59261038Y-91294604D02*
X59261038Y-91485080D01*
X59165800Y-91675557D01*
X59070561Y-91770795D01*
X58880085Y-91866033D01*
X58499133Y-91961271D01*
X58022942Y-91961271D01*
X57641990Y-91866033D01*
X57451514Y-91770795D01*
X57356276Y-91675557D01*
X57261038Y-91485080D01*
X57261038Y-91294604D01*
X57356276Y-91104128D01*
X57451514Y-91008890D01*
X57641990Y-90913652D01*
X58022942Y-90818414D01*
X58499133Y-90818414D01*
X58880085Y-90913652D01*
X59070561Y-91008890D01*
X59165800Y-91104128D01*
X59261038Y-91294604D01*
D11*
X148858457Y-80648500D02*
X151858457Y-80648500D01*
X149001314Y-80648500D02*
X148858457Y-80362785D01*
X148858457Y-79791357D01*
X149001314Y-79505642D01*
X149144171Y-79362785D01*
X149429885Y-79219928D01*
X150287028Y-79219928D01*
X150572742Y-79362785D01*
X150715600Y-79505642D01*
X150858457Y-79791357D01*
X150858457Y-80362785D01*
X150715600Y-80648500D01*
X148858457Y-82505642D02*
X149001314Y-82219928D01*
X149144171Y-82077071D01*
X149429885Y-81934214D01*
X150287028Y-81934214D01*
X150572742Y-82077071D01*
X150715600Y-82219928D01*
X150858457Y-82505642D01*
X150858457Y-82934214D01*
X150715600Y-83219928D01*
X150572742Y-83362785D01*
X150287028Y-83505642D01*
X149429885Y-83505642D01*
X149144171Y-83362785D01*
X149001314Y-83219928D01*
X148858457Y-82934214D01*
X148858457Y-82505642D01*
X150858457Y-84362785D02*
X150858457Y-85505642D01*
X151858457Y-84791357D02*
X149287028Y-84791357D01*
X149001314Y-84934214D01*
X148858457Y-85219928D01*
X148858457Y-85505642D01*
X148858457Y-86505642D02*
X151858457Y-86505642D01*
X150001314Y-86791357D02*
X148858457Y-87648500D01*
X150858457Y-87648500D02*
X149715600Y-86505642D01*
X148858457Y-88934214D02*
X151858457Y-88934214D01*
X150715600Y-88934214D02*
X150858457Y-89219928D01*
X150858457Y-89791357D01*
X150715600Y-90077071D01*
X150572742Y-90219928D01*
X150287028Y-90362785D01*
X149429885Y-90362785D01*
X149144171Y-90219928D01*
X149001314Y-90077071D01*
X148858457Y-89791357D01*
X148858457Y-89219928D01*
X149001314Y-88934214D01*
X148858457Y-93934214D02*
X150858457Y-93934214D01*
X150572742Y-93934214D02*
X150715600Y-94077071D01*
X150858457Y-94362785D01*
X150858457Y-94791357D01*
X150715600Y-95077071D01*
X150429885Y-95219928D01*
X148858457Y-95219928D01*
X150429885Y-95219928D02*
X150715600Y-95362785D01*
X150858457Y-95648500D01*
X150858457Y-96077071D01*
X150715600Y-96362785D01*
X150429885Y-96505642D01*
X148858457Y-96505642D01*
X148858457Y-97934214D02*
X150858457Y-97934214D01*
X151858457Y-97934214D02*
X151715600Y-97791357D01*
X151572742Y-97934214D01*
X151715600Y-98077071D01*
X151858457Y-97934214D01*
X151572742Y-97934214D01*
X149001314Y-100648500D02*
X148858457Y-100362785D01*
X148858457Y-99791357D01*
X149001314Y-99505642D01*
X149144171Y-99362785D01*
X149429885Y-99219928D01*
X150287028Y-99219928D01*
X150572742Y-99362785D01*
X150715600Y-99505642D01*
X150858457Y-99791357D01*
X150858457Y-100362785D01*
X150715600Y-100648500D01*
X148858457Y-101934214D02*
X150858457Y-101934214D01*
X150287028Y-101934214D02*
X150572742Y-102077071D01*
X150715600Y-102219928D01*
X150858457Y-102505642D01*
X150858457Y-102791357D01*
X148858457Y-104219928D02*
X149001314Y-103934214D01*
X149144171Y-103791357D01*
X149429885Y-103648500D01*
X150287028Y-103648500D01*
X150572742Y-103791357D01*
X150715600Y-103934214D01*
X150858457Y-104219928D01*
X150858457Y-104648500D01*
X150715600Y-104934214D01*
X150572742Y-105077071D01*
X150287028Y-105219928D01*
X149429885Y-105219928D01*
X149144171Y-105077071D01*
X149001314Y-104934214D01*
X148858457Y-104648500D01*
X148858457Y-104219928D01*
D12*
X104737001Y-109683001D02*
X104737001Y-95713001D01*
X118707001Y-109683001D02*
X104737001Y-109683001D01*
X118707001Y-95713001D02*
X118707001Y-109683001D01*
X104737001Y-95713001D02*
X118707001Y-95713001D01*
X104737001Y-89483001D02*
X104737001Y-75513001D01*
X118707001Y-89483001D02*
X104737001Y-89483001D01*
X118707001Y-75513001D02*
X118707001Y-89483001D01*
X104737001Y-75513001D02*
X118707001Y-75513001D01*
X84537001Y-95713001D02*
X98507001Y-95713001D01*
X98507001Y-95713001D02*
X98507001Y-109683001D01*
X98507001Y-109683001D02*
X84537001Y-109683001D01*
X84537001Y-109683001D02*
X84537001Y-95713001D01*
X84537001Y-75513001D02*
X98507001Y-75513001D01*
X98507001Y-75513001D02*
X98507001Y-89483001D01*
X98507001Y-89483001D02*
X84537001Y-89483001D01*
X84537001Y-89483001D02*
X84537001Y-75513001D01*
X64337001Y-95713001D02*
X78307001Y-95713001D01*
X78307001Y-95713001D02*
X78307001Y-109683001D01*
X78307001Y-109683001D02*
X64337001Y-109683001D01*
X64337001Y-109683001D02*
X64337001Y-95713001D01*
X64337001Y-89483001D02*
X64337001Y-75513001D01*
X78307001Y-89483001D02*
X64337001Y-89483001D01*
X78307001Y-75513001D02*
X78307001Y-89483001D01*
X64337001Y-75513001D02*
X78307001Y-75513001D01*
D10*
X57137466Y-76783580D02*
X56804133Y-76307390D01*
X56566038Y-76783580D02*
X56566038Y-75783580D01*
X56946990Y-75783580D01*
X57042228Y-75831200D01*
X57089847Y-75878819D01*
X57137466Y-75974057D01*
X57137466Y-76116914D01*
X57089847Y-76212152D01*
X57042228Y-76259771D01*
X56946990Y-76307390D01*
X56566038Y-76307390D01*
X57566038Y-76259771D02*
X57899371Y-76259771D01*
X58042228Y-76783580D02*
X57566038Y-76783580D01*
X57566038Y-75783580D01*
X58042228Y-75783580D01*
X58804133Y-76259771D02*
X58470800Y-76259771D01*
X58470800Y-76783580D02*
X58470800Y-75783580D01*
X58946990Y-75783580D01*
X59470800Y-75783580D02*
X59470800Y-76021676D01*
X59232704Y-75926438D02*
X59470800Y-76021676D01*
X59708895Y-75926438D01*
X59327942Y-76212152D02*
X59470800Y-76021676D01*
X59613657Y-76212152D01*
X60232704Y-75783580D02*
X60232704Y-76021676D01*
X59994609Y-75926438D02*
X60232704Y-76021676D01*
X60470800Y-75926438D01*
X60089847Y-76212152D02*
X60232704Y-76021676D01*
X60375561Y-76212152D01*
X57137466Y-118795180D02*
X56804133Y-118318990D01*
X56566038Y-118795180D02*
X56566038Y-117795180D01*
X56946990Y-117795180D01*
X57042228Y-117842800D01*
X57089847Y-117890419D01*
X57137466Y-117985657D01*
X57137466Y-118128514D01*
X57089847Y-118223752D01*
X57042228Y-118271371D01*
X56946990Y-118318990D01*
X56566038Y-118318990D01*
X57566038Y-118271371D02*
X57899371Y-118271371D01*
X58042228Y-118795180D02*
X57566038Y-118795180D01*
X57566038Y-117795180D01*
X58042228Y-117795180D01*
X58804133Y-118271371D02*
X58470800Y-118271371D01*
X58470800Y-118795180D02*
X58470800Y-117795180D01*
X58946990Y-117795180D01*
X59470800Y-117795180D02*
X59470800Y-118033276D01*
X59232704Y-117938038D02*
X59470800Y-118033276D01*
X59708895Y-117938038D01*
X59327942Y-118223752D02*
X59470800Y-118033276D01*
X59613657Y-118223752D01*
X60232704Y-117795180D02*
X60232704Y-118033276D01*
X59994609Y-117938038D02*
X60232704Y-118033276D01*
X60470800Y-117938038D01*
X60089847Y-118223752D02*
X60232704Y-118033276D01*
X60375561Y-118223752D01*
X149124766Y-118795180D02*
X148791433Y-118318990D01*
X148553338Y-118795180D02*
X148553338Y-117795180D01*
X148934290Y-117795180D01*
X149029528Y-117842800D01*
X149077147Y-117890419D01*
X149124766Y-117985657D01*
X149124766Y-118128514D01*
X149077147Y-118223752D01*
X149029528Y-118271371D01*
X148934290Y-118318990D01*
X148553338Y-118318990D01*
X149553338Y-118271371D02*
X149886671Y-118271371D01*
X150029528Y-118795180D02*
X149553338Y-118795180D01*
X149553338Y-117795180D01*
X150029528Y-117795180D01*
X150791433Y-118271371D02*
X150458100Y-118271371D01*
X150458100Y-118795180D02*
X150458100Y-117795180D01*
X150934290Y-117795180D01*
X151458100Y-117795180D02*
X151458100Y-118033276D01*
X151220004Y-117938038D02*
X151458100Y-118033276D01*
X151696195Y-117938038D01*
X151315242Y-118223752D02*
X151458100Y-118033276D01*
X151600957Y-118223752D01*
X152220004Y-117795180D02*
X152220004Y-118033276D01*
X151981909Y-117938038D02*
X152220004Y-118033276D01*
X152458100Y-117938038D01*
X152077147Y-118223752D02*
X152220004Y-118033276D01*
X152362861Y-118223752D01*
X149136266Y-72783580D02*
X148802933Y-72307390D01*
X148564838Y-72783580D02*
X148564838Y-71783580D01*
X148945790Y-71783580D01*
X149041028Y-71831200D01*
X149088647Y-71878819D01*
X149136266Y-71974057D01*
X149136266Y-72116914D01*
X149088647Y-72212152D01*
X149041028Y-72259771D01*
X148945790Y-72307390D01*
X148564838Y-72307390D01*
X149564838Y-72259771D02*
X149898171Y-72259771D01*
X150041028Y-72783580D02*
X149564838Y-72783580D01*
X149564838Y-71783580D01*
X150041028Y-71783580D01*
X150802933Y-72259771D02*
X150469600Y-72259771D01*
X150469600Y-72783580D02*
X150469600Y-71783580D01*
X150945790Y-71783580D01*
X151469600Y-71783580D02*
X151469600Y-72021676D01*
X151231504Y-71926438D02*
X151469600Y-72021676D01*
X151707695Y-71926438D01*
X151326742Y-72212152D02*
X151469600Y-72021676D01*
X151612457Y-72212152D01*
X152231504Y-71783580D02*
X152231504Y-72021676D01*
X151993409Y-71926438D02*
X152231504Y-72021676D01*
X152469600Y-71926438D01*
X152088647Y-72212152D02*
X152231504Y-72021676D01*
X152374361Y-72212152D01*
X110436286Y-95276381D02*
X110436286Y-94276381D01*
X110769620Y-94990667D01*
X111102953Y-94276381D01*
X111102953Y-95276381D01*
X111483905Y-94276381D02*
X112150572Y-95276381D01*
X112150572Y-94276381D02*
X111483905Y-95276381D01*
X113055334Y-95276381D02*
X112483905Y-95276381D01*
X112769620Y-95276381D02*
X112769620Y-94276381D01*
X112674381Y-94419239D01*
X112579143Y-94514477D01*
X112483905Y-94562096D01*
X110436286Y-75076381D02*
X110436286Y-74076381D01*
X110769620Y-74790667D01*
X111102953Y-74076381D01*
X111102953Y-75076381D01*
X111483905Y-74076381D02*
X112150572Y-75076381D01*
X112150572Y-74076381D02*
X111483905Y-75076381D01*
X112483905Y-74171620D02*
X112531524Y-74124001D01*
X112626762Y-74076381D01*
X112864858Y-74076381D01*
X112960096Y-74124001D01*
X113007715Y-74171620D01*
X113055334Y-74266858D01*
X113055334Y-74362096D01*
X113007715Y-74504953D01*
X112436286Y-75076381D01*
X113055334Y-75076381D01*
X90236286Y-95276381D02*
X90236286Y-94276381D01*
X90569620Y-94990667D01*
X90902953Y-94276381D01*
X90902953Y-95276381D01*
X91283905Y-94276381D02*
X91950572Y-95276381D01*
X91950572Y-94276381D02*
X91283905Y-95276381D01*
X92236286Y-94276381D02*
X92855334Y-94276381D01*
X92522001Y-94657334D01*
X92664858Y-94657334D01*
X92760096Y-94704953D01*
X92807715Y-94752572D01*
X92855334Y-94847810D01*
X92855334Y-95085905D01*
X92807715Y-95181143D01*
X92760096Y-95228762D01*
X92664858Y-95276381D01*
X92379143Y-95276381D01*
X92283905Y-95228762D01*
X92236286Y-95181143D01*
X90236286Y-75076381D02*
X90236286Y-74076381D01*
X90569620Y-74790667D01*
X90902953Y-74076381D01*
X90902953Y-75076381D01*
X91283905Y-74076381D02*
X91950572Y-75076381D01*
X91950572Y-74076381D02*
X91283905Y-75076381D01*
X92760096Y-74409715D02*
X92760096Y-75076381D01*
X92522001Y-74028762D02*
X92283905Y-74743048D01*
X92902953Y-74743048D01*
X70036286Y-95276381D02*
X70036286Y-94276381D01*
X70369620Y-94990667D01*
X70702953Y-94276381D01*
X70702953Y-95276381D01*
X71083905Y-94276381D02*
X71750572Y-95276381D01*
X71750572Y-94276381D02*
X71083905Y-95276381D01*
X72607715Y-94276381D02*
X72131524Y-94276381D01*
X72083905Y-94752572D01*
X72131524Y-94704953D01*
X72226762Y-94657334D01*
X72464858Y-94657334D01*
X72560096Y-94704953D01*
X72607715Y-94752572D01*
X72655334Y-94847810D01*
X72655334Y-95085905D01*
X72607715Y-95181143D01*
X72560096Y-95228762D01*
X72464858Y-95276381D01*
X72226762Y-95276381D01*
X72131524Y-95228762D01*
X72083905Y-95181143D01*
X70036286Y-75076381D02*
X70036286Y-74076381D01*
X70369620Y-74790667D01*
X70702953Y-74076381D01*
X70702953Y-75076381D01*
X71083905Y-74076381D02*
X71750572Y-75076381D01*
X71750572Y-74076381D02*
X71083905Y-75076381D01*
X72560096Y-74076381D02*
X72369620Y-74076381D01*
X72274381Y-74124001D01*
X72226762Y-74171620D01*
X72131524Y-74314477D01*
X72083905Y-74504953D01*
X72083905Y-74885905D01*
X72131524Y-74981143D01*
X72179143Y-75028762D01*
X72274381Y-75076381D01*
X72464858Y-75076381D01*
X72560096Y-75028762D01*
X72607715Y-74981143D01*
X72655334Y-74885905D01*
X72655334Y-74647810D01*
X72607715Y-74552572D01*
X72560096Y-74504953D01*
X72464858Y-74457334D01*
X72274381Y-74457334D01*
X72179143Y-74504953D01*
X72131524Y-74552572D01*
X72083905Y-74647810D01*
M02*
