G04 #@! TF.GenerationSoftware,KiCad,Pcbnew,5.1.5-52549c5~84~ubuntu18.04.1*
G04 #@! TF.CreationDate,2020-02-25T00:11:06-08:00*
G04 #@! TF.ProjectId,dotkb_micro,646f746b-625f-46d6-9963-726f2e6b6963,rev?*
G04 #@! TF.SameCoordinates,Original*
G04 #@! TF.FileFunction,Soldermask,Bot*
G04 #@! TF.FilePolarity,Negative*
%FSLAX46Y46*%
G04 Gerber Fmt 4.6, Leading zero omitted, Abs format (unit mm)*
G04 Created by KiCad (PCBNEW 5.1.5-52549c5~84~ubuntu18.04.1) date 2020-02-25 00:11:06*
%MOMM*%
%LPD*%
G04 APERTURE LIST*
%ADD10C,0.100000*%
G04 APERTURE END LIST*
D10*
G36*
X143330500Y-115923100D02*
G01*
X141428900Y-115923100D01*
X141428900Y-113921500D01*
X143330500Y-113921500D01*
X143330500Y-115923100D01*
G37*
G36*
X140230500Y-115923100D02*
G01*
X139128900Y-115923100D01*
X139128900Y-113921500D01*
X140230500Y-113921500D01*
X140230500Y-115923100D01*
G37*
G36*
X138730500Y-115623100D02*
G01*
X136978900Y-115623100D01*
X136978900Y-114221500D01*
X138730500Y-114221500D01*
X138730500Y-115623100D01*
G37*
G36*
X145480500Y-115623100D02*
G01*
X143728900Y-115623100D01*
X143728900Y-114221500D01*
X145480500Y-114221500D01*
X145480500Y-115623100D01*
G37*
G36*
X58873991Y-112471793D02*
G01*
X59133470Y-112579272D01*
X59366995Y-112735309D01*
X59565591Y-112933905D01*
X59721628Y-113167430D01*
X59829107Y-113426909D01*
X59883900Y-113702371D01*
X59883900Y-113983229D01*
X59829107Y-114258691D01*
X59721628Y-114518170D01*
X59565591Y-114751695D01*
X59366995Y-114950291D01*
X59133470Y-115106328D01*
X58873991Y-115213807D01*
X58598529Y-115268600D01*
X58317671Y-115268600D01*
X58042209Y-115213807D01*
X57782730Y-115106328D01*
X57549205Y-114950291D01*
X57350609Y-114751695D01*
X57194572Y-114518170D01*
X57087093Y-114258691D01*
X57032300Y-113983229D01*
X57032300Y-113702371D01*
X57087093Y-113426909D01*
X57194572Y-113167430D01*
X57350609Y-112933905D01*
X57549205Y-112735309D01*
X57782730Y-112579272D01*
X58042209Y-112471793D01*
X58317671Y-112417000D01*
X58598529Y-112417000D01*
X58873991Y-112471793D01*
G37*
G36*
X150873991Y-112471793D02*
G01*
X151133470Y-112579272D01*
X151366995Y-112735309D01*
X151565591Y-112933905D01*
X151721628Y-113167430D01*
X151829107Y-113426909D01*
X151883900Y-113702371D01*
X151883900Y-113983229D01*
X151829107Y-114258691D01*
X151721628Y-114518170D01*
X151565591Y-114751695D01*
X151366995Y-114950291D01*
X151133470Y-115106328D01*
X150873991Y-115213807D01*
X150598529Y-115268600D01*
X150317671Y-115268600D01*
X150042209Y-115213807D01*
X149782730Y-115106328D01*
X149549205Y-114950291D01*
X149350609Y-114751695D01*
X149194572Y-114518170D01*
X149087093Y-114258691D01*
X149032300Y-113983229D01*
X149032300Y-113702371D01*
X149087093Y-113426909D01*
X149194572Y-113167430D01*
X149350609Y-112933905D01*
X149549205Y-112735309D01*
X149782730Y-112579272D01*
X150042209Y-112471793D01*
X150317671Y-112417000D01*
X150598529Y-112417000D01*
X150873991Y-112471793D01*
G37*
G36*
X144480500Y-113173100D02*
G01*
X142953900Y-113173100D01*
X142953900Y-111521500D01*
X144480500Y-111521500D01*
X144480500Y-113173100D01*
G37*
G36*
X139505500Y-113173100D02*
G01*
X137978900Y-113173100D01*
X137978900Y-111521500D01*
X139505500Y-111521500D01*
X139505500Y-113173100D01*
G37*
G36*
X142805500Y-113003100D02*
G01*
X139653900Y-113003100D01*
X139653900Y-111521500D01*
X142805500Y-111521500D01*
X142805500Y-113003100D01*
G37*
G36*
X135263754Y-109090417D02*
G01*
X135427689Y-109158321D01*
X135575227Y-109256903D01*
X135700697Y-109382373D01*
X135799279Y-109529911D01*
X135867183Y-109693846D01*
X135901800Y-109867879D01*
X135901800Y-110045321D01*
X135867183Y-110219354D01*
X135799279Y-110383289D01*
X135700697Y-110530827D01*
X135575227Y-110656297D01*
X135427689Y-110754879D01*
X135263754Y-110822783D01*
X135089721Y-110857400D01*
X134912279Y-110857400D01*
X134738246Y-110822783D01*
X134574311Y-110754879D01*
X134426773Y-110656297D01*
X134301303Y-110530827D01*
X134202721Y-110383289D01*
X134134817Y-110219354D01*
X134100200Y-110045321D01*
X134100200Y-109867879D01*
X134134817Y-109693846D01*
X134202721Y-109529911D01*
X134301303Y-109382373D01*
X134426773Y-109256903D01*
X134574311Y-109158321D01*
X134738246Y-109090417D01*
X134912279Y-109055800D01*
X135089721Y-109055800D01*
X135263754Y-109090417D01*
G37*
G36*
X130763754Y-109090417D02*
G01*
X130927689Y-109158321D01*
X131075227Y-109256903D01*
X131200697Y-109382373D01*
X131299279Y-109529911D01*
X131367183Y-109693846D01*
X131401800Y-109867879D01*
X131401800Y-110045321D01*
X131367183Y-110219354D01*
X131299279Y-110383289D01*
X131200697Y-110530827D01*
X131075227Y-110656297D01*
X130927689Y-110754879D01*
X130763754Y-110822783D01*
X130589721Y-110857400D01*
X130412279Y-110857400D01*
X130238246Y-110822783D01*
X130074311Y-110754879D01*
X129926773Y-110656297D01*
X129801303Y-110530827D01*
X129702721Y-110383289D01*
X129634817Y-110219354D01*
X129600200Y-110045321D01*
X129600200Y-109867879D01*
X129634817Y-109693846D01*
X129702721Y-109529911D01*
X129801303Y-109382373D01*
X129926773Y-109256903D01*
X130074311Y-109158321D01*
X130238246Y-109090417D01*
X130412279Y-109055800D01*
X130589721Y-109055800D01*
X130763754Y-109090417D01*
G37*
G36*
X147379456Y-108523651D02*
G01*
X147424441Y-108537297D01*
X147465893Y-108559454D01*
X147502227Y-108589273D01*
X147532046Y-108625607D01*
X147554203Y-108667059D01*
X147567849Y-108712044D01*
X147572700Y-108761303D01*
X147572700Y-109627897D01*
X147567849Y-109677156D01*
X147554203Y-109722141D01*
X147532046Y-109763593D01*
X147502227Y-109799927D01*
X147465893Y-109829746D01*
X147424441Y-109851903D01*
X147379456Y-109865549D01*
X147330197Y-109870400D01*
X145963603Y-109870400D01*
X145914344Y-109865549D01*
X145869359Y-109851903D01*
X145827907Y-109829746D01*
X145791573Y-109799927D01*
X145761754Y-109763593D01*
X145739597Y-109722141D01*
X145725951Y-109677156D01*
X145721100Y-109627897D01*
X145721100Y-108761303D01*
X145725951Y-108712044D01*
X145739597Y-108667059D01*
X145761754Y-108625607D01*
X145791573Y-108589273D01*
X145827907Y-108559454D01*
X145869359Y-108537297D01*
X145914344Y-108523651D01*
X145963603Y-108518800D01*
X147330197Y-108518800D01*
X147379456Y-108523651D01*
G37*
G36*
X143708833Y-108331026D02*
G01*
X143754546Y-108344893D01*
X143796665Y-108367406D01*
X143833591Y-108397709D01*
X143863894Y-108434635D01*
X143886407Y-108476754D01*
X143900274Y-108522467D01*
X143905200Y-108572483D01*
X143905200Y-109156317D01*
X143900274Y-109206333D01*
X143886407Y-109252046D01*
X143863894Y-109294165D01*
X143833591Y-109331091D01*
X143796665Y-109361394D01*
X143754546Y-109383907D01*
X143708833Y-109397774D01*
X143658817Y-109402700D01*
X142649983Y-109402700D01*
X142599967Y-109397774D01*
X142554254Y-109383907D01*
X142512135Y-109361394D01*
X142475209Y-109331091D01*
X142444906Y-109294165D01*
X142422393Y-109252046D01*
X142408526Y-109206333D01*
X142403600Y-109156317D01*
X142403600Y-108572483D01*
X142408526Y-108522467D01*
X142422393Y-108476754D01*
X142444906Y-108434635D01*
X142475209Y-108397709D01*
X142512135Y-108367406D01*
X142554254Y-108344893D01*
X142599967Y-108331026D01*
X142649983Y-108326100D01*
X143658817Y-108326100D01*
X143708833Y-108331026D01*
G37*
G36*
X140203633Y-108331026D02*
G01*
X140249346Y-108344893D01*
X140291465Y-108367406D01*
X140328391Y-108397709D01*
X140358694Y-108434635D01*
X140381207Y-108476754D01*
X140395074Y-108522467D01*
X140400000Y-108572483D01*
X140400000Y-109156317D01*
X140395074Y-109206333D01*
X140381207Y-109252046D01*
X140358694Y-109294165D01*
X140328391Y-109331091D01*
X140291465Y-109361394D01*
X140249346Y-109383907D01*
X140203633Y-109397774D01*
X140153617Y-109402700D01*
X139144783Y-109402700D01*
X139094767Y-109397774D01*
X139049054Y-109383907D01*
X139006935Y-109361394D01*
X138970009Y-109331091D01*
X138939706Y-109294165D01*
X138917193Y-109252046D01*
X138903326Y-109206333D01*
X138898400Y-109156317D01*
X138898400Y-108572483D01*
X138903326Y-108522467D01*
X138917193Y-108476754D01*
X138939706Y-108434635D01*
X138970009Y-108397709D01*
X139006935Y-108367406D01*
X139049054Y-108344893D01*
X139094767Y-108331026D01*
X139144783Y-108326100D01*
X140153617Y-108326100D01*
X140203633Y-108331026D01*
G37*
G36*
X110610800Y-108473800D02*
G01*
X109609200Y-108473800D01*
X109609200Y-107172200D01*
X110610800Y-107172200D01*
X110610800Y-108473800D01*
G37*
G36*
X113910800Y-108473800D02*
G01*
X112909200Y-108473800D01*
X112909200Y-107172200D01*
X113910800Y-107172200D01*
X113910800Y-108473800D01*
G37*
G36*
X73144800Y-108473800D02*
G01*
X72143200Y-108473800D01*
X72143200Y-107172200D01*
X73144800Y-107172200D01*
X73144800Y-108473800D01*
G37*
G36*
X69844800Y-108473800D02*
G01*
X68843200Y-108473800D01*
X68843200Y-107172200D01*
X69844800Y-107172200D01*
X69844800Y-108473800D01*
G37*
G36*
X93590800Y-108346800D02*
G01*
X92589200Y-108346800D01*
X92589200Y-107045200D01*
X93590800Y-107045200D01*
X93590800Y-108346800D01*
G37*
G36*
X90290800Y-108346800D02*
G01*
X89289200Y-108346800D01*
X89289200Y-107045200D01*
X90290800Y-107045200D01*
X90290800Y-108346800D01*
G37*
G36*
X140203633Y-106456026D02*
G01*
X140249346Y-106469893D01*
X140291465Y-106492406D01*
X140328391Y-106522709D01*
X140358694Y-106559635D01*
X140381207Y-106601754D01*
X140395074Y-106647467D01*
X140400000Y-106697483D01*
X140400000Y-107281317D01*
X140395074Y-107331333D01*
X140381207Y-107377046D01*
X140358694Y-107419165D01*
X140328391Y-107456091D01*
X140291465Y-107486394D01*
X140249346Y-107508907D01*
X140203633Y-107522774D01*
X140153617Y-107527700D01*
X139144783Y-107527700D01*
X139094767Y-107522774D01*
X139049054Y-107508907D01*
X139006935Y-107486394D01*
X138970009Y-107456091D01*
X138939706Y-107419165D01*
X138917193Y-107377046D01*
X138903326Y-107331333D01*
X138898400Y-107281317D01*
X138898400Y-106697483D01*
X138903326Y-106647467D01*
X138917193Y-106601754D01*
X138939706Y-106559635D01*
X138970009Y-106522709D01*
X139006935Y-106492406D01*
X139049054Y-106469893D01*
X139094767Y-106456026D01*
X139144783Y-106451100D01*
X140153617Y-106451100D01*
X140203633Y-106456026D01*
G37*
G36*
X143708833Y-106456026D02*
G01*
X143754546Y-106469893D01*
X143796665Y-106492406D01*
X143833591Y-106522709D01*
X143863894Y-106559635D01*
X143886407Y-106601754D01*
X143900274Y-106647467D01*
X143905200Y-106697483D01*
X143905200Y-107281317D01*
X143900274Y-107331333D01*
X143886407Y-107377046D01*
X143863894Y-107419165D01*
X143833591Y-107456091D01*
X143796665Y-107486394D01*
X143754546Y-107508907D01*
X143708833Y-107522774D01*
X143658817Y-107527700D01*
X142649983Y-107527700D01*
X142599967Y-107522774D01*
X142554254Y-107508907D01*
X142512135Y-107486394D01*
X142475209Y-107456091D01*
X142444906Y-107419165D01*
X142422393Y-107377046D01*
X142408526Y-107331333D01*
X142403600Y-107281317D01*
X142403600Y-106697483D01*
X142408526Y-106647467D01*
X142422393Y-106601754D01*
X142444906Y-106559635D01*
X142475209Y-106522709D01*
X142512135Y-106492406D01*
X142554254Y-106469893D01*
X142599967Y-106456026D01*
X142649983Y-106451100D01*
X143658817Y-106451100D01*
X143708833Y-106456026D01*
G37*
G36*
X147379456Y-105723651D02*
G01*
X147424441Y-105737297D01*
X147465893Y-105759454D01*
X147502227Y-105789273D01*
X147532046Y-105825607D01*
X147554203Y-105867059D01*
X147567849Y-105912044D01*
X147572700Y-105961303D01*
X147572700Y-106827897D01*
X147567849Y-106877156D01*
X147554203Y-106922141D01*
X147532046Y-106963593D01*
X147502227Y-106999927D01*
X147465893Y-107029746D01*
X147424441Y-107051903D01*
X147379456Y-107065549D01*
X147330197Y-107070400D01*
X145963603Y-107070400D01*
X145914344Y-107065549D01*
X145869359Y-107051903D01*
X145827907Y-107029746D01*
X145791573Y-106999927D01*
X145761754Y-106963593D01*
X145739597Y-106922141D01*
X145725951Y-106877156D01*
X145721100Y-106827897D01*
X145721100Y-105961303D01*
X145725951Y-105912044D01*
X145739597Y-105867059D01*
X145761754Y-105825607D01*
X145791573Y-105789273D01*
X145827907Y-105759454D01*
X145869359Y-105737297D01*
X145914344Y-105723651D01*
X145963603Y-105718800D01*
X147330197Y-105718800D01*
X147379456Y-105723651D01*
G37*
G36*
X112320197Y-100726012D02*
G01*
X112693419Y-100880606D01*
X113029310Y-101105041D01*
X113314961Y-101390692D01*
X113539396Y-101726583D01*
X113693990Y-102099805D01*
X113772801Y-102496015D01*
X113772801Y-102899987D01*
X113693990Y-103296197D01*
X113539396Y-103669419D01*
X113314961Y-104005310D01*
X113029310Y-104290961D01*
X112693419Y-104515396D01*
X112320197Y-104669990D01*
X111923987Y-104748801D01*
X111520015Y-104748801D01*
X111123805Y-104669990D01*
X110750583Y-104515396D01*
X110414692Y-104290961D01*
X110129041Y-104005310D01*
X109904606Y-103669419D01*
X109750012Y-103296197D01*
X109671201Y-102899987D01*
X109671201Y-102496015D01*
X109750012Y-102099805D01*
X109904606Y-101726583D01*
X110129041Y-101390692D01*
X110414692Y-101105041D01*
X110750583Y-100880606D01*
X111123805Y-100726012D01*
X111520015Y-100647201D01*
X111923987Y-100647201D01*
X112320197Y-100726012D01*
G37*
G36*
X92120197Y-100726012D02*
G01*
X92493419Y-100880606D01*
X92829310Y-101105041D01*
X93114961Y-101390692D01*
X93339396Y-101726583D01*
X93493990Y-102099805D01*
X93572801Y-102496015D01*
X93572801Y-102899987D01*
X93493990Y-103296197D01*
X93339396Y-103669419D01*
X93114961Y-104005310D01*
X92829310Y-104290961D01*
X92493419Y-104515396D01*
X92120197Y-104669990D01*
X91723987Y-104748801D01*
X91320015Y-104748801D01*
X90923805Y-104669990D01*
X90550583Y-104515396D01*
X90214692Y-104290961D01*
X89929041Y-104005310D01*
X89704606Y-103669419D01*
X89550012Y-103296197D01*
X89471201Y-102899987D01*
X89471201Y-102496015D01*
X89550012Y-102099805D01*
X89704606Y-101726583D01*
X89929041Y-101390692D01*
X90214692Y-101105041D01*
X90550583Y-100880606D01*
X90923805Y-100726012D01*
X91320015Y-100647201D01*
X91723987Y-100647201D01*
X92120197Y-100726012D01*
G37*
G36*
X71920197Y-100726012D02*
G01*
X72293419Y-100880606D01*
X72629310Y-101105041D01*
X72914961Y-101390692D01*
X73139396Y-101726583D01*
X73293990Y-102099805D01*
X73372801Y-102496015D01*
X73372801Y-102899987D01*
X73293990Y-103296197D01*
X73139396Y-103669419D01*
X72914961Y-104005310D01*
X72629310Y-104290961D01*
X72293419Y-104515396D01*
X71920197Y-104669990D01*
X71523987Y-104748801D01*
X71120015Y-104748801D01*
X70723805Y-104669990D01*
X70350583Y-104515396D01*
X70014692Y-104290961D01*
X69729041Y-104005310D01*
X69504606Y-103669419D01*
X69350012Y-103296197D01*
X69271201Y-102899987D01*
X69271201Y-102496015D01*
X69350012Y-102099805D01*
X69504606Y-101726583D01*
X69729041Y-101390692D01*
X70014692Y-101105041D01*
X70350583Y-100880606D01*
X70723805Y-100726012D01*
X71120015Y-100647201D01*
X71523987Y-100647201D01*
X71920197Y-100726012D01*
G37*
G36*
X135263754Y-102590417D02*
G01*
X135427689Y-102658321D01*
X135575227Y-102756903D01*
X135700697Y-102882373D01*
X135799279Y-103029911D01*
X135867183Y-103193846D01*
X135901800Y-103367879D01*
X135901800Y-103545321D01*
X135867183Y-103719354D01*
X135799279Y-103883289D01*
X135700697Y-104030827D01*
X135575227Y-104156297D01*
X135427689Y-104254879D01*
X135263754Y-104322783D01*
X135089721Y-104357400D01*
X134912279Y-104357400D01*
X134738246Y-104322783D01*
X134574311Y-104254879D01*
X134426773Y-104156297D01*
X134301303Y-104030827D01*
X134202721Y-103883289D01*
X134134817Y-103719354D01*
X134100200Y-103545321D01*
X134100200Y-103367879D01*
X134134817Y-103193846D01*
X134202721Y-103029911D01*
X134301303Y-102882373D01*
X134426773Y-102756903D01*
X134574311Y-102658321D01*
X134738246Y-102590417D01*
X134912279Y-102555800D01*
X135089721Y-102555800D01*
X135263754Y-102590417D01*
G37*
G36*
X130763754Y-102590417D02*
G01*
X130927689Y-102658321D01*
X131075227Y-102756903D01*
X131200697Y-102882373D01*
X131299279Y-103029911D01*
X131367183Y-103193846D01*
X131401800Y-103367879D01*
X131401800Y-103545321D01*
X131367183Y-103719354D01*
X131299279Y-103883289D01*
X131200697Y-104030827D01*
X131075227Y-104156297D01*
X130927689Y-104254879D01*
X130763754Y-104322783D01*
X130589721Y-104357400D01*
X130412279Y-104357400D01*
X130238246Y-104322783D01*
X130074311Y-104254879D01*
X129926773Y-104156297D01*
X129801303Y-104030827D01*
X129702721Y-103883289D01*
X129634817Y-103719354D01*
X129600200Y-103545321D01*
X129600200Y-103367879D01*
X129634817Y-103193846D01*
X129702721Y-103029911D01*
X129801303Y-102882373D01*
X129926773Y-102756903D01*
X130074311Y-102658321D01*
X130238246Y-102590417D01*
X130412279Y-102555800D01*
X130589721Y-102555800D01*
X130763754Y-102590417D01*
G37*
G36*
X76664755Y-101831818D02*
G01*
X76828690Y-101899722D01*
X76976228Y-101998304D01*
X77101698Y-102123774D01*
X77200280Y-102271312D01*
X77268184Y-102435247D01*
X77302801Y-102609280D01*
X77302801Y-102786722D01*
X77268184Y-102960755D01*
X77200280Y-103124690D01*
X77101698Y-103272228D01*
X76976228Y-103397698D01*
X76828690Y-103496280D01*
X76664755Y-103564184D01*
X76490722Y-103598801D01*
X76313280Y-103598801D01*
X76139247Y-103564184D01*
X75975312Y-103496280D01*
X75827774Y-103397698D01*
X75702304Y-103272228D01*
X75603722Y-103124690D01*
X75535818Y-102960755D01*
X75501201Y-102786722D01*
X75501201Y-102609280D01*
X75535818Y-102435247D01*
X75603722Y-102271312D01*
X75702304Y-102123774D01*
X75827774Y-101998304D01*
X75975312Y-101899722D01*
X76139247Y-101831818D01*
X76313280Y-101797201D01*
X76490722Y-101797201D01*
X76664755Y-101831818D01*
G37*
G36*
X86704755Y-101831818D02*
G01*
X86868690Y-101899722D01*
X87016228Y-101998304D01*
X87141698Y-102123774D01*
X87240280Y-102271312D01*
X87308184Y-102435247D01*
X87342801Y-102609280D01*
X87342801Y-102786722D01*
X87308184Y-102960755D01*
X87240280Y-103124690D01*
X87141698Y-103272228D01*
X87016228Y-103397698D01*
X86868690Y-103496280D01*
X86704755Y-103564184D01*
X86530722Y-103598801D01*
X86353280Y-103598801D01*
X86179247Y-103564184D01*
X86015312Y-103496280D01*
X85867774Y-103397698D01*
X85742304Y-103272228D01*
X85643722Y-103124690D01*
X85575818Y-102960755D01*
X85541201Y-102786722D01*
X85541201Y-102609280D01*
X85575818Y-102435247D01*
X85643722Y-102271312D01*
X85742304Y-102123774D01*
X85867774Y-101998304D01*
X86015312Y-101899722D01*
X86179247Y-101831818D01*
X86353280Y-101797201D01*
X86530722Y-101797201D01*
X86704755Y-101831818D01*
G37*
G36*
X96864755Y-101831818D02*
G01*
X97028690Y-101899722D01*
X97176228Y-101998304D01*
X97301698Y-102123774D01*
X97400280Y-102271312D01*
X97468184Y-102435247D01*
X97502801Y-102609280D01*
X97502801Y-102786722D01*
X97468184Y-102960755D01*
X97400280Y-103124690D01*
X97301698Y-103272228D01*
X97176228Y-103397698D01*
X97028690Y-103496280D01*
X96864755Y-103564184D01*
X96690722Y-103598801D01*
X96513280Y-103598801D01*
X96339247Y-103564184D01*
X96175312Y-103496280D01*
X96027774Y-103397698D01*
X95902304Y-103272228D01*
X95803722Y-103124690D01*
X95735818Y-102960755D01*
X95701201Y-102786722D01*
X95701201Y-102609280D01*
X95735818Y-102435247D01*
X95803722Y-102271312D01*
X95902304Y-102123774D01*
X96027774Y-101998304D01*
X96175312Y-101899722D01*
X96339247Y-101831818D01*
X96513280Y-101797201D01*
X96690722Y-101797201D01*
X96864755Y-101831818D01*
G37*
G36*
X66504755Y-101831818D02*
G01*
X66668690Y-101899722D01*
X66816228Y-101998304D01*
X66941698Y-102123774D01*
X67040280Y-102271312D01*
X67108184Y-102435247D01*
X67142801Y-102609280D01*
X67142801Y-102786722D01*
X67108184Y-102960755D01*
X67040280Y-103124690D01*
X66941698Y-103272228D01*
X66816228Y-103397698D01*
X66668690Y-103496280D01*
X66504755Y-103564184D01*
X66330722Y-103598801D01*
X66153280Y-103598801D01*
X65979247Y-103564184D01*
X65815312Y-103496280D01*
X65667774Y-103397698D01*
X65542304Y-103272228D01*
X65443722Y-103124690D01*
X65375818Y-102960755D01*
X65341201Y-102786722D01*
X65341201Y-102609280D01*
X65375818Y-102435247D01*
X65443722Y-102271312D01*
X65542304Y-102123774D01*
X65667774Y-101998304D01*
X65815312Y-101899722D01*
X65979247Y-101831818D01*
X66153280Y-101797201D01*
X66330722Y-101797201D01*
X66504755Y-101831818D01*
G37*
G36*
X106904755Y-101831818D02*
G01*
X107068690Y-101899722D01*
X107216228Y-101998304D01*
X107341698Y-102123774D01*
X107440280Y-102271312D01*
X107508184Y-102435247D01*
X107542801Y-102609280D01*
X107542801Y-102786722D01*
X107508184Y-102960755D01*
X107440280Y-103124690D01*
X107341698Y-103272228D01*
X107216228Y-103397698D01*
X107068690Y-103496280D01*
X106904755Y-103564184D01*
X106730722Y-103598801D01*
X106553280Y-103598801D01*
X106379247Y-103564184D01*
X106215312Y-103496280D01*
X106067774Y-103397698D01*
X105942304Y-103272228D01*
X105843722Y-103124690D01*
X105775818Y-102960755D01*
X105741201Y-102786722D01*
X105741201Y-102609280D01*
X105775818Y-102435247D01*
X105843722Y-102271312D01*
X105942304Y-102123774D01*
X106067774Y-101998304D01*
X106215312Y-101899722D01*
X106379247Y-101831818D01*
X106553280Y-101797201D01*
X106730722Y-101797201D01*
X106904755Y-101831818D01*
G37*
G36*
X117064755Y-101831818D02*
G01*
X117228690Y-101899722D01*
X117376228Y-101998304D01*
X117501698Y-102123774D01*
X117600280Y-102271312D01*
X117668184Y-102435247D01*
X117702801Y-102609280D01*
X117702801Y-102786722D01*
X117668184Y-102960755D01*
X117600280Y-103124690D01*
X117501698Y-103272228D01*
X117376228Y-103397698D01*
X117228690Y-103496280D01*
X117064755Y-103564184D01*
X116890722Y-103598801D01*
X116713280Y-103598801D01*
X116539247Y-103564184D01*
X116375312Y-103496280D01*
X116227774Y-103397698D01*
X116102304Y-103272228D01*
X116003722Y-103124690D01*
X115935818Y-102960755D01*
X115901201Y-102786722D01*
X115901201Y-102609280D01*
X115935818Y-102435247D01*
X116003722Y-102271312D01*
X116102304Y-102123774D01*
X116227774Y-101998304D01*
X116375312Y-101899722D01*
X116539247Y-101831818D01*
X116713280Y-101797201D01*
X116890722Y-101797201D01*
X117064755Y-101831818D01*
G37*
G36*
X87888432Y-99019750D02*
G01*
X88047679Y-99051426D01*
X88257110Y-99138175D01*
X88445594Y-99264116D01*
X88605886Y-99424408D01*
X88731827Y-99612892D01*
X88818576Y-99822323D01*
X88818576Y-99822325D01*
X88862801Y-100044657D01*
X88862801Y-100271345D01*
X88857338Y-100298807D01*
X88818576Y-100493679D01*
X88731827Y-100703110D01*
X88605886Y-100891594D01*
X88445594Y-101051886D01*
X88257110Y-101177827D01*
X88047679Y-101264576D01*
X87899456Y-101294059D01*
X87825345Y-101308801D01*
X87598657Y-101308801D01*
X87524546Y-101294059D01*
X87376323Y-101264576D01*
X87166892Y-101177827D01*
X86978408Y-101051886D01*
X86818116Y-100891594D01*
X86692175Y-100703110D01*
X86605426Y-100493679D01*
X86566664Y-100298807D01*
X86561201Y-100271345D01*
X86561201Y-100044657D01*
X86605426Y-99822325D01*
X86605426Y-99822323D01*
X86692175Y-99612892D01*
X86818116Y-99424408D01*
X86978408Y-99264116D01*
X87166892Y-99138175D01*
X87376323Y-99051426D01*
X87535570Y-99019750D01*
X87598657Y-99007201D01*
X87825345Y-99007201D01*
X87888432Y-99019750D01*
G37*
G36*
X108088432Y-99019750D02*
G01*
X108247679Y-99051426D01*
X108457110Y-99138175D01*
X108645594Y-99264116D01*
X108805886Y-99424408D01*
X108931827Y-99612892D01*
X109018576Y-99822323D01*
X109018576Y-99822325D01*
X109062801Y-100044657D01*
X109062801Y-100271345D01*
X109057338Y-100298807D01*
X109018576Y-100493679D01*
X108931827Y-100703110D01*
X108805886Y-100891594D01*
X108645594Y-101051886D01*
X108457110Y-101177827D01*
X108247679Y-101264576D01*
X108099456Y-101294059D01*
X108025345Y-101308801D01*
X107798657Y-101308801D01*
X107724546Y-101294059D01*
X107576323Y-101264576D01*
X107366892Y-101177827D01*
X107178408Y-101051886D01*
X107018116Y-100891594D01*
X106892175Y-100703110D01*
X106805426Y-100493679D01*
X106766664Y-100298807D01*
X106761201Y-100271345D01*
X106761201Y-100044657D01*
X106805426Y-99822325D01*
X106805426Y-99822323D01*
X106892175Y-99612892D01*
X107018116Y-99424408D01*
X107178408Y-99264116D01*
X107366892Y-99138175D01*
X107576323Y-99051426D01*
X107735570Y-99019750D01*
X107798657Y-99007201D01*
X108025345Y-99007201D01*
X108088432Y-99019750D01*
G37*
G36*
X67688432Y-99019750D02*
G01*
X67847679Y-99051426D01*
X68057110Y-99138175D01*
X68245594Y-99264116D01*
X68405886Y-99424408D01*
X68531827Y-99612892D01*
X68618576Y-99822323D01*
X68618576Y-99822325D01*
X68662801Y-100044657D01*
X68662801Y-100271345D01*
X68657338Y-100298807D01*
X68618576Y-100493679D01*
X68531827Y-100703110D01*
X68405886Y-100891594D01*
X68245594Y-101051886D01*
X68057110Y-101177827D01*
X67847679Y-101264576D01*
X67699456Y-101294059D01*
X67625345Y-101308801D01*
X67398657Y-101308801D01*
X67324546Y-101294059D01*
X67176323Y-101264576D01*
X66966892Y-101177827D01*
X66778408Y-101051886D01*
X66618116Y-100891594D01*
X66492175Y-100703110D01*
X66405426Y-100493679D01*
X66366664Y-100298807D01*
X66361201Y-100271345D01*
X66361201Y-100044657D01*
X66405426Y-99822325D01*
X66405426Y-99822323D01*
X66492175Y-99612892D01*
X66618116Y-99424408D01*
X66778408Y-99264116D01*
X66966892Y-99138175D01*
X67176323Y-99051426D01*
X67335570Y-99019750D01*
X67398657Y-99007201D01*
X67625345Y-99007201D01*
X67688432Y-99019750D01*
G37*
G36*
X138904164Y-99224306D02*
G01*
X138948704Y-99237817D01*
X138989746Y-99259755D01*
X139025721Y-99289279D01*
X139055245Y-99325254D01*
X139077183Y-99366296D01*
X139090694Y-99410836D01*
X139095500Y-99459633D01*
X139095500Y-100130967D01*
X139090694Y-100179764D01*
X139077183Y-100224304D01*
X139055245Y-100265346D01*
X139025721Y-100301321D01*
X138989746Y-100330845D01*
X138948704Y-100352783D01*
X138904164Y-100366294D01*
X138855367Y-100371100D01*
X138284033Y-100371100D01*
X138235236Y-100366294D01*
X138190696Y-100352783D01*
X138149654Y-100330845D01*
X138113679Y-100301321D01*
X138084155Y-100265346D01*
X138062217Y-100224304D01*
X138048706Y-100179764D01*
X138043900Y-100130967D01*
X138043900Y-99459633D01*
X138048706Y-99410836D01*
X138062217Y-99366296D01*
X138084155Y-99325254D01*
X138113679Y-99289279D01*
X138149654Y-99259755D01*
X138190696Y-99237817D01*
X138235236Y-99224306D01*
X138284033Y-99219500D01*
X138855367Y-99219500D01*
X138904164Y-99224306D01*
G37*
G36*
X143188133Y-99245926D02*
G01*
X143233846Y-99259793D01*
X143275965Y-99282306D01*
X143312891Y-99312609D01*
X143343194Y-99349535D01*
X143365707Y-99391654D01*
X143379574Y-99437367D01*
X143384500Y-99487383D01*
X143384500Y-100071217D01*
X143379574Y-100121233D01*
X143365707Y-100166946D01*
X143343194Y-100209065D01*
X143312891Y-100245991D01*
X143275965Y-100276294D01*
X143233846Y-100298807D01*
X143188133Y-100312674D01*
X143138117Y-100317600D01*
X142129283Y-100317600D01*
X142079267Y-100312674D01*
X142033554Y-100298807D01*
X141991435Y-100276294D01*
X141954509Y-100245991D01*
X141924206Y-100209065D01*
X141901693Y-100166946D01*
X141887826Y-100121233D01*
X141882900Y-100071217D01*
X141882900Y-99487383D01*
X141887826Y-99437367D01*
X141901693Y-99391654D01*
X141924206Y-99349535D01*
X141954509Y-99312609D01*
X141991435Y-99282306D01*
X142033554Y-99259793D01*
X142079267Y-99245926D01*
X142129283Y-99241000D01*
X143138117Y-99241000D01*
X143188133Y-99245926D01*
G37*
G36*
X130869133Y-98255326D02*
G01*
X130914846Y-98269193D01*
X130956965Y-98291706D01*
X130993891Y-98322009D01*
X131024194Y-98358935D01*
X131046707Y-98401054D01*
X131060574Y-98446767D01*
X131065500Y-98496783D01*
X131065500Y-99080617D01*
X131060574Y-99130633D01*
X131046707Y-99176346D01*
X131024194Y-99218465D01*
X130993891Y-99255391D01*
X130956965Y-99285694D01*
X130914846Y-99308207D01*
X130869133Y-99322074D01*
X130819117Y-99327000D01*
X129810283Y-99327000D01*
X129760267Y-99322074D01*
X129714554Y-99308207D01*
X129672435Y-99285694D01*
X129635509Y-99255391D01*
X129605206Y-99218465D01*
X129582693Y-99176346D01*
X129568826Y-99130633D01*
X129563900Y-99080617D01*
X129563900Y-98496783D01*
X129568826Y-98446767D01*
X129582693Y-98401054D01*
X129605206Y-98358935D01*
X129635509Y-98322009D01*
X129672435Y-98291706D01*
X129714554Y-98269193D01*
X129760267Y-98255326D01*
X129810283Y-98250400D01*
X130819117Y-98250400D01*
X130869133Y-98255326D01*
G37*
G36*
X133548833Y-98217226D02*
G01*
X133594546Y-98231093D01*
X133636665Y-98253606D01*
X133673591Y-98283909D01*
X133703894Y-98320835D01*
X133726407Y-98362954D01*
X133740274Y-98408667D01*
X133745200Y-98458683D01*
X133745200Y-99042517D01*
X133740274Y-99092533D01*
X133726407Y-99138246D01*
X133703894Y-99180365D01*
X133673591Y-99217291D01*
X133636665Y-99247594D01*
X133594546Y-99270107D01*
X133548833Y-99283974D01*
X133498817Y-99288900D01*
X132489983Y-99288900D01*
X132439967Y-99283974D01*
X132394254Y-99270107D01*
X132352135Y-99247594D01*
X132315209Y-99217291D01*
X132284906Y-99180365D01*
X132262393Y-99138246D01*
X132248526Y-99092533D01*
X132243600Y-99042517D01*
X132243600Y-98458683D01*
X132248526Y-98408667D01*
X132262393Y-98362954D01*
X132284906Y-98320835D01*
X132315209Y-98283909D01*
X132352135Y-98253606D01*
X132394254Y-98231093D01*
X132439967Y-98217226D01*
X132489983Y-98212300D01*
X133498817Y-98212300D01*
X133548833Y-98217226D01*
G37*
G36*
X74049456Y-96481943D02*
G01*
X74197679Y-96511426D01*
X74407110Y-96598175D01*
X74595594Y-96724116D01*
X74755886Y-96884408D01*
X74881827Y-97072892D01*
X74968576Y-97282323D01*
X75012801Y-97504658D01*
X75012801Y-97731344D01*
X74968576Y-97953679D01*
X74881827Y-98163110D01*
X74755886Y-98351594D01*
X74595594Y-98511886D01*
X74407110Y-98637827D01*
X74197679Y-98724576D01*
X74049456Y-98754059D01*
X73975345Y-98768801D01*
X73748657Y-98768801D01*
X73674546Y-98754059D01*
X73526323Y-98724576D01*
X73316892Y-98637827D01*
X73128408Y-98511886D01*
X72968116Y-98351594D01*
X72842175Y-98163110D01*
X72755426Y-97953679D01*
X72711201Y-97731344D01*
X72711201Y-97504658D01*
X72755426Y-97282323D01*
X72842175Y-97072892D01*
X72968116Y-96884408D01*
X73128408Y-96724116D01*
X73316892Y-96598175D01*
X73526323Y-96511426D01*
X73674546Y-96481943D01*
X73748657Y-96467201D01*
X73975345Y-96467201D01*
X74049456Y-96481943D01*
G37*
G36*
X94249456Y-96481943D02*
G01*
X94397679Y-96511426D01*
X94607110Y-96598175D01*
X94795594Y-96724116D01*
X94955886Y-96884408D01*
X95081827Y-97072892D01*
X95168576Y-97282323D01*
X95212801Y-97504658D01*
X95212801Y-97731344D01*
X95168576Y-97953679D01*
X95081827Y-98163110D01*
X94955886Y-98351594D01*
X94795594Y-98511886D01*
X94607110Y-98637827D01*
X94397679Y-98724576D01*
X94249456Y-98754059D01*
X94175345Y-98768801D01*
X93948657Y-98768801D01*
X93874546Y-98754059D01*
X93726323Y-98724576D01*
X93516892Y-98637827D01*
X93328408Y-98511886D01*
X93168116Y-98351594D01*
X93042175Y-98163110D01*
X92955426Y-97953679D01*
X92911201Y-97731344D01*
X92911201Y-97504658D01*
X92955426Y-97282323D01*
X93042175Y-97072892D01*
X93168116Y-96884408D01*
X93328408Y-96724116D01*
X93516892Y-96598175D01*
X93726323Y-96511426D01*
X93874546Y-96481943D01*
X93948657Y-96467201D01*
X94175345Y-96467201D01*
X94249456Y-96481943D01*
G37*
G36*
X114449456Y-96481943D02*
G01*
X114597679Y-96511426D01*
X114807110Y-96598175D01*
X114995594Y-96724116D01*
X115155886Y-96884408D01*
X115281827Y-97072892D01*
X115368576Y-97282323D01*
X115412801Y-97504658D01*
X115412801Y-97731344D01*
X115368576Y-97953679D01*
X115281827Y-98163110D01*
X115155886Y-98351594D01*
X114995594Y-98511886D01*
X114807110Y-98637827D01*
X114597679Y-98724576D01*
X114449456Y-98754059D01*
X114375345Y-98768801D01*
X114148657Y-98768801D01*
X114074546Y-98754059D01*
X113926323Y-98724576D01*
X113716892Y-98637827D01*
X113528408Y-98511886D01*
X113368116Y-98351594D01*
X113242175Y-98163110D01*
X113155426Y-97953679D01*
X113111201Y-97731344D01*
X113111201Y-97504658D01*
X113155426Y-97282323D01*
X113242175Y-97072892D01*
X113368116Y-96884408D01*
X113528408Y-96724116D01*
X113716892Y-96598175D01*
X113926323Y-96511426D01*
X114074546Y-96481943D01*
X114148657Y-96467201D01*
X114375345Y-96467201D01*
X114449456Y-96481943D01*
G37*
G36*
X138904164Y-97474306D02*
G01*
X138948704Y-97487817D01*
X138989746Y-97509755D01*
X139025721Y-97539279D01*
X139055245Y-97575254D01*
X139077183Y-97616296D01*
X139090694Y-97660836D01*
X139095500Y-97709633D01*
X139095500Y-98380967D01*
X139090694Y-98429764D01*
X139077183Y-98474304D01*
X139055245Y-98515346D01*
X139025721Y-98551321D01*
X138989746Y-98580845D01*
X138948704Y-98602783D01*
X138904164Y-98616294D01*
X138855367Y-98621100D01*
X138284033Y-98621100D01*
X138235236Y-98616294D01*
X138190696Y-98602783D01*
X138149654Y-98580845D01*
X138113679Y-98551321D01*
X138084155Y-98515346D01*
X138062217Y-98474304D01*
X138048706Y-98429764D01*
X138043900Y-98380967D01*
X138043900Y-97709633D01*
X138048706Y-97660836D01*
X138062217Y-97616296D01*
X138084155Y-97575254D01*
X138113679Y-97539279D01*
X138149654Y-97509755D01*
X138190696Y-97487817D01*
X138235236Y-97474306D01*
X138284033Y-97469500D01*
X138855367Y-97469500D01*
X138904164Y-97474306D01*
G37*
G36*
X143188133Y-97370926D02*
G01*
X143233846Y-97384793D01*
X143275965Y-97407306D01*
X143312891Y-97437609D01*
X143343194Y-97474535D01*
X143365707Y-97516654D01*
X143379574Y-97562367D01*
X143384500Y-97612383D01*
X143384500Y-98196217D01*
X143379574Y-98246233D01*
X143365707Y-98291946D01*
X143343194Y-98334065D01*
X143312891Y-98370991D01*
X143275965Y-98401294D01*
X143233846Y-98423807D01*
X143188133Y-98437674D01*
X143138117Y-98442600D01*
X142129283Y-98442600D01*
X142079267Y-98437674D01*
X142033554Y-98423807D01*
X141991435Y-98401294D01*
X141954509Y-98370991D01*
X141924206Y-98334065D01*
X141901693Y-98291946D01*
X141887826Y-98246233D01*
X141882900Y-98196217D01*
X141882900Y-97612383D01*
X141887826Y-97562367D01*
X141901693Y-97516654D01*
X141924206Y-97474535D01*
X141954509Y-97437609D01*
X141991435Y-97407306D01*
X142033554Y-97384793D01*
X142079267Y-97370926D01*
X142129283Y-97366000D01*
X143138117Y-97366000D01*
X143188133Y-97370926D01*
G37*
G36*
X130869133Y-96380326D02*
G01*
X130914846Y-96394193D01*
X130956965Y-96416706D01*
X130993891Y-96447009D01*
X131024194Y-96483935D01*
X131046707Y-96526054D01*
X131060574Y-96571767D01*
X131065500Y-96621783D01*
X131065500Y-97205617D01*
X131060574Y-97255633D01*
X131046707Y-97301346D01*
X131024194Y-97343465D01*
X130993891Y-97380391D01*
X130956965Y-97410694D01*
X130914846Y-97433207D01*
X130869133Y-97447074D01*
X130819117Y-97452000D01*
X129810283Y-97452000D01*
X129760267Y-97447074D01*
X129714554Y-97433207D01*
X129672435Y-97410694D01*
X129635509Y-97380391D01*
X129605206Y-97343465D01*
X129582693Y-97301346D01*
X129568826Y-97255633D01*
X129563900Y-97205617D01*
X129563900Y-96621783D01*
X129568826Y-96571767D01*
X129582693Y-96526054D01*
X129605206Y-96483935D01*
X129635509Y-96447009D01*
X129672435Y-96416706D01*
X129714554Y-96394193D01*
X129760267Y-96380326D01*
X129810283Y-96375400D01*
X130819117Y-96375400D01*
X130869133Y-96380326D01*
G37*
G36*
X133548833Y-96342226D02*
G01*
X133594546Y-96356093D01*
X133636665Y-96378606D01*
X133673591Y-96408909D01*
X133703894Y-96445835D01*
X133726407Y-96487954D01*
X133740274Y-96533667D01*
X133745200Y-96583683D01*
X133745200Y-97167517D01*
X133740274Y-97217533D01*
X133726407Y-97263246D01*
X133703894Y-97305365D01*
X133673591Y-97342291D01*
X133636665Y-97372594D01*
X133594546Y-97395107D01*
X133548833Y-97408974D01*
X133498817Y-97413900D01*
X132489983Y-97413900D01*
X132439967Y-97408974D01*
X132394254Y-97395107D01*
X132352135Y-97372594D01*
X132315209Y-97342291D01*
X132284906Y-97305365D01*
X132262393Y-97263246D01*
X132248526Y-97217533D01*
X132243600Y-97167517D01*
X132243600Y-96583683D01*
X132248526Y-96533667D01*
X132262393Y-96487954D01*
X132284906Y-96445835D01*
X132315209Y-96408909D01*
X132352135Y-96378606D01*
X132394254Y-96356093D01*
X132439967Y-96342226D01*
X132489983Y-96337300D01*
X133498817Y-96337300D01*
X133548833Y-96342226D01*
G37*
G36*
X141257500Y-95896100D02*
G01*
X140605900Y-95896100D01*
X140605900Y-94294500D01*
X141257500Y-94294500D01*
X141257500Y-95896100D01*
G37*
G36*
X143657500Y-95896100D02*
G01*
X143005900Y-95896100D01*
X143005900Y-94294500D01*
X143657500Y-94294500D01*
X143657500Y-95896100D01*
G37*
G36*
X142057500Y-95896100D02*
G01*
X141405900Y-95896100D01*
X141405900Y-94294500D01*
X142057500Y-94294500D01*
X142057500Y-95896100D01*
G37*
G36*
X139657500Y-95896100D02*
G01*
X139005900Y-95896100D01*
X139005900Y-94294500D01*
X139657500Y-94294500D01*
X139657500Y-95896100D01*
G37*
G36*
X138857500Y-95896100D02*
G01*
X138205900Y-95896100D01*
X138205900Y-94294500D01*
X138857500Y-94294500D01*
X138857500Y-95896100D01*
G37*
G36*
X137257500Y-95896100D02*
G01*
X136605900Y-95896100D01*
X136605900Y-94294500D01*
X137257500Y-94294500D01*
X137257500Y-95896100D01*
G37*
G36*
X136457500Y-95896100D02*
G01*
X135805900Y-95896100D01*
X135805900Y-94294500D01*
X136457500Y-94294500D01*
X136457500Y-95896100D01*
G37*
G36*
X135657500Y-95896100D02*
G01*
X135005900Y-95896100D01*
X135005900Y-94294500D01*
X135657500Y-94294500D01*
X135657500Y-95896100D01*
G37*
G36*
X142857500Y-95896100D02*
G01*
X142205900Y-95896100D01*
X142205900Y-94294500D01*
X142857500Y-94294500D01*
X142857500Y-95896100D01*
G37*
G36*
X140457500Y-95896100D02*
G01*
X139805900Y-95896100D01*
X139805900Y-94294500D01*
X140457500Y-94294500D01*
X140457500Y-95896100D01*
G37*
G36*
X138057500Y-95896100D02*
G01*
X137405900Y-95896100D01*
X137405900Y-94294500D01*
X138057500Y-94294500D01*
X138057500Y-95896100D01*
G37*
G36*
X128310264Y-92798606D02*
G01*
X128354804Y-92812117D01*
X128395846Y-92834055D01*
X128431821Y-92863579D01*
X128461345Y-92899554D01*
X128483283Y-92940596D01*
X128496794Y-92985136D01*
X128501600Y-93033933D01*
X128501600Y-93605267D01*
X128496794Y-93654064D01*
X128483283Y-93698604D01*
X128461345Y-93739646D01*
X128431821Y-93775621D01*
X128395846Y-93805145D01*
X128354804Y-93827083D01*
X128310264Y-93840594D01*
X128261467Y-93845400D01*
X127590133Y-93845400D01*
X127541336Y-93840594D01*
X127496796Y-93827083D01*
X127455754Y-93805145D01*
X127419779Y-93775621D01*
X127390255Y-93739646D01*
X127368317Y-93698604D01*
X127354806Y-93654064D01*
X127350000Y-93605267D01*
X127350000Y-93033933D01*
X127354806Y-92985136D01*
X127368317Y-92940596D01*
X127390255Y-92899554D01*
X127419779Y-92863579D01*
X127455754Y-92834055D01*
X127496796Y-92812117D01*
X127541336Y-92798606D01*
X127590133Y-92793800D01*
X128261467Y-92793800D01*
X128310264Y-92798606D01*
G37*
G36*
X126560264Y-92798606D02*
G01*
X126604804Y-92812117D01*
X126645846Y-92834055D01*
X126681821Y-92863579D01*
X126711345Y-92899554D01*
X126733283Y-92940596D01*
X126746794Y-92985136D01*
X126751600Y-93033933D01*
X126751600Y-93605267D01*
X126746794Y-93654064D01*
X126733283Y-93698604D01*
X126711345Y-93739646D01*
X126681821Y-93775621D01*
X126645846Y-93805145D01*
X126604804Y-93827083D01*
X126560264Y-93840594D01*
X126511467Y-93845400D01*
X125840133Y-93845400D01*
X125791336Y-93840594D01*
X125746796Y-93827083D01*
X125705754Y-93805145D01*
X125669779Y-93775621D01*
X125640255Y-93739646D01*
X125618317Y-93698604D01*
X125604806Y-93654064D01*
X125600000Y-93605267D01*
X125600000Y-93033933D01*
X125604806Y-92985136D01*
X125618317Y-92940596D01*
X125640255Y-92899554D01*
X125669779Y-92863579D01*
X125705754Y-92834055D01*
X125746796Y-92812117D01*
X125791336Y-92798606D01*
X125840133Y-92793800D01*
X126511467Y-92793800D01*
X126560264Y-92798606D01*
G37*
G36*
X145832500Y-93721100D02*
G01*
X144230900Y-93721100D01*
X144230900Y-93069500D01*
X145832500Y-93069500D01*
X145832500Y-93721100D01*
G37*
G36*
X134432500Y-93721100D02*
G01*
X132830900Y-93721100D01*
X132830900Y-93069500D01*
X134432500Y-93069500D01*
X134432500Y-93721100D01*
G37*
G36*
X152618000Y-93633200D02*
G01*
X151416400Y-93633200D01*
X151416400Y-91531600D01*
X152618000Y-91531600D01*
X152618000Y-93633200D01*
G37*
G36*
X149218000Y-93633200D02*
G01*
X148016400Y-93633200D01*
X148016400Y-91531600D01*
X149218000Y-91531600D01*
X149218000Y-93633200D01*
G37*
G36*
X150918000Y-93633200D02*
G01*
X149716400Y-93633200D01*
X149716400Y-91531600D01*
X150918000Y-91531600D01*
X150918000Y-93633200D01*
G37*
G36*
X134432500Y-92921100D02*
G01*
X132830900Y-92921100D01*
X132830900Y-92269500D01*
X134432500Y-92269500D01*
X134432500Y-92921100D01*
G37*
G36*
X145832500Y-92921100D02*
G01*
X144230900Y-92921100D01*
X144230900Y-92269500D01*
X145832500Y-92269500D01*
X145832500Y-92921100D01*
G37*
G36*
X134432500Y-92121100D02*
G01*
X132830900Y-92121100D01*
X132830900Y-91469500D01*
X134432500Y-91469500D01*
X134432500Y-92121100D01*
G37*
G36*
X145832500Y-92121100D02*
G01*
X144230900Y-92121100D01*
X144230900Y-91469500D01*
X145832500Y-91469500D01*
X145832500Y-92121100D01*
G37*
G36*
X128117058Y-90795092D02*
G01*
X127196688Y-91715462D01*
X126134896Y-90653670D01*
X127055266Y-89733300D01*
X128117058Y-90795092D01*
G37*
G36*
X145832500Y-91321100D02*
G01*
X144230900Y-91321100D01*
X144230900Y-90669500D01*
X145832500Y-90669500D01*
X145832500Y-91321100D01*
G37*
G36*
X134432500Y-91321100D02*
G01*
X132830900Y-91321100D01*
X132830900Y-90669500D01*
X134432500Y-90669500D01*
X134432500Y-91321100D01*
G37*
G36*
X134432500Y-90521100D02*
G01*
X132830900Y-90521100D01*
X132830900Y-89869500D01*
X134432500Y-89869500D01*
X134432500Y-90521100D01*
G37*
G36*
X145832500Y-90521100D02*
G01*
X144230900Y-90521100D01*
X144230900Y-89869500D01*
X145832500Y-89869500D01*
X145832500Y-90521100D01*
G37*
G36*
X129319139Y-89593011D02*
G01*
X128398769Y-90513381D01*
X127336977Y-89451589D01*
X128257347Y-88531219D01*
X129319139Y-89593011D01*
G37*
G36*
X126561423Y-89239457D02*
G01*
X125641053Y-90159827D01*
X124579261Y-89098035D01*
X125499631Y-88177665D01*
X126561423Y-89239457D01*
G37*
G36*
X134432500Y-89721100D02*
G01*
X132830900Y-89721100D01*
X132830900Y-89069500D01*
X134432500Y-89069500D01*
X134432500Y-89721100D01*
G37*
G36*
X145832500Y-89721100D02*
G01*
X144230900Y-89721100D01*
X144230900Y-89069500D01*
X145832500Y-89069500D01*
X145832500Y-89721100D01*
G37*
G36*
X127763504Y-88037376D02*
G01*
X126843134Y-88957746D01*
X125781342Y-87895954D01*
X126701712Y-86975584D01*
X127763504Y-88037376D01*
G37*
G36*
X134432500Y-88921100D02*
G01*
X132830900Y-88921100D01*
X132830900Y-88269500D01*
X134432500Y-88269500D01*
X134432500Y-88921100D01*
G37*
G36*
X145832500Y-88921100D02*
G01*
X144230900Y-88921100D01*
X144230900Y-88269500D01*
X145832500Y-88269500D01*
X145832500Y-88921100D01*
G37*
G36*
X149218000Y-88833200D02*
G01*
X148016400Y-88833200D01*
X148016400Y-86731600D01*
X149218000Y-86731600D01*
X149218000Y-88833200D01*
G37*
G36*
X152618000Y-88833200D02*
G01*
X151416400Y-88833200D01*
X151416400Y-86731600D01*
X152618000Y-86731600D01*
X152618000Y-88833200D01*
G37*
G36*
X150918000Y-88833200D02*
G01*
X149716400Y-88833200D01*
X149716400Y-86731600D01*
X150918000Y-86731600D01*
X150918000Y-88833200D01*
G37*
G36*
X69971800Y-88153800D02*
G01*
X68970200Y-88153800D01*
X68970200Y-86852200D01*
X69971800Y-86852200D01*
X69971800Y-88153800D01*
G37*
G36*
X113909800Y-88153800D02*
G01*
X112908200Y-88153800D01*
X112908200Y-86852200D01*
X113909800Y-86852200D01*
X113909800Y-88153800D01*
G37*
G36*
X110609800Y-88153800D02*
G01*
X109608200Y-88153800D01*
X109608200Y-86852200D01*
X110609800Y-86852200D01*
X110609800Y-88153800D01*
G37*
G36*
X90289800Y-88153800D02*
G01*
X89288200Y-88153800D01*
X89288200Y-86852200D01*
X90289800Y-86852200D01*
X90289800Y-88153800D01*
G37*
G36*
X93589800Y-88153800D02*
G01*
X92588200Y-88153800D01*
X92588200Y-86852200D01*
X93589800Y-86852200D01*
X93589800Y-88153800D01*
G37*
G36*
X73271800Y-88153800D02*
G01*
X72270200Y-88153800D01*
X72270200Y-86852200D01*
X73271800Y-86852200D01*
X73271800Y-88153800D01*
G37*
G36*
X145832500Y-88121100D02*
G01*
X144230900Y-88121100D01*
X144230900Y-87469500D01*
X145832500Y-87469500D01*
X145832500Y-88121100D01*
G37*
G36*
X134432500Y-88121100D02*
G01*
X132830900Y-88121100D01*
X132830900Y-87469500D01*
X134432500Y-87469500D01*
X134432500Y-88121100D01*
G37*
G36*
X145832500Y-87321100D02*
G01*
X144230900Y-87321100D01*
X144230900Y-86669500D01*
X145832500Y-86669500D01*
X145832500Y-87321100D01*
G37*
G36*
X134432500Y-87321100D02*
G01*
X132830900Y-87321100D01*
X132830900Y-86669500D01*
X134432500Y-86669500D01*
X134432500Y-87321100D01*
G37*
G36*
X145832500Y-86521100D02*
G01*
X144230900Y-86521100D01*
X144230900Y-85869500D01*
X145832500Y-85869500D01*
X145832500Y-86521100D01*
G37*
G36*
X134432500Y-86521100D02*
G01*
X132830900Y-86521100D01*
X132830900Y-85869500D01*
X134432500Y-85869500D01*
X134432500Y-86521100D01*
G37*
G36*
X128310264Y-84924606D02*
G01*
X128354804Y-84938117D01*
X128395846Y-84960055D01*
X128431821Y-84989579D01*
X128461345Y-85025554D01*
X128483283Y-85066596D01*
X128496794Y-85111136D01*
X128501600Y-85159933D01*
X128501600Y-85731267D01*
X128496794Y-85780064D01*
X128483283Y-85824604D01*
X128461345Y-85865646D01*
X128431821Y-85901621D01*
X128395846Y-85931145D01*
X128354804Y-85953083D01*
X128310264Y-85966594D01*
X128261467Y-85971400D01*
X127590133Y-85971400D01*
X127541336Y-85966594D01*
X127496796Y-85953083D01*
X127455754Y-85931145D01*
X127419779Y-85901621D01*
X127390255Y-85865646D01*
X127368317Y-85824604D01*
X127354806Y-85780064D01*
X127350000Y-85731267D01*
X127350000Y-85159933D01*
X127354806Y-85111136D01*
X127368317Y-85066596D01*
X127390255Y-85025554D01*
X127419779Y-84989579D01*
X127455754Y-84960055D01*
X127496796Y-84938117D01*
X127541336Y-84924606D01*
X127590133Y-84919800D01*
X128261467Y-84919800D01*
X128310264Y-84924606D01*
G37*
G36*
X126560264Y-84924606D02*
G01*
X126604804Y-84938117D01*
X126645846Y-84960055D01*
X126681821Y-84989579D01*
X126711345Y-85025554D01*
X126733283Y-85066596D01*
X126746794Y-85111136D01*
X126751600Y-85159933D01*
X126751600Y-85731267D01*
X126746794Y-85780064D01*
X126733283Y-85824604D01*
X126711345Y-85865646D01*
X126681821Y-85901621D01*
X126645846Y-85931145D01*
X126604804Y-85953083D01*
X126560264Y-85966594D01*
X126511467Y-85971400D01*
X125840133Y-85971400D01*
X125791336Y-85966594D01*
X125746796Y-85953083D01*
X125705754Y-85931145D01*
X125669779Y-85901621D01*
X125640255Y-85865646D01*
X125618317Y-85824604D01*
X125604806Y-85780064D01*
X125600000Y-85731267D01*
X125600000Y-85159933D01*
X125604806Y-85111136D01*
X125618317Y-85066596D01*
X125640255Y-85025554D01*
X125669779Y-84989579D01*
X125705754Y-84960055D01*
X125746796Y-84938117D01*
X125791336Y-84924606D01*
X125840133Y-84919800D01*
X126511467Y-84919800D01*
X126560264Y-84924606D01*
G37*
G36*
X145832500Y-85721100D02*
G01*
X144230900Y-85721100D01*
X144230900Y-85069500D01*
X145832500Y-85069500D01*
X145832500Y-85721100D01*
G37*
G36*
X134432500Y-85721100D02*
G01*
X132830900Y-85721100D01*
X132830900Y-85069500D01*
X134432500Y-85069500D01*
X134432500Y-85721100D01*
G37*
G36*
X152903633Y-84353426D02*
G01*
X152949346Y-84367293D01*
X152991465Y-84389806D01*
X153028391Y-84420109D01*
X153058694Y-84457035D01*
X153081207Y-84499154D01*
X153095074Y-84544867D01*
X153100000Y-84594883D01*
X153100000Y-85178717D01*
X153095074Y-85228733D01*
X153081207Y-85274446D01*
X153058694Y-85316565D01*
X153028391Y-85353491D01*
X152991465Y-85383794D01*
X152949346Y-85406307D01*
X152903633Y-85420174D01*
X152853617Y-85425100D01*
X151844783Y-85425100D01*
X151794767Y-85420174D01*
X151749054Y-85406307D01*
X151706935Y-85383794D01*
X151670009Y-85353491D01*
X151639706Y-85316565D01*
X151617193Y-85274446D01*
X151603326Y-85228733D01*
X151598400Y-85178717D01*
X151598400Y-84594883D01*
X151603326Y-84544867D01*
X151617193Y-84499154D01*
X151639706Y-84457035D01*
X151670009Y-84420109D01*
X151706935Y-84389806D01*
X151749054Y-84367293D01*
X151794767Y-84353426D01*
X151844783Y-84348500D01*
X152853617Y-84348500D01*
X152903633Y-84353426D01*
G37*
G36*
X148687233Y-84353426D02*
G01*
X148732946Y-84367293D01*
X148775065Y-84389806D01*
X148811991Y-84420109D01*
X148842294Y-84457035D01*
X148864807Y-84499154D01*
X148878674Y-84544867D01*
X148883600Y-84594883D01*
X148883600Y-85178717D01*
X148878674Y-85228733D01*
X148864807Y-85274446D01*
X148842294Y-85316565D01*
X148811991Y-85353491D01*
X148775065Y-85383794D01*
X148732946Y-85406307D01*
X148687233Y-85420174D01*
X148637217Y-85425100D01*
X147628383Y-85425100D01*
X147578367Y-85420174D01*
X147532654Y-85406307D01*
X147490535Y-85383794D01*
X147453609Y-85353491D01*
X147423306Y-85316565D01*
X147400793Y-85274446D01*
X147386926Y-85228733D01*
X147382000Y-85178717D01*
X147382000Y-84594883D01*
X147386926Y-84544867D01*
X147400793Y-84499154D01*
X147423306Y-84457035D01*
X147453609Y-84420109D01*
X147490535Y-84389806D01*
X147532654Y-84367293D01*
X147578367Y-84353426D01*
X147628383Y-84348500D01*
X148637217Y-84348500D01*
X148687233Y-84353426D01*
G37*
G36*
X150770033Y-84353426D02*
G01*
X150815746Y-84367293D01*
X150857865Y-84389806D01*
X150894791Y-84420109D01*
X150925094Y-84457035D01*
X150947607Y-84499154D01*
X150961474Y-84544867D01*
X150966400Y-84594883D01*
X150966400Y-85178717D01*
X150961474Y-85228733D01*
X150947607Y-85274446D01*
X150925094Y-85316565D01*
X150894791Y-85353491D01*
X150857865Y-85383794D01*
X150815746Y-85406307D01*
X150770033Y-85420174D01*
X150720017Y-85425100D01*
X149711183Y-85425100D01*
X149661167Y-85420174D01*
X149615454Y-85406307D01*
X149573335Y-85383794D01*
X149536409Y-85353491D01*
X149506106Y-85316565D01*
X149483593Y-85274446D01*
X149469726Y-85228733D01*
X149464800Y-85178717D01*
X149464800Y-84594883D01*
X149469726Y-84544867D01*
X149483593Y-84499154D01*
X149506106Y-84457035D01*
X149536409Y-84420109D01*
X149573335Y-84389806D01*
X149615454Y-84367293D01*
X149661167Y-84353426D01*
X149711183Y-84348500D01*
X150720017Y-84348500D01*
X150770033Y-84353426D01*
G37*
G36*
X92120197Y-80526012D02*
G01*
X92493419Y-80680606D01*
X92829310Y-80905041D01*
X93114961Y-81190692D01*
X93339396Y-81526583D01*
X93493990Y-81899805D01*
X93572801Y-82296015D01*
X93572801Y-82699987D01*
X93493990Y-83096197D01*
X93339396Y-83469419D01*
X93114961Y-83805310D01*
X92829310Y-84090961D01*
X92493419Y-84315396D01*
X92120197Y-84469990D01*
X91723987Y-84548801D01*
X91320015Y-84548801D01*
X90923805Y-84469990D01*
X90550583Y-84315396D01*
X90214692Y-84090961D01*
X89929041Y-83805310D01*
X89704606Y-83469419D01*
X89550012Y-83096197D01*
X89471201Y-82699987D01*
X89471201Y-82296015D01*
X89550012Y-81899805D01*
X89704606Y-81526583D01*
X89929041Y-81190692D01*
X90214692Y-80905041D01*
X90550583Y-80680606D01*
X90923805Y-80526012D01*
X91320015Y-80447201D01*
X91723987Y-80447201D01*
X92120197Y-80526012D01*
G37*
G36*
X112320197Y-80526012D02*
G01*
X112693419Y-80680606D01*
X113029310Y-80905041D01*
X113314961Y-81190692D01*
X113539396Y-81526583D01*
X113693990Y-81899805D01*
X113772801Y-82296015D01*
X113772801Y-82699987D01*
X113693990Y-83096197D01*
X113539396Y-83469419D01*
X113314961Y-83805310D01*
X113029310Y-84090961D01*
X112693419Y-84315396D01*
X112320197Y-84469990D01*
X111923987Y-84548801D01*
X111520015Y-84548801D01*
X111123805Y-84469990D01*
X110750583Y-84315396D01*
X110414692Y-84090961D01*
X110129041Y-83805310D01*
X109904606Y-83469419D01*
X109750012Y-83096197D01*
X109671201Y-82699987D01*
X109671201Y-82296015D01*
X109750012Y-81899805D01*
X109904606Y-81526583D01*
X110129041Y-81190692D01*
X110414692Y-80905041D01*
X110750583Y-80680606D01*
X111123805Y-80526012D01*
X111520015Y-80447201D01*
X111923987Y-80447201D01*
X112320197Y-80526012D01*
G37*
G36*
X71920197Y-80526012D02*
G01*
X72293419Y-80680606D01*
X72629310Y-80905041D01*
X72914961Y-81190692D01*
X73139396Y-81526583D01*
X73293990Y-81899805D01*
X73372801Y-82296015D01*
X73372801Y-82699987D01*
X73293990Y-83096197D01*
X73139396Y-83469419D01*
X72914961Y-83805310D01*
X72629310Y-84090961D01*
X72293419Y-84315396D01*
X71920197Y-84469990D01*
X71523987Y-84548801D01*
X71120015Y-84548801D01*
X70723805Y-84469990D01*
X70350583Y-84315396D01*
X70014692Y-84090961D01*
X69729041Y-83805310D01*
X69504606Y-83469419D01*
X69350012Y-83096197D01*
X69271201Y-82699987D01*
X69271201Y-82296015D01*
X69350012Y-81899805D01*
X69504606Y-81526583D01*
X69729041Y-81190692D01*
X70014692Y-80905041D01*
X70350583Y-80680606D01*
X70723805Y-80526012D01*
X71120015Y-80447201D01*
X71523987Y-80447201D01*
X71920197Y-80526012D01*
G37*
G36*
X138057500Y-84496100D02*
G01*
X137405900Y-84496100D01*
X137405900Y-82894500D01*
X138057500Y-82894500D01*
X138057500Y-84496100D01*
G37*
G36*
X138857500Y-84496100D02*
G01*
X138205900Y-84496100D01*
X138205900Y-82894500D01*
X138857500Y-82894500D01*
X138857500Y-84496100D01*
G37*
G36*
X137257500Y-84496100D02*
G01*
X136605900Y-84496100D01*
X136605900Y-82894500D01*
X137257500Y-82894500D01*
X137257500Y-84496100D01*
G37*
G36*
X136457500Y-84496100D02*
G01*
X135805900Y-84496100D01*
X135805900Y-82894500D01*
X136457500Y-82894500D01*
X136457500Y-84496100D01*
G37*
G36*
X141257500Y-84496100D02*
G01*
X140605900Y-84496100D01*
X140605900Y-82894500D01*
X141257500Y-82894500D01*
X141257500Y-84496100D01*
G37*
G36*
X135657500Y-84496100D02*
G01*
X135005900Y-84496100D01*
X135005900Y-82894500D01*
X135657500Y-82894500D01*
X135657500Y-84496100D01*
G37*
G36*
X142057500Y-84496100D02*
G01*
X141405900Y-84496100D01*
X141405900Y-82894500D01*
X142057500Y-82894500D01*
X142057500Y-84496100D01*
G37*
G36*
X142857500Y-84496100D02*
G01*
X142205900Y-84496100D01*
X142205900Y-82894500D01*
X142857500Y-82894500D01*
X142857500Y-84496100D01*
G37*
G36*
X143657500Y-84496100D02*
G01*
X143005900Y-84496100D01*
X143005900Y-82894500D01*
X143657500Y-82894500D01*
X143657500Y-84496100D01*
G37*
G36*
X140457500Y-84496100D02*
G01*
X139805900Y-84496100D01*
X139805900Y-82894500D01*
X140457500Y-82894500D01*
X140457500Y-84496100D01*
G37*
G36*
X139657500Y-84496100D02*
G01*
X139005900Y-84496100D01*
X139005900Y-82894500D01*
X139657500Y-82894500D01*
X139657500Y-84496100D01*
G37*
G36*
X152903633Y-82478426D02*
G01*
X152949346Y-82492293D01*
X152991465Y-82514806D01*
X153028391Y-82545109D01*
X153058694Y-82582035D01*
X153081207Y-82624154D01*
X153095074Y-82669867D01*
X153100000Y-82719883D01*
X153100000Y-83303717D01*
X153095074Y-83353733D01*
X153081207Y-83399446D01*
X153058694Y-83441565D01*
X153028391Y-83478491D01*
X152991465Y-83508794D01*
X152949346Y-83531307D01*
X152903633Y-83545174D01*
X152853617Y-83550100D01*
X151844783Y-83550100D01*
X151794767Y-83545174D01*
X151749054Y-83531307D01*
X151706935Y-83508794D01*
X151670009Y-83478491D01*
X151639706Y-83441565D01*
X151617193Y-83399446D01*
X151603326Y-83353733D01*
X151598400Y-83303717D01*
X151598400Y-82719883D01*
X151603326Y-82669867D01*
X151617193Y-82624154D01*
X151639706Y-82582035D01*
X151670009Y-82545109D01*
X151706935Y-82514806D01*
X151749054Y-82492293D01*
X151794767Y-82478426D01*
X151844783Y-82473500D01*
X152853617Y-82473500D01*
X152903633Y-82478426D01*
G37*
G36*
X150770033Y-82478426D02*
G01*
X150815746Y-82492293D01*
X150857865Y-82514806D01*
X150894791Y-82545109D01*
X150925094Y-82582035D01*
X150947607Y-82624154D01*
X150961474Y-82669867D01*
X150966400Y-82719883D01*
X150966400Y-83303717D01*
X150961474Y-83353733D01*
X150947607Y-83399446D01*
X150925094Y-83441565D01*
X150894791Y-83478491D01*
X150857865Y-83508794D01*
X150815746Y-83531307D01*
X150770033Y-83545174D01*
X150720017Y-83550100D01*
X149711183Y-83550100D01*
X149661167Y-83545174D01*
X149615454Y-83531307D01*
X149573335Y-83508794D01*
X149536409Y-83478491D01*
X149506106Y-83441565D01*
X149483593Y-83399446D01*
X149469726Y-83353733D01*
X149464800Y-83303717D01*
X149464800Y-82719883D01*
X149469726Y-82669867D01*
X149483593Y-82624154D01*
X149506106Y-82582035D01*
X149536409Y-82545109D01*
X149573335Y-82514806D01*
X149615454Y-82492293D01*
X149661167Y-82478426D01*
X149711183Y-82473500D01*
X150720017Y-82473500D01*
X150770033Y-82478426D01*
G37*
G36*
X148687233Y-82478426D02*
G01*
X148732946Y-82492293D01*
X148775065Y-82514806D01*
X148811991Y-82545109D01*
X148842294Y-82582035D01*
X148864807Y-82624154D01*
X148878674Y-82669867D01*
X148883600Y-82719883D01*
X148883600Y-83303717D01*
X148878674Y-83353733D01*
X148864807Y-83399446D01*
X148842294Y-83441565D01*
X148811991Y-83478491D01*
X148775065Y-83508794D01*
X148732946Y-83531307D01*
X148687233Y-83545174D01*
X148637217Y-83550100D01*
X147628383Y-83550100D01*
X147578367Y-83545174D01*
X147532654Y-83531307D01*
X147490535Y-83508794D01*
X147453609Y-83478491D01*
X147423306Y-83441565D01*
X147400793Y-83399446D01*
X147386926Y-83353733D01*
X147382000Y-83303717D01*
X147382000Y-82719883D01*
X147386926Y-82669867D01*
X147400793Y-82624154D01*
X147423306Y-82582035D01*
X147453609Y-82545109D01*
X147490535Y-82514806D01*
X147532654Y-82492293D01*
X147578367Y-82478426D01*
X147628383Y-82473500D01*
X148637217Y-82473500D01*
X148687233Y-82478426D01*
G37*
G36*
X96864755Y-81631818D02*
G01*
X97028690Y-81699722D01*
X97176228Y-81798304D01*
X97301698Y-81923774D01*
X97400280Y-82071312D01*
X97468184Y-82235247D01*
X97502801Y-82409280D01*
X97502801Y-82586722D01*
X97468184Y-82760755D01*
X97400280Y-82924690D01*
X97301698Y-83072228D01*
X97176228Y-83197698D01*
X97028690Y-83296280D01*
X96864755Y-83364184D01*
X96690722Y-83398801D01*
X96513280Y-83398801D01*
X96339247Y-83364184D01*
X96175312Y-83296280D01*
X96027774Y-83197698D01*
X95902304Y-83072228D01*
X95803722Y-82924690D01*
X95735818Y-82760755D01*
X95701201Y-82586722D01*
X95701201Y-82409280D01*
X95735818Y-82235247D01*
X95803722Y-82071312D01*
X95902304Y-81923774D01*
X96027774Y-81798304D01*
X96175312Y-81699722D01*
X96339247Y-81631818D01*
X96513280Y-81597201D01*
X96690722Y-81597201D01*
X96864755Y-81631818D01*
G37*
G36*
X117064755Y-81631818D02*
G01*
X117228690Y-81699722D01*
X117376228Y-81798304D01*
X117501698Y-81923774D01*
X117600280Y-82071312D01*
X117668184Y-82235247D01*
X117702801Y-82409280D01*
X117702801Y-82586722D01*
X117668184Y-82760755D01*
X117600280Y-82924690D01*
X117501698Y-83072228D01*
X117376228Y-83197698D01*
X117228690Y-83296280D01*
X117064755Y-83364184D01*
X116890722Y-83398801D01*
X116713280Y-83398801D01*
X116539247Y-83364184D01*
X116375312Y-83296280D01*
X116227774Y-83197698D01*
X116102304Y-83072228D01*
X116003722Y-82924690D01*
X115935818Y-82760755D01*
X115901201Y-82586722D01*
X115901201Y-82409280D01*
X115935818Y-82235247D01*
X116003722Y-82071312D01*
X116102304Y-81923774D01*
X116227774Y-81798304D01*
X116375312Y-81699722D01*
X116539247Y-81631818D01*
X116713280Y-81597201D01*
X116890722Y-81597201D01*
X117064755Y-81631818D01*
G37*
G36*
X86704755Y-81631818D02*
G01*
X86868690Y-81699722D01*
X87016228Y-81798304D01*
X87141698Y-81923774D01*
X87240280Y-82071312D01*
X87308184Y-82235247D01*
X87342801Y-82409280D01*
X87342801Y-82586722D01*
X87308184Y-82760755D01*
X87240280Y-82924690D01*
X87141698Y-83072228D01*
X87016228Y-83197698D01*
X86868690Y-83296280D01*
X86704755Y-83364184D01*
X86530722Y-83398801D01*
X86353280Y-83398801D01*
X86179247Y-83364184D01*
X86015312Y-83296280D01*
X85867774Y-83197698D01*
X85742304Y-83072228D01*
X85643722Y-82924690D01*
X85575818Y-82760755D01*
X85541201Y-82586722D01*
X85541201Y-82409280D01*
X85575818Y-82235247D01*
X85643722Y-82071312D01*
X85742304Y-81923774D01*
X85867774Y-81798304D01*
X86015312Y-81699722D01*
X86179247Y-81631818D01*
X86353280Y-81597201D01*
X86530722Y-81597201D01*
X86704755Y-81631818D01*
G37*
G36*
X106904755Y-81631818D02*
G01*
X107068690Y-81699722D01*
X107216228Y-81798304D01*
X107341698Y-81923774D01*
X107440280Y-82071312D01*
X107508184Y-82235247D01*
X107542801Y-82409280D01*
X107542801Y-82586722D01*
X107508184Y-82760755D01*
X107440280Y-82924690D01*
X107341698Y-83072228D01*
X107216228Y-83197698D01*
X107068690Y-83296280D01*
X106904755Y-83364184D01*
X106730722Y-83398801D01*
X106553280Y-83398801D01*
X106379247Y-83364184D01*
X106215312Y-83296280D01*
X106067774Y-83197698D01*
X105942304Y-83072228D01*
X105843722Y-82924690D01*
X105775818Y-82760755D01*
X105741201Y-82586722D01*
X105741201Y-82409280D01*
X105775818Y-82235247D01*
X105843722Y-82071312D01*
X105942304Y-81923774D01*
X106067774Y-81798304D01*
X106215312Y-81699722D01*
X106379247Y-81631818D01*
X106553280Y-81597201D01*
X106730722Y-81597201D01*
X106904755Y-81631818D01*
G37*
G36*
X76664755Y-81631818D02*
G01*
X76828690Y-81699722D01*
X76976228Y-81798304D01*
X77101698Y-81923774D01*
X77200280Y-82071312D01*
X77268184Y-82235247D01*
X77302801Y-82409280D01*
X77302801Y-82586722D01*
X77268184Y-82760755D01*
X77200280Y-82924690D01*
X77101698Y-83072228D01*
X76976228Y-83197698D01*
X76828690Y-83296280D01*
X76664755Y-83364184D01*
X76490722Y-83398801D01*
X76313280Y-83398801D01*
X76139247Y-83364184D01*
X75975312Y-83296280D01*
X75827774Y-83197698D01*
X75702304Y-83072228D01*
X75603722Y-82924690D01*
X75535818Y-82760755D01*
X75501201Y-82586722D01*
X75501201Y-82409280D01*
X75535818Y-82235247D01*
X75603722Y-82071312D01*
X75702304Y-81923774D01*
X75827774Y-81798304D01*
X75975312Y-81699722D01*
X76139247Y-81631818D01*
X76313280Y-81597201D01*
X76490722Y-81597201D01*
X76664755Y-81631818D01*
G37*
G36*
X66504755Y-81631818D02*
G01*
X66668690Y-81699722D01*
X66816228Y-81798304D01*
X66941698Y-81923774D01*
X67040280Y-82071312D01*
X67108184Y-82235247D01*
X67142801Y-82409280D01*
X67142801Y-82586722D01*
X67108184Y-82760755D01*
X67040280Y-82924690D01*
X66941698Y-83072228D01*
X66816228Y-83197698D01*
X66668690Y-83296280D01*
X66504755Y-83364184D01*
X66330722Y-83398801D01*
X66153280Y-83398801D01*
X65979247Y-83364184D01*
X65815312Y-83296280D01*
X65667774Y-83197698D01*
X65542304Y-83072228D01*
X65443722Y-82924690D01*
X65375818Y-82760755D01*
X65341201Y-82586722D01*
X65341201Y-82409280D01*
X65375818Y-82235247D01*
X65443722Y-82071312D01*
X65542304Y-81923774D01*
X65667774Y-81798304D01*
X65815312Y-81699722D01*
X65979247Y-81631818D01*
X66153280Y-81597201D01*
X66330722Y-81597201D01*
X66504755Y-81631818D01*
G37*
G36*
X67693676Y-78820793D02*
G01*
X67847679Y-78851426D01*
X68057110Y-78938175D01*
X68245594Y-79064116D01*
X68405886Y-79224408D01*
X68531827Y-79412892D01*
X68618576Y-79622323D01*
X68662801Y-79844658D01*
X68662801Y-80071344D01*
X68618576Y-80293679D01*
X68531827Y-80503110D01*
X68405886Y-80691594D01*
X68245594Y-80851886D01*
X68057110Y-80977827D01*
X67847679Y-81064576D01*
X67699456Y-81094059D01*
X67625345Y-81108801D01*
X67398657Y-81108801D01*
X67324546Y-81094059D01*
X67176323Y-81064576D01*
X66966892Y-80977827D01*
X66778408Y-80851886D01*
X66618116Y-80691594D01*
X66492175Y-80503110D01*
X66405426Y-80293679D01*
X66361201Y-80071344D01*
X66361201Y-79844658D01*
X66405426Y-79622323D01*
X66492175Y-79412892D01*
X66618116Y-79224408D01*
X66778408Y-79064116D01*
X66966892Y-78938175D01*
X67176323Y-78851426D01*
X67330326Y-78820793D01*
X67398657Y-78807201D01*
X67625345Y-78807201D01*
X67693676Y-78820793D01*
G37*
G36*
X87893676Y-78820793D02*
G01*
X88047679Y-78851426D01*
X88257110Y-78938175D01*
X88445594Y-79064116D01*
X88605886Y-79224408D01*
X88731827Y-79412892D01*
X88818576Y-79622323D01*
X88862801Y-79844658D01*
X88862801Y-80071344D01*
X88818576Y-80293679D01*
X88731827Y-80503110D01*
X88605886Y-80691594D01*
X88445594Y-80851886D01*
X88257110Y-80977827D01*
X88047679Y-81064576D01*
X87899456Y-81094059D01*
X87825345Y-81108801D01*
X87598657Y-81108801D01*
X87524546Y-81094059D01*
X87376323Y-81064576D01*
X87166892Y-80977827D01*
X86978408Y-80851886D01*
X86818116Y-80691594D01*
X86692175Y-80503110D01*
X86605426Y-80293679D01*
X86561201Y-80071344D01*
X86561201Y-79844658D01*
X86605426Y-79622323D01*
X86692175Y-79412892D01*
X86818116Y-79224408D01*
X86978408Y-79064116D01*
X87166892Y-78938175D01*
X87376323Y-78851426D01*
X87530326Y-78820793D01*
X87598657Y-78807201D01*
X87825345Y-78807201D01*
X87893676Y-78820793D01*
G37*
G36*
X108093676Y-78820793D02*
G01*
X108247679Y-78851426D01*
X108457110Y-78938175D01*
X108645594Y-79064116D01*
X108805886Y-79224408D01*
X108931827Y-79412892D01*
X109018576Y-79622323D01*
X109062801Y-79844658D01*
X109062801Y-80071344D01*
X109018576Y-80293679D01*
X108931827Y-80503110D01*
X108805886Y-80691594D01*
X108645594Y-80851886D01*
X108457110Y-80977827D01*
X108247679Y-81064576D01*
X108099456Y-81094059D01*
X108025345Y-81108801D01*
X107798657Y-81108801D01*
X107724546Y-81094059D01*
X107576323Y-81064576D01*
X107366892Y-80977827D01*
X107178408Y-80851886D01*
X107018116Y-80691594D01*
X106892175Y-80503110D01*
X106805426Y-80293679D01*
X106761201Y-80071344D01*
X106761201Y-79844658D01*
X106805426Y-79622323D01*
X106892175Y-79412892D01*
X107018116Y-79224408D01*
X107178408Y-79064116D01*
X107366892Y-78938175D01*
X107576323Y-78851426D01*
X107730326Y-78820793D01*
X107798657Y-78807201D01*
X108025345Y-78807201D01*
X108093676Y-78820793D01*
G37*
G36*
X143048433Y-79781426D02*
G01*
X143094146Y-79795293D01*
X143136265Y-79817806D01*
X143173191Y-79848109D01*
X143203494Y-79885035D01*
X143226007Y-79927154D01*
X143239874Y-79972867D01*
X143244800Y-80022883D01*
X143244800Y-80606717D01*
X143239874Y-80656733D01*
X143226007Y-80702446D01*
X143203494Y-80744565D01*
X143173191Y-80781491D01*
X143136265Y-80811794D01*
X143094146Y-80834307D01*
X143048433Y-80848174D01*
X142998417Y-80853100D01*
X141989583Y-80853100D01*
X141939567Y-80848174D01*
X141893854Y-80834307D01*
X141851735Y-80811794D01*
X141814809Y-80781491D01*
X141784506Y-80744565D01*
X141761993Y-80702446D01*
X141748126Y-80656733D01*
X141743200Y-80606717D01*
X141743200Y-80022883D01*
X141748126Y-79972867D01*
X141761993Y-79927154D01*
X141784506Y-79885035D01*
X141814809Y-79848109D01*
X141851735Y-79817806D01*
X141893854Y-79795293D01*
X141939567Y-79781426D01*
X141989583Y-79776500D01*
X142998417Y-79776500D01*
X143048433Y-79781426D01*
G37*
G36*
X134369633Y-78806926D02*
G01*
X134415346Y-78820793D01*
X134457465Y-78843306D01*
X134494391Y-78873609D01*
X134524694Y-78910535D01*
X134547207Y-78952654D01*
X134561074Y-78998367D01*
X134566000Y-79048383D01*
X134566000Y-80057217D01*
X134561074Y-80107233D01*
X134547207Y-80152946D01*
X134524694Y-80195065D01*
X134494391Y-80231991D01*
X134457465Y-80262294D01*
X134415346Y-80284807D01*
X134369633Y-80298674D01*
X134319617Y-80303600D01*
X133735783Y-80303600D01*
X133685767Y-80298674D01*
X133640054Y-80284807D01*
X133597935Y-80262294D01*
X133561009Y-80231991D01*
X133530706Y-80195065D01*
X133508193Y-80152946D01*
X133494326Y-80107233D01*
X133489400Y-80057217D01*
X133489400Y-79048383D01*
X133494326Y-78998367D01*
X133508193Y-78952654D01*
X133530706Y-78910535D01*
X133561009Y-78873609D01*
X133597935Y-78843306D01*
X133640054Y-78820793D01*
X133685767Y-78806926D01*
X133735783Y-78802000D01*
X134319617Y-78802000D01*
X134369633Y-78806926D01*
G37*
G36*
X136244633Y-78806926D02*
G01*
X136290346Y-78820793D01*
X136332465Y-78843306D01*
X136369391Y-78873609D01*
X136399694Y-78910535D01*
X136422207Y-78952654D01*
X136436074Y-78998367D01*
X136441000Y-79048383D01*
X136441000Y-80057217D01*
X136436074Y-80107233D01*
X136422207Y-80152946D01*
X136399694Y-80195065D01*
X136369391Y-80231991D01*
X136332465Y-80262294D01*
X136290346Y-80284807D01*
X136244633Y-80298674D01*
X136194617Y-80303600D01*
X135610783Y-80303600D01*
X135560767Y-80298674D01*
X135515054Y-80284807D01*
X135472935Y-80262294D01*
X135436009Y-80231991D01*
X135405706Y-80195065D01*
X135383193Y-80152946D01*
X135369326Y-80107233D01*
X135364400Y-80057217D01*
X135364400Y-79048383D01*
X135369326Y-78998367D01*
X135383193Y-78952654D01*
X135405706Y-78910535D01*
X135436009Y-78873609D01*
X135472935Y-78843306D01*
X135515054Y-78820793D01*
X135560767Y-78806926D01*
X135610783Y-78802000D01*
X136194617Y-78802000D01*
X136244633Y-78806926D01*
G37*
G36*
X146476233Y-78806926D02*
G01*
X146521946Y-78820793D01*
X146564065Y-78843306D01*
X146600991Y-78873609D01*
X146631294Y-78910535D01*
X146653807Y-78952654D01*
X146667674Y-78998367D01*
X146672600Y-79048383D01*
X146672600Y-80057217D01*
X146667674Y-80107233D01*
X146653807Y-80152946D01*
X146631294Y-80195065D01*
X146600991Y-80231991D01*
X146564065Y-80262294D01*
X146521946Y-80284807D01*
X146476233Y-80298674D01*
X146426217Y-80303600D01*
X145842383Y-80303600D01*
X145792367Y-80298674D01*
X145746654Y-80284807D01*
X145704535Y-80262294D01*
X145667609Y-80231991D01*
X145637306Y-80195065D01*
X145614793Y-80152946D01*
X145600926Y-80107233D01*
X145596000Y-80057217D01*
X145596000Y-79048383D01*
X145600926Y-78998367D01*
X145614793Y-78952654D01*
X145637306Y-78910535D01*
X145667609Y-78873609D01*
X145704535Y-78843306D01*
X145746654Y-78820793D01*
X145792367Y-78806926D01*
X145842383Y-78802000D01*
X146426217Y-78802000D01*
X146476233Y-78806926D01*
G37*
G36*
X144601233Y-78806926D02*
G01*
X144646946Y-78820793D01*
X144689065Y-78843306D01*
X144725991Y-78873609D01*
X144756294Y-78910535D01*
X144778807Y-78952654D01*
X144792674Y-78998367D01*
X144797600Y-79048383D01*
X144797600Y-80057217D01*
X144792674Y-80107233D01*
X144778807Y-80152946D01*
X144756294Y-80195065D01*
X144725991Y-80231991D01*
X144689065Y-80262294D01*
X144646946Y-80284807D01*
X144601233Y-80298674D01*
X144551217Y-80303600D01*
X143967383Y-80303600D01*
X143917367Y-80298674D01*
X143871654Y-80284807D01*
X143829535Y-80262294D01*
X143792609Y-80231991D01*
X143762306Y-80195065D01*
X143739793Y-80152946D01*
X143725926Y-80107233D01*
X143721000Y-80057217D01*
X143721000Y-79048383D01*
X143725926Y-78998367D01*
X143739793Y-78952654D01*
X143762306Y-78910535D01*
X143792609Y-78873609D01*
X143829535Y-78843306D01*
X143871654Y-78820793D01*
X143917367Y-78806926D01*
X143967383Y-78802000D01*
X144551217Y-78802000D01*
X144601233Y-78806926D01*
G37*
G36*
X143048433Y-77906426D02*
G01*
X143094146Y-77920293D01*
X143136265Y-77942806D01*
X143173191Y-77973109D01*
X143203494Y-78010035D01*
X143226007Y-78052154D01*
X143239874Y-78097867D01*
X143244800Y-78147883D01*
X143244800Y-78731717D01*
X143239874Y-78781733D01*
X143226007Y-78827446D01*
X143203494Y-78869565D01*
X143173191Y-78906491D01*
X143136265Y-78936794D01*
X143094146Y-78959307D01*
X143048433Y-78973174D01*
X142998417Y-78978100D01*
X141989583Y-78978100D01*
X141939567Y-78973174D01*
X141893854Y-78959307D01*
X141851735Y-78936794D01*
X141814809Y-78906491D01*
X141784506Y-78869565D01*
X141761993Y-78827446D01*
X141748126Y-78781733D01*
X141743200Y-78731717D01*
X141743200Y-78147883D01*
X141748126Y-78097867D01*
X141761993Y-78052154D01*
X141784506Y-78010035D01*
X141814809Y-77973109D01*
X141851735Y-77942806D01*
X141893854Y-77920293D01*
X141939567Y-77906426D01*
X141989583Y-77901500D01*
X142998417Y-77901500D01*
X143048433Y-77906426D01*
G37*
G36*
X74049456Y-76281943D02*
G01*
X74197679Y-76311426D01*
X74407110Y-76398175D01*
X74595594Y-76524116D01*
X74755886Y-76684408D01*
X74881827Y-76872892D01*
X74968576Y-77082323D01*
X75012801Y-77304658D01*
X75012801Y-77531344D01*
X74968576Y-77753679D01*
X74881827Y-77963110D01*
X74755886Y-78151594D01*
X74595594Y-78311886D01*
X74407110Y-78437827D01*
X74197679Y-78524576D01*
X74049456Y-78554059D01*
X73975345Y-78568801D01*
X73748657Y-78568801D01*
X73674546Y-78554059D01*
X73526323Y-78524576D01*
X73316892Y-78437827D01*
X73128408Y-78311886D01*
X72968116Y-78151594D01*
X72842175Y-77963110D01*
X72755426Y-77753679D01*
X72711201Y-77531344D01*
X72711201Y-77304658D01*
X72755426Y-77082323D01*
X72842175Y-76872892D01*
X72968116Y-76684408D01*
X73128408Y-76524116D01*
X73316892Y-76398175D01*
X73526323Y-76311426D01*
X73674546Y-76281943D01*
X73748657Y-76267201D01*
X73975345Y-76267201D01*
X74049456Y-76281943D01*
G37*
G36*
X114449456Y-76281943D02*
G01*
X114597679Y-76311426D01*
X114807110Y-76398175D01*
X114995594Y-76524116D01*
X115155886Y-76684408D01*
X115281827Y-76872892D01*
X115368576Y-77082323D01*
X115412801Y-77304658D01*
X115412801Y-77531344D01*
X115368576Y-77753679D01*
X115281827Y-77963110D01*
X115155886Y-78151594D01*
X114995594Y-78311886D01*
X114807110Y-78437827D01*
X114597679Y-78524576D01*
X114449456Y-78554059D01*
X114375345Y-78568801D01*
X114148657Y-78568801D01*
X114074546Y-78554059D01*
X113926323Y-78524576D01*
X113716892Y-78437827D01*
X113528408Y-78311886D01*
X113368116Y-78151594D01*
X113242175Y-77963110D01*
X113155426Y-77753679D01*
X113111201Y-77531344D01*
X113111201Y-77304658D01*
X113155426Y-77082323D01*
X113242175Y-76872892D01*
X113368116Y-76684408D01*
X113528408Y-76524116D01*
X113716892Y-76398175D01*
X113926323Y-76311426D01*
X114074546Y-76281943D01*
X114148657Y-76267201D01*
X114375345Y-76267201D01*
X114449456Y-76281943D01*
G37*
G36*
X94249456Y-76281943D02*
G01*
X94397679Y-76311426D01*
X94607110Y-76398175D01*
X94795594Y-76524116D01*
X94955886Y-76684408D01*
X95081827Y-76872892D01*
X95168576Y-77082323D01*
X95212801Y-77304658D01*
X95212801Y-77531344D01*
X95168576Y-77753679D01*
X95081827Y-77963110D01*
X94955886Y-78151594D01*
X94795594Y-78311886D01*
X94607110Y-78437827D01*
X94397679Y-78524576D01*
X94249456Y-78554059D01*
X94175345Y-78568801D01*
X93948657Y-78568801D01*
X93874546Y-78554059D01*
X93726323Y-78524576D01*
X93516892Y-78437827D01*
X93328408Y-78311886D01*
X93168116Y-78151594D01*
X93042175Y-77963110D01*
X92955426Y-77753679D01*
X92911201Y-77531344D01*
X92911201Y-77304658D01*
X92955426Y-77082323D01*
X93042175Y-76872892D01*
X93168116Y-76684408D01*
X93328408Y-76524116D01*
X93516892Y-76398175D01*
X93726323Y-76311426D01*
X93874546Y-76281943D01*
X93948657Y-76267201D01*
X94175345Y-76267201D01*
X94249456Y-76281943D01*
G37*
G36*
X127910033Y-77033626D02*
G01*
X127955746Y-77047493D01*
X127997865Y-77070006D01*
X128034791Y-77100309D01*
X128065094Y-77137235D01*
X128087607Y-77179354D01*
X128101474Y-77225067D01*
X128106400Y-77275083D01*
X128106400Y-77858917D01*
X128101474Y-77908933D01*
X128087607Y-77954646D01*
X128065094Y-77996765D01*
X128034791Y-78033691D01*
X127997865Y-78063994D01*
X127955746Y-78086507D01*
X127910033Y-78100374D01*
X127860017Y-78105300D01*
X126851183Y-78105300D01*
X126801167Y-78100374D01*
X126755454Y-78086507D01*
X126713335Y-78063994D01*
X126676409Y-78033691D01*
X126646106Y-77996765D01*
X126623593Y-77954646D01*
X126609726Y-77908933D01*
X126604800Y-77858917D01*
X126604800Y-77275083D01*
X126609726Y-77225067D01*
X126623593Y-77179354D01*
X126646106Y-77137235D01*
X126676409Y-77100309D01*
X126713335Y-77070006D01*
X126755454Y-77047493D01*
X126801167Y-77033626D01*
X126851183Y-77028700D01*
X127860017Y-77028700D01*
X127910033Y-77033626D01*
G37*
G36*
X124963633Y-76982826D02*
G01*
X125009346Y-76996693D01*
X125051465Y-77019206D01*
X125088391Y-77049509D01*
X125118694Y-77086435D01*
X125141207Y-77128554D01*
X125155074Y-77174267D01*
X125160000Y-77224283D01*
X125160000Y-77808117D01*
X125155074Y-77858133D01*
X125141207Y-77903846D01*
X125118694Y-77945965D01*
X125088391Y-77982891D01*
X125051465Y-78013194D01*
X125009346Y-78035707D01*
X124963633Y-78049574D01*
X124913617Y-78054500D01*
X123904783Y-78054500D01*
X123854767Y-78049574D01*
X123809054Y-78035707D01*
X123766935Y-78013194D01*
X123730009Y-77982891D01*
X123699706Y-77945965D01*
X123677193Y-77903846D01*
X123663326Y-77858133D01*
X123658400Y-77808117D01*
X123658400Y-77224283D01*
X123663326Y-77174267D01*
X123677193Y-77128554D01*
X123699706Y-77086435D01*
X123730009Y-77049509D01*
X123766935Y-77019206D01*
X123809054Y-76996693D01*
X123854767Y-76982826D01*
X123904783Y-76977900D01*
X124913617Y-76977900D01*
X124963633Y-76982826D01*
G37*
G36*
X127910033Y-75158626D02*
G01*
X127955746Y-75172493D01*
X127997865Y-75195006D01*
X128034791Y-75225309D01*
X128065094Y-75262235D01*
X128087607Y-75304354D01*
X128101474Y-75350067D01*
X128106400Y-75400083D01*
X128106400Y-75983917D01*
X128101474Y-76033933D01*
X128087607Y-76079646D01*
X128065094Y-76121765D01*
X128034791Y-76158691D01*
X127997865Y-76188994D01*
X127955746Y-76211507D01*
X127910033Y-76225374D01*
X127860017Y-76230300D01*
X126851183Y-76230300D01*
X126801167Y-76225374D01*
X126755454Y-76211507D01*
X126713335Y-76188994D01*
X126676409Y-76158691D01*
X126646106Y-76121765D01*
X126623593Y-76079646D01*
X126609726Y-76033933D01*
X126604800Y-75983917D01*
X126604800Y-75400083D01*
X126609726Y-75350067D01*
X126623593Y-75304354D01*
X126646106Y-75262235D01*
X126676409Y-75225309D01*
X126713335Y-75195006D01*
X126755454Y-75172493D01*
X126801167Y-75158626D01*
X126851183Y-75153700D01*
X127860017Y-75153700D01*
X127910033Y-75158626D01*
G37*
G36*
X124963633Y-75107826D02*
G01*
X125009346Y-75121693D01*
X125051465Y-75144206D01*
X125088391Y-75174509D01*
X125118694Y-75211435D01*
X125141207Y-75253554D01*
X125155074Y-75299267D01*
X125160000Y-75349283D01*
X125160000Y-75933117D01*
X125155074Y-75983133D01*
X125141207Y-76028846D01*
X125118694Y-76070965D01*
X125088391Y-76107891D01*
X125051465Y-76138194D01*
X125009346Y-76160707D01*
X124963633Y-76174574D01*
X124913617Y-76179500D01*
X123904783Y-76179500D01*
X123854767Y-76174574D01*
X123809054Y-76160707D01*
X123766935Y-76138194D01*
X123730009Y-76107891D01*
X123699706Y-76070965D01*
X123677193Y-76028846D01*
X123663326Y-75983133D01*
X123658400Y-75933117D01*
X123658400Y-75349283D01*
X123663326Y-75299267D01*
X123677193Y-75253554D01*
X123699706Y-75211435D01*
X123730009Y-75174509D01*
X123766935Y-75144206D01*
X123809054Y-75121693D01*
X123854767Y-75107826D01*
X123904783Y-75102900D01*
X124913617Y-75102900D01*
X124963633Y-75107826D01*
G37*
G36*
X127910326Y-72803120D02*
G01*
X127955962Y-72816964D01*
X127998027Y-72839448D01*
X128034895Y-72869705D01*
X128065152Y-72906573D01*
X128087636Y-72948638D01*
X128101480Y-72994274D01*
X128106400Y-73044226D01*
X128106400Y-73803774D01*
X128101480Y-73853726D01*
X128087636Y-73899362D01*
X128065152Y-73941427D01*
X128034895Y-73978295D01*
X127998027Y-74008552D01*
X127955962Y-74031036D01*
X127910326Y-74044880D01*
X127860374Y-74049800D01*
X126850826Y-74049800D01*
X126800874Y-74044880D01*
X126755238Y-74031036D01*
X126713173Y-74008552D01*
X126676305Y-73978295D01*
X126646048Y-73941427D01*
X126623564Y-73899362D01*
X126609720Y-73853726D01*
X126604800Y-73803774D01*
X126604800Y-73044226D01*
X126609720Y-72994274D01*
X126623564Y-72948638D01*
X126646048Y-72906573D01*
X126676305Y-72869705D01*
X126713173Y-72839448D01*
X126755238Y-72816964D01*
X126800874Y-72803120D01*
X126850826Y-72798200D01*
X127860374Y-72798200D01*
X127910326Y-72803120D01*
G37*
G36*
X124963926Y-72752320D02*
G01*
X125009562Y-72766164D01*
X125051627Y-72788648D01*
X125088495Y-72818905D01*
X125118752Y-72855773D01*
X125141236Y-72897838D01*
X125155080Y-72943474D01*
X125160000Y-72993426D01*
X125160000Y-73752974D01*
X125155080Y-73802926D01*
X125141236Y-73848562D01*
X125118752Y-73890627D01*
X125088495Y-73927495D01*
X125051627Y-73957752D01*
X125009562Y-73980236D01*
X124963926Y-73994080D01*
X124913974Y-73999000D01*
X123904426Y-73999000D01*
X123854474Y-73994080D01*
X123808838Y-73980236D01*
X123766773Y-73957752D01*
X123729905Y-73927495D01*
X123699648Y-73890627D01*
X123677164Y-73848562D01*
X123663320Y-73802926D01*
X123658400Y-73752974D01*
X123658400Y-72993426D01*
X123663320Y-72943474D01*
X123677164Y-72897838D01*
X123699648Y-72855773D01*
X123729905Y-72818905D01*
X123766773Y-72788648D01*
X123808838Y-72766164D01*
X123854474Y-72752320D01*
X123904426Y-72747400D01*
X124913974Y-72747400D01*
X124963926Y-72752320D01*
G37*
G36*
X150873991Y-70471793D02*
G01*
X151133470Y-70579272D01*
X151366995Y-70735309D01*
X151565591Y-70933905D01*
X151721628Y-71167430D01*
X151829107Y-71426909D01*
X151883900Y-71702371D01*
X151883900Y-71983229D01*
X151829107Y-72258691D01*
X151721628Y-72518170D01*
X151565591Y-72751695D01*
X151366995Y-72950291D01*
X151133470Y-73106328D01*
X150873991Y-73213807D01*
X150598529Y-73268600D01*
X150317671Y-73268600D01*
X150042209Y-73213807D01*
X149782730Y-73106328D01*
X149549205Y-72950291D01*
X149350609Y-72751695D01*
X149194572Y-72518170D01*
X149087093Y-72258691D01*
X149032300Y-71983229D01*
X149032300Y-71702371D01*
X149087093Y-71426909D01*
X149194572Y-71167430D01*
X149350609Y-70933905D01*
X149549205Y-70735309D01*
X149782730Y-70579272D01*
X150042209Y-70471793D01*
X150317671Y-70417000D01*
X150598529Y-70417000D01*
X150873991Y-70471793D01*
G37*
G36*
X58873991Y-70471793D02*
G01*
X59133470Y-70579272D01*
X59366995Y-70735309D01*
X59565591Y-70933905D01*
X59721628Y-71167430D01*
X59829107Y-71426909D01*
X59883900Y-71702371D01*
X59883900Y-71983229D01*
X59829107Y-72258691D01*
X59721628Y-72518170D01*
X59565591Y-72751695D01*
X59366995Y-72950291D01*
X59133470Y-73106328D01*
X58873991Y-73213807D01*
X58598529Y-73268600D01*
X58317671Y-73268600D01*
X58042209Y-73213807D01*
X57782730Y-73106328D01*
X57549205Y-72950291D01*
X57350609Y-72751695D01*
X57194572Y-72518170D01*
X57087093Y-72258691D01*
X57032300Y-71983229D01*
X57032300Y-71702371D01*
X57087093Y-71426909D01*
X57194572Y-71167430D01*
X57350609Y-70933905D01*
X57549205Y-70735309D01*
X57782730Y-70579272D01*
X58042209Y-70471793D01*
X58317671Y-70417000D01*
X58598529Y-70417000D01*
X58873991Y-70471793D01*
G37*
G36*
X127910326Y-70753120D02*
G01*
X127955962Y-70766964D01*
X127998027Y-70789448D01*
X128034895Y-70819705D01*
X128065152Y-70856573D01*
X128087636Y-70898638D01*
X128101480Y-70944274D01*
X128106400Y-70994226D01*
X128106400Y-71753774D01*
X128101480Y-71803726D01*
X128087636Y-71849362D01*
X128065152Y-71891427D01*
X128034895Y-71928295D01*
X127998027Y-71958552D01*
X127955962Y-71981036D01*
X127910326Y-71994880D01*
X127860374Y-71999800D01*
X126850826Y-71999800D01*
X126800874Y-71994880D01*
X126755238Y-71981036D01*
X126713173Y-71958552D01*
X126676305Y-71928295D01*
X126646048Y-71891427D01*
X126623564Y-71849362D01*
X126609720Y-71803726D01*
X126604800Y-71753774D01*
X126604800Y-70994226D01*
X126609720Y-70944274D01*
X126623564Y-70898638D01*
X126646048Y-70856573D01*
X126676305Y-70819705D01*
X126713173Y-70789448D01*
X126755238Y-70766964D01*
X126800874Y-70753120D01*
X126850826Y-70748200D01*
X127860374Y-70748200D01*
X127910326Y-70753120D01*
G37*
G36*
X124963926Y-70702320D02*
G01*
X125009562Y-70716164D01*
X125051627Y-70738648D01*
X125088495Y-70768905D01*
X125118752Y-70805773D01*
X125141236Y-70847838D01*
X125155080Y-70893474D01*
X125160000Y-70943426D01*
X125160000Y-71702974D01*
X125155080Y-71752926D01*
X125141236Y-71798562D01*
X125118752Y-71840627D01*
X125088495Y-71877495D01*
X125051627Y-71907752D01*
X125009562Y-71930236D01*
X124963926Y-71944080D01*
X124913974Y-71949000D01*
X123904426Y-71949000D01*
X123854474Y-71944080D01*
X123808838Y-71930236D01*
X123766773Y-71907752D01*
X123729905Y-71877495D01*
X123699648Y-71840627D01*
X123677164Y-71798562D01*
X123663320Y-71752926D01*
X123658400Y-71702974D01*
X123658400Y-70943426D01*
X123663320Y-70893474D01*
X123677164Y-70847838D01*
X123699648Y-70805773D01*
X123729905Y-70768905D01*
X123766773Y-70738648D01*
X123808838Y-70716164D01*
X123854474Y-70702320D01*
X123904426Y-70697400D01*
X124913974Y-70697400D01*
X124963926Y-70702320D01*
G37*
M02*
