G04 #@! TF.GenerationSoftware,KiCad,Pcbnew,5.1.5-52549c5~84~ubuntu18.04.1*
G04 #@! TF.CreationDate,2020-02-23T16:11:41-08:00*
G04 #@! TF.ProjectId,dotkb_micro,646f746b-625f-46d6-9963-726f2e6b6963,rev?*
G04 #@! TF.SameCoordinates,Original*
G04 #@! TF.FileFunction,Legend,Top*
G04 #@! TF.FilePolarity,Positive*
%FSLAX46Y46*%
G04 Gerber Fmt 4.6, Leading zero omitted, Abs format (unit mm)*
G04 Created by KiCad (PCBNEW 5.1.5-52549c5~84~ubuntu18.04.1) date 2020-02-23 16:11:41*
%MOMM*%
%LPD*%
G04 APERTURE LIST*
%ADD10C,0.200000*%
%ADD11C,0.250000*%
%ADD12C,0.120000*%
%ADD13C,0.150000*%
G04 APERTURE END LIST*
D10*
X57210438Y-99045466D02*
X59210438Y-99045466D01*
X57972342Y-99235942D02*
X57210438Y-99807371D01*
X58543771Y-99807371D02*
X57781866Y-99045466D01*
X57305676Y-101426419D02*
X57210438Y-101235942D01*
X57210438Y-100854990D01*
X57305676Y-100664514D01*
X57496152Y-100569276D01*
X58258057Y-100569276D01*
X58448533Y-100664514D01*
X58543771Y-100854990D01*
X58543771Y-101235942D01*
X58448533Y-101426419D01*
X58258057Y-101521657D01*
X58067580Y-101521657D01*
X57877104Y-100569276D01*
X57210438Y-102378800D02*
X58543771Y-102378800D01*
X58353295Y-102378800D02*
X58448533Y-102474038D01*
X58543771Y-102664514D01*
X58543771Y-102950228D01*
X58448533Y-103140704D01*
X58258057Y-103235942D01*
X57210438Y-103235942D01*
X58258057Y-103235942D02*
X58448533Y-103331180D01*
X58543771Y-103521657D01*
X58543771Y-103807371D01*
X58448533Y-103997847D01*
X58258057Y-104093085D01*
X57210438Y-104093085D01*
X58543771Y-104759752D02*
X58543771Y-105521657D01*
X57210438Y-105045466D02*
X58924723Y-105045466D01*
X59115200Y-105140704D01*
X59210438Y-105331180D01*
X59210438Y-105521657D01*
X57210438Y-106188323D02*
X58543771Y-106188323D01*
X59210438Y-106188323D02*
X59115200Y-106093085D01*
X59019961Y-106188323D01*
X59115200Y-106283561D01*
X59210438Y-106188323D01*
X59019961Y-106188323D01*
X57305676Y-107997847D02*
X57210438Y-107807371D01*
X57210438Y-107426419D01*
X57305676Y-107235942D01*
X57400914Y-107140704D01*
X57591390Y-107045466D01*
X58162819Y-107045466D01*
X58353295Y-107140704D01*
X58448533Y-107235942D01*
X58543771Y-107426419D01*
X58543771Y-107807371D01*
X58448533Y-107997847D01*
X60436038Y-79041390D02*
X62436038Y-79041390D01*
X61007466Y-79708057D01*
X62436038Y-80374723D01*
X60436038Y-80374723D01*
X60436038Y-81327104D02*
X62436038Y-81327104D01*
X60436038Y-82469961D02*
X61578895Y-81612819D01*
X62436038Y-82469961D02*
X61293180Y-81327104D01*
X60436038Y-83327104D02*
X62436038Y-83327104D01*
X58569371Y-78755676D02*
X58569371Y-79517580D01*
X57236038Y-79041390D02*
X58950323Y-79041390D01*
X59140800Y-79136628D01*
X59236038Y-79327104D01*
X59236038Y-79517580D01*
X57331276Y-80946152D02*
X57236038Y-80755676D01*
X57236038Y-80374723D01*
X57331276Y-80184247D01*
X57521752Y-80089009D01*
X58283657Y-80089009D01*
X58474133Y-80184247D01*
X58569371Y-80374723D01*
X58569371Y-80755676D01*
X58474133Y-80946152D01*
X58283657Y-81041390D01*
X58093180Y-81041390D01*
X57902704Y-80089009D01*
X57236038Y-81898533D02*
X59236038Y-81898533D01*
X58474133Y-81898533D02*
X58569371Y-82089009D01*
X58569371Y-82469961D01*
X58474133Y-82660438D01*
X58378895Y-82755676D01*
X58188419Y-82850914D01*
X57616990Y-82850914D01*
X57426514Y-82755676D01*
X57331276Y-82660438D01*
X57236038Y-82469961D01*
X57236038Y-82089009D01*
X57331276Y-81898533D01*
X59045561Y-85136628D02*
X59140800Y-85231866D01*
X59236038Y-85422342D01*
X59236038Y-85898533D01*
X59140800Y-86089009D01*
X59045561Y-86184247D01*
X58855085Y-86279485D01*
X58664609Y-86279485D01*
X58378895Y-86184247D01*
X57236038Y-85041390D01*
X57236038Y-86279485D01*
X59236038Y-87517580D02*
X59236038Y-87708057D01*
X59140800Y-87898533D01*
X59045561Y-87993771D01*
X58855085Y-88089009D01*
X58474133Y-88184247D01*
X57997942Y-88184247D01*
X57616990Y-88089009D01*
X57426514Y-87993771D01*
X57331276Y-87898533D01*
X57236038Y-87708057D01*
X57236038Y-87517580D01*
X57331276Y-87327104D01*
X57426514Y-87231866D01*
X57616990Y-87136628D01*
X57997942Y-87041390D01*
X58474133Y-87041390D01*
X58855085Y-87136628D01*
X59045561Y-87231866D01*
X59140800Y-87327104D01*
X59236038Y-87517580D01*
X59045561Y-88946152D02*
X59140800Y-89041390D01*
X59236038Y-89231866D01*
X59236038Y-89708057D01*
X59140800Y-89898533D01*
X59045561Y-89993771D01*
X58855085Y-90089009D01*
X58664609Y-90089009D01*
X58378895Y-89993771D01*
X57236038Y-88850914D01*
X57236038Y-90089009D01*
X59236038Y-91327104D02*
X59236038Y-91517580D01*
X59140800Y-91708057D01*
X59045561Y-91803295D01*
X58855085Y-91898533D01*
X58474133Y-91993771D01*
X57997942Y-91993771D01*
X57616990Y-91898533D01*
X57426514Y-91803295D01*
X57331276Y-91708057D01*
X57236038Y-91517580D01*
X57236038Y-91327104D01*
X57331276Y-91136628D01*
X57426514Y-91041390D01*
X57616990Y-90946152D01*
X57997942Y-90850914D01*
X58474133Y-90850914D01*
X58855085Y-90946152D01*
X59045561Y-91041390D01*
X59140800Y-91136628D01*
X59236038Y-91327104D01*
D11*
X148858457Y-80648500D02*
X151858457Y-80648500D01*
X149001314Y-80648500D02*
X148858457Y-80362785D01*
X148858457Y-79791357D01*
X149001314Y-79505642D01*
X149144171Y-79362785D01*
X149429885Y-79219928D01*
X150287028Y-79219928D01*
X150572742Y-79362785D01*
X150715600Y-79505642D01*
X150858457Y-79791357D01*
X150858457Y-80362785D01*
X150715600Y-80648500D01*
X148858457Y-82505642D02*
X149001314Y-82219928D01*
X149144171Y-82077071D01*
X149429885Y-81934214D01*
X150287028Y-81934214D01*
X150572742Y-82077071D01*
X150715600Y-82219928D01*
X150858457Y-82505642D01*
X150858457Y-82934214D01*
X150715600Y-83219928D01*
X150572742Y-83362785D01*
X150287028Y-83505642D01*
X149429885Y-83505642D01*
X149144171Y-83362785D01*
X149001314Y-83219928D01*
X148858457Y-82934214D01*
X148858457Y-82505642D01*
X150858457Y-84362785D02*
X150858457Y-85505642D01*
X151858457Y-84791357D02*
X149287028Y-84791357D01*
X149001314Y-84934214D01*
X148858457Y-85219928D01*
X148858457Y-85505642D01*
X148858457Y-86505642D02*
X151858457Y-86505642D01*
X150001314Y-86791357D02*
X148858457Y-87648500D01*
X150858457Y-87648500D02*
X149715600Y-86505642D01*
X148858457Y-88934214D02*
X151858457Y-88934214D01*
X150715600Y-88934214D02*
X150858457Y-89219928D01*
X150858457Y-89791357D01*
X150715600Y-90077071D01*
X150572742Y-90219928D01*
X150287028Y-90362785D01*
X149429885Y-90362785D01*
X149144171Y-90219928D01*
X149001314Y-90077071D01*
X148858457Y-89791357D01*
X148858457Y-89219928D01*
X149001314Y-88934214D01*
X148858457Y-93934214D02*
X150858457Y-93934214D01*
X150572742Y-93934214D02*
X150715600Y-94077071D01*
X150858457Y-94362785D01*
X150858457Y-94791357D01*
X150715600Y-95077071D01*
X150429885Y-95219928D01*
X148858457Y-95219928D01*
X150429885Y-95219928D02*
X150715600Y-95362785D01*
X150858457Y-95648500D01*
X150858457Y-96077071D01*
X150715600Y-96362785D01*
X150429885Y-96505642D01*
X148858457Y-96505642D01*
X148858457Y-97934214D02*
X150858457Y-97934214D01*
X151858457Y-97934214D02*
X151715600Y-97791357D01*
X151572742Y-97934214D01*
X151715600Y-98077071D01*
X151858457Y-97934214D01*
X151572742Y-97934214D01*
X149001314Y-100648500D02*
X148858457Y-100362785D01*
X148858457Y-99791357D01*
X149001314Y-99505642D01*
X149144171Y-99362785D01*
X149429885Y-99219928D01*
X150287028Y-99219928D01*
X150572742Y-99362785D01*
X150715600Y-99505642D01*
X150858457Y-99791357D01*
X150858457Y-100362785D01*
X150715600Y-100648500D01*
X148858457Y-101934214D02*
X150858457Y-101934214D01*
X150287028Y-101934214D02*
X150572742Y-102077071D01*
X150715600Y-102219928D01*
X150858457Y-102505642D01*
X150858457Y-102791357D01*
X148858457Y-104219928D02*
X149001314Y-103934214D01*
X149144171Y-103791357D01*
X149429885Y-103648500D01*
X150287028Y-103648500D01*
X150572742Y-103791357D01*
X150715600Y-103934214D01*
X150858457Y-104219928D01*
X150858457Y-104648500D01*
X150715600Y-104934214D01*
X150572742Y-105077071D01*
X150287028Y-105219928D01*
X149429885Y-105219928D01*
X149144171Y-105077071D01*
X149001314Y-104934214D01*
X148858457Y-104648500D01*
X148858457Y-104219928D01*
D12*
X104737001Y-109683001D02*
X104737001Y-95713001D01*
X118707001Y-109683001D02*
X104737001Y-109683001D01*
X118707001Y-95713001D02*
X118707001Y-109683001D01*
X104737001Y-95713001D02*
X118707001Y-95713001D01*
X104737001Y-89483001D02*
X104737001Y-75513001D01*
X118707001Y-89483001D02*
X104737001Y-89483001D01*
X118707001Y-75513001D02*
X118707001Y-89483001D01*
X104737001Y-75513001D02*
X118707001Y-75513001D01*
X84537001Y-95713001D02*
X98507001Y-95713001D01*
X98507001Y-95713001D02*
X98507001Y-109683001D01*
X98507001Y-109683001D02*
X84537001Y-109683001D01*
X84537001Y-109683001D02*
X84537001Y-95713001D01*
X84537001Y-75513001D02*
X98507001Y-75513001D01*
X98507001Y-75513001D02*
X98507001Y-89483001D01*
X98507001Y-89483001D02*
X84537001Y-89483001D01*
X84537001Y-89483001D02*
X84537001Y-75513001D01*
X64337001Y-95713001D02*
X78307001Y-95713001D01*
X78307001Y-95713001D02*
X78307001Y-109683001D01*
X78307001Y-109683001D02*
X64337001Y-109683001D01*
X64337001Y-109683001D02*
X64337001Y-95713001D01*
X64337001Y-89483001D02*
X64337001Y-75513001D01*
X78307001Y-89483001D02*
X64337001Y-89483001D01*
X78307001Y-75513001D02*
X78307001Y-89483001D01*
X64337001Y-75513001D02*
X78307001Y-75513001D01*
D13*
X110436286Y-95276381D02*
X110436286Y-94276381D01*
X110769620Y-94990667D01*
X111102953Y-94276381D01*
X111102953Y-95276381D01*
X111483905Y-94276381D02*
X112150572Y-95276381D01*
X112150572Y-94276381D02*
X111483905Y-95276381D01*
X113055334Y-95276381D02*
X112483905Y-95276381D01*
X112769620Y-95276381D02*
X112769620Y-94276381D01*
X112674381Y-94419239D01*
X112579143Y-94514477D01*
X112483905Y-94562096D01*
X110436286Y-75076381D02*
X110436286Y-74076381D01*
X110769620Y-74790667D01*
X111102953Y-74076381D01*
X111102953Y-75076381D01*
X111483905Y-74076381D02*
X112150572Y-75076381D01*
X112150572Y-74076381D02*
X111483905Y-75076381D01*
X112483905Y-74171620D02*
X112531524Y-74124001D01*
X112626762Y-74076381D01*
X112864858Y-74076381D01*
X112960096Y-74124001D01*
X113007715Y-74171620D01*
X113055334Y-74266858D01*
X113055334Y-74362096D01*
X113007715Y-74504953D01*
X112436286Y-75076381D01*
X113055334Y-75076381D01*
X90236286Y-95276381D02*
X90236286Y-94276381D01*
X90569620Y-94990667D01*
X90902953Y-94276381D01*
X90902953Y-95276381D01*
X91283905Y-94276381D02*
X91950572Y-95276381D01*
X91950572Y-94276381D02*
X91283905Y-95276381D01*
X92236286Y-94276381D02*
X92855334Y-94276381D01*
X92522001Y-94657334D01*
X92664858Y-94657334D01*
X92760096Y-94704953D01*
X92807715Y-94752572D01*
X92855334Y-94847810D01*
X92855334Y-95085905D01*
X92807715Y-95181143D01*
X92760096Y-95228762D01*
X92664858Y-95276381D01*
X92379143Y-95276381D01*
X92283905Y-95228762D01*
X92236286Y-95181143D01*
X90236286Y-75076381D02*
X90236286Y-74076381D01*
X90569620Y-74790667D01*
X90902953Y-74076381D01*
X90902953Y-75076381D01*
X91283905Y-74076381D02*
X91950572Y-75076381D01*
X91950572Y-74076381D02*
X91283905Y-75076381D01*
X92760096Y-74409715D02*
X92760096Y-75076381D01*
X92522001Y-74028762D02*
X92283905Y-74743048D01*
X92902953Y-74743048D01*
X70036286Y-95276381D02*
X70036286Y-94276381D01*
X70369620Y-94990667D01*
X70702953Y-94276381D01*
X70702953Y-95276381D01*
X71083905Y-94276381D02*
X71750572Y-95276381D01*
X71750572Y-94276381D02*
X71083905Y-95276381D01*
X72607715Y-94276381D02*
X72131524Y-94276381D01*
X72083905Y-94752572D01*
X72131524Y-94704953D01*
X72226762Y-94657334D01*
X72464858Y-94657334D01*
X72560096Y-94704953D01*
X72607715Y-94752572D01*
X72655334Y-94847810D01*
X72655334Y-95085905D01*
X72607715Y-95181143D01*
X72560096Y-95228762D01*
X72464858Y-95276381D01*
X72226762Y-95276381D01*
X72131524Y-95228762D01*
X72083905Y-95181143D01*
X70036286Y-75076381D02*
X70036286Y-74076381D01*
X70369620Y-74790667D01*
X70702953Y-74076381D01*
X70702953Y-75076381D01*
X71083905Y-74076381D02*
X71750572Y-75076381D01*
X71750572Y-74076381D02*
X71083905Y-75076381D01*
X72560096Y-74076381D02*
X72369620Y-74076381D01*
X72274381Y-74124001D01*
X72226762Y-74171620D01*
X72131524Y-74314477D01*
X72083905Y-74504953D01*
X72083905Y-74885905D01*
X72131524Y-74981143D01*
X72179143Y-75028762D01*
X72274381Y-75076381D01*
X72464858Y-75076381D01*
X72560096Y-75028762D01*
X72607715Y-74981143D01*
X72655334Y-74885905D01*
X72655334Y-74647810D01*
X72607715Y-74552572D01*
X72560096Y-74504953D01*
X72464858Y-74457334D01*
X72274381Y-74457334D01*
X72179143Y-74504953D01*
X72131524Y-74552572D01*
X72083905Y-74647810D01*
M02*
