G04 #@! TF.GenerationSoftware,KiCad,Pcbnew,5.1.5-52549c5~84~ubuntu18.04.1*
G04 #@! TF.CreationDate,2020-02-23T16:11:41-08:00*
G04 #@! TF.ProjectId,dotkb_micro,646f746b-625f-46d6-9963-726f2e6b6963,rev?*
G04 #@! TF.SameCoordinates,Original*
G04 #@! TF.FileFunction,Legend,Bot*
G04 #@! TF.FilePolarity,Positive*
%FSLAX46Y46*%
G04 Gerber Fmt 4.6, Leading zero omitted, Abs format (unit mm)*
G04 Created by KiCad (PCBNEW 5.1.5-52549c5~84~ubuntu18.04.1) date 2020-02-23 16:11:41*
%MOMM*%
%LPD*%
G04 APERTURE LIST*
%ADD10C,0.250000*%
%ADD11C,0.150000*%
%ADD12C,1.000000*%
%ADD13C,0.120000*%
G04 APERTURE END LIST*
D10*
X57418457Y-104568300D02*
X60418457Y-104568300D01*
X57561314Y-104568300D02*
X57418457Y-104854014D01*
X57418457Y-105425442D01*
X57561314Y-105711157D01*
X57704171Y-105854014D01*
X57989885Y-105996871D01*
X58847028Y-105996871D01*
X59132742Y-105854014D01*
X59275600Y-105711157D01*
X59418457Y-105425442D01*
X59418457Y-104854014D01*
X59275600Y-104568300D01*
X57418457Y-102711157D02*
X57561314Y-102996871D01*
X57704171Y-103139728D01*
X57989885Y-103282585D01*
X58847028Y-103282585D01*
X59132742Y-103139728D01*
X59275600Y-102996871D01*
X59418457Y-102711157D01*
X59418457Y-102282585D01*
X59275600Y-101996871D01*
X59132742Y-101854014D01*
X58847028Y-101711157D01*
X57989885Y-101711157D01*
X57704171Y-101854014D01*
X57561314Y-101996871D01*
X57418457Y-102282585D01*
X57418457Y-102711157D01*
X59418457Y-100854014D02*
X59418457Y-99711157D01*
X60418457Y-100425442D02*
X57847028Y-100425442D01*
X57561314Y-100282585D01*
X57418457Y-99996871D01*
X57418457Y-99711157D01*
X57418457Y-98711157D02*
X60418457Y-98711157D01*
X58561314Y-98425442D02*
X57418457Y-97568300D01*
X59418457Y-97568300D02*
X58275600Y-98711157D01*
X57418457Y-96282585D02*
X60418457Y-96282585D01*
X59275600Y-96282585D02*
X59418457Y-95996871D01*
X59418457Y-95425442D01*
X59275600Y-95139728D01*
X59132742Y-94996871D01*
X58847028Y-94854014D01*
X57989885Y-94854014D01*
X57704171Y-94996871D01*
X57561314Y-95139728D01*
X57418457Y-95425442D01*
X57418457Y-95996871D01*
X57561314Y-96282585D01*
X57418457Y-91282585D02*
X59418457Y-91282585D01*
X59132742Y-91282585D02*
X59275600Y-91139728D01*
X59418457Y-90854014D01*
X59418457Y-90425442D01*
X59275600Y-90139728D01*
X58989885Y-89996871D01*
X57418457Y-89996871D01*
X58989885Y-89996871D02*
X59275600Y-89854014D01*
X59418457Y-89568300D01*
X59418457Y-89139728D01*
X59275600Y-88854014D01*
X58989885Y-88711157D01*
X57418457Y-88711157D01*
X57418457Y-87282585D02*
X59418457Y-87282585D01*
X60418457Y-87282585D02*
X60275600Y-87425442D01*
X60132742Y-87282585D01*
X60275600Y-87139728D01*
X60418457Y-87282585D01*
X60132742Y-87282585D01*
X57561314Y-84568300D02*
X57418457Y-84854014D01*
X57418457Y-85425442D01*
X57561314Y-85711157D01*
X57704171Y-85854014D01*
X57989885Y-85996871D01*
X58847028Y-85996871D01*
X59132742Y-85854014D01*
X59275600Y-85711157D01*
X59418457Y-85425442D01*
X59418457Y-84854014D01*
X59275600Y-84568300D01*
X57418457Y-83282585D02*
X59418457Y-83282585D01*
X58847028Y-83282585D02*
X59132742Y-83139728D01*
X59275600Y-82996871D01*
X59418457Y-82711157D01*
X59418457Y-82425442D01*
X57418457Y-80996871D02*
X57561314Y-81282585D01*
X57704171Y-81425442D01*
X57989885Y-81568300D01*
X58847028Y-81568300D01*
X59132742Y-81425442D01*
X59275600Y-81282585D01*
X59418457Y-80996871D01*
X59418457Y-80568300D01*
X59275600Y-80282585D01*
X59132742Y-80139728D01*
X58847028Y-79996871D01*
X57989885Y-79996871D01*
X57704171Y-80139728D01*
X57561314Y-80282585D01*
X57418457Y-80568300D01*
X57418457Y-80996871D01*
D11*
X124266638Y-108747909D02*
X126266638Y-108747909D01*
X124838066Y-108081242D01*
X126266638Y-107414576D01*
X124266638Y-107414576D01*
X124266638Y-106462195D02*
X126266638Y-106462195D01*
X124266638Y-105319338D02*
X125409495Y-106176480D01*
X126266638Y-105319338D02*
X125123780Y-106462195D01*
X124266638Y-104462195D02*
X126266638Y-104462195D01*
X122449971Y-109033623D02*
X122449971Y-108271719D01*
X121116638Y-108747909D02*
X122830923Y-108747909D01*
X123021400Y-108652671D01*
X123116638Y-108462195D01*
X123116638Y-108271719D01*
X121211876Y-106843147D02*
X121116638Y-107033623D01*
X121116638Y-107414576D01*
X121211876Y-107605052D01*
X121402352Y-107700290D01*
X122164257Y-107700290D01*
X122354733Y-107605052D01*
X122449971Y-107414576D01*
X122449971Y-107033623D01*
X122354733Y-106843147D01*
X122164257Y-106747909D01*
X121973780Y-106747909D01*
X121783304Y-107700290D01*
X121116638Y-105890766D02*
X123116638Y-105890766D01*
X122354733Y-105890766D02*
X122449971Y-105700290D01*
X122449971Y-105319338D01*
X122354733Y-105128861D01*
X122259495Y-105033623D01*
X122069019Y-104938385D01*
X121497590Y-104938385D01*
X121307114Y-105033623D01*
X121211876Y-105128861D01*
X121116638Y-105319338D01*
X121116638Y-105700290D01*
X121211876Y-105890766D01*
X122926161Y-102652671D02*
X123021400Y-102557433D01*
X123116638Y-102366957D01*
X123116638Y-101890766D01*
X123021400Y-101700290D01*
X122926161Y-101605052D01*
X122735685Y-101509814D01*
X122545209Y-101509814D01*
X122259495Y-101605052D01*
X121116638Y-102747909D01*
X121116638Y-101509814D01*
X123116638Y-100271719D02*
X123116638Y-100081242D01*
X123021400Y-99890766D01*
X122926161Y-99795528D01*
X122735685Y-99700290D01*
X122354733Y-99605052D01*
X121878542Y-99605052D01*
X121497590Y-99700290D01*
X121307114Y-99795528D01*
X121211876Y-99890766D01*
X121116638Y-100081242D01*
X121116638Y-100271719D01*
X121211876Y-100462195D01*
X121307114Y-100557433D01*
X121497590Y-100652671D01*
X121878542Y-100747909D01*
X122354733Y-100747909D01*
X122735685Y-100652671D01*
X122926161Y-100557433D01*
X123021400Y-100462195D01*
X123116638Y-100271719D01*
X122926161Y-98843147D02*
X123021400Y-98747909D01*
X123116638Y-98557433D01*
X123116638Y-98081242D01*
X123021400Y-97890766D01*
X122926161Y-97795528D01*
X122735685Y-97700290D01*
X122545209Y-97700290D01*
X122259495Y-97795528D01*
X121116638Y-98938385D01*
X121116638Y-97700290D01*
X123116638Y-96462195D02*
X123116638Y-96271719D01*
X123021400Y-96081242D01*
X122926161Y-95986004D01*
X122735685Y-95890766D01*
X122354733Y-95795528D01*
X121878542Y-95795528D01*
X121497590Y-95890766D01*
X121307114Y-95986004D01*
X121211876Y-96081242D01*
X121116638Y-96271719D01*
X121116638Y-96462195D01*
X121211876Y-96652671D01*
X121307114Y-96747909D01*
X121497590Y-96843147D01*
X121878542Y-96938385D01*
X122354733Y-96938385D01*
X122735685Y-96843147D01*
X122926161Y-96747909D01*
X123021400Y-96652671D01*
X123116638Y-96462195D01*
X149310838Y-108998833D02*
X151310838Y-108998833D01*
X150072742Y-108808357D02*
X149310838Y-108236928D01*
X150644171Y-108236928D02*
X149882266Y-108998833D01*
X149406076Y-106617880D02*
X149310838Y-106808357D01*
X149310838Y-107189309D01*
X149406076Y-107379785D01*
X149596552Y-107475023D01*
X150358457Y-107475023D01*
X150548933Y-107379785D01*
X150644171Y-107189309D01*
X150644171Y-106808357D01*
X150548933Y-106617880D01*
X150358457Y-106522642D01*
X150167980Y-106522642D01*
X149977504Y-107475023D01*
X149310838Y-105665500D02*
X150644171Y-105665500D01*
X150453695Y-105665500D02*
X150548933Y-105570261D01*
X150644171Y-105379785D01*
X150644171Y-105094071D01*
X150548933Y-104903595D01*
X150358457Y-104808357D01*
X149310838Y-104808357D01*
X150358457Y-104808357D02*
X150548933Y-104713119D01*
X150644171Y-104522642D01*
X150644171Y-104236928D01*
X150548933Y-104046452D01*
X150358457Y-103951214D01*
X149310838Y-103951214D01*
X150644171Y-103284547D02*
X150644171Y-102522642D01*
X149310838Y-102998833D02*
X151025123Y-102998833D01*
X151215600Y-102903595D01*
X151310838Y-102713119D01*
X151310838Y-102522642D01*
X149310838Y-101855976D02*
X150644171Y-101855976D01*
X151310838Y-101855976D02*
X151215600Y-101951214D01*
X151120361Y-101855976D01*
X151215600Y-101760738D01*
X151310838Y-101855976D01*
X151120361Y-101855976D01*
X149406076Y-100046452D02*
X149310838Y-100236928D01*
X149310838Y-100617880D01*
X149406076Y-100808357D01*
X149501314Y-100903595D01*
X149691790Y-100998833D01*
X150263219Y-100998833D01*
X150453695Y-100903595D01*
X150548933Y-100808357D01*
X150644171Y-100617880D01*
X150644171Y-100236928D01*
X150548933Y-100046452D01*
X132740400Y-104698800D02*
X131826000Y-105613200D01*
X132740400Y-104698800D02*
X133756400Y-105714800D01*
X132740400Y-108712000D02*
X132740400Y-104698800D01*
X126085600Y-70104000D02*
X128574800Y-70104000D01*
X122986800Y-70104000D02*
X125679200Y-70104000D01*
X114300000Y-86055200D02*
X114300000Y-89052400D01*
X93878400Y-86156800D02*
X93878400Y-88950800D01*
X73812400Y-86106000D02*
X73812400Y-88849200D01*
X73507600Y-106426000D02*
X73507600Y-109118400D01*
X93980000Y-106375200D02*
X93980000Y-108864400D01*
X114401600Y-106680000D02*
X114401600Y-108966000D01*
X147226644Y-87223600D02*
G75*
G03X147226644Y-87223600I-160644J0D01*
G01*
D12*
X142951200Y-92659200D02*
G75*
G03X142951200Y-92659200I-200000J0D01*
G01*
X144878400Y-96266000D02*
G75*
G03X144878400Y-96266000I-200000J0D01*
G01*
D13*
X140359200Y-107668322D02*
X140359200Y-108185478D01*
X138939200Y-107668322D02*
X138939200Y-108185478D01*
X143864400Y-107668322D02*
X143864400Y-108185478D01*
X142444400Y-107668322D02*
X142444400Y-108185478D01*
X147617200Y-86582400D02*
X147617200Y-92682400D01*
X148717200Y-86582400D02*
X147617200Y-86582400D01*
X153017200Y-92682400D02*
X153017200Y-87682400D01*
X147422800Y-84207878D02*
X147422800Y-83690722D01*
X148842800Y-84207878D02*
X148842800Y-83690722D01*
X149505600Y-84207878D02*
X149505600Y-83690722D01*
X150925600Y-84207878D02*
X150925600Y-83690722D01*
X151639200Y-84207878D02*
X151639200Y-83690722D01*
X153059200Y-84207878D02*
X153059200Y-83690722D01*
X125119200Y-76320122D02*
X125119200Y-76837278D01*
X123699200Y-76320122D02*
X123699200Y-76837278D01*
X128065600Y-76370922D02*
X128065600Y-76888078D01*
X126645600Y-76370922D02*
X126645600Y-76888078D01*
X125369200Y-70488200D02*
X125369200Y-73348200D01*
X123449200Y-70488200D02*
X125369200Y-70488200D01*
X123449200Y-73348200D02*
X123449200Y-70488200D01*
X128315600Y-70539000D02*
X128315600Y-73399000D01*
X126395600Y-70539000D02*
X128315600Y-70539000D01*
X126395600Y-73399000D02*
X126395600Y-70539000D01*
X131024700Y-97592622D02*
X131024700Y-98109778D01*
X129604700Y-97592622D02*
X129604700Y-98109778D01*
X144938222Y-80262800D02*
X145455378Y-80262800D01*
X144938222Y-78842800D02*
X145455378Y-78842800D01*
X134706622Y-80262800D02*
X135223778Y-80262800D01*
X134706622Y-78842800D02*
X135223778Y-78842800D01*
X141923700Y-98583222D02*
X141923700Y-99100378D01*
X143343700Y-98583222D02*
X143343700Y-99100378D01*
X139279700Y-98661722D02*
X139279700Y-99178878D01*
X137859700Y-98661722D02*
X137859700Y-99178878D01*
X114010000Y-106823000D02*
X110110000Y-106823000D01*
X114010000Y-108823000D02*
X110110000Y-108823000D01*
X114010000Y-106823000D02*
X114010000Y-108823000D01*
X114009000Y-86503000D02*
X114009000Y-88503000D01*
X114009000Y-88503000D02*
X110109000Y-88503000D01*
X114009000Y-86503000D02*
X110109000Y-86503000D01*
X93690000Y-106696000D02*
X93690000Y-108696000D01*
X93690000Y-108696000D02*
X89790000Y-108696000D01*
X93690000Y-106696000D02*
X89790000Y-106696000D01*
X93689000Y-86503000D02*
X89789000Y-86503000D01*
X93689000Y-88503000D02*
X89789000Y-88503000D01*
X93689000Y-86503000D02*
X93689000Y-88503000D01*
X73244000Y-106823000D02*
X73244000Y-108823000D01*
X73244000Y-108823000D02*
X69344000Y-108823000D01*
X73244000Y-106823000D02*
X69344000Y-106823000D01*
X73371000Y-86503000D02*
X69471000Y-86503000D01*
X73371000Y-88503000D02*
X69471000Y-88503000D01*
X73371000Y-86503000D02*
X73371000Y-88503000D01*
X145736900Y-107192536D02*
X145736900Y-108396664D01*
X147556900Y-107192536D02*
X147556900Y-108396664D01*
X137419700Y-112012300D02*
X137799700Y-112012300D01*
X137419700Y-116062300D02*
X137419700Y-116322300D01*
X137419700Y-112012300D02*
X137419700Y-113782300D01*
X145039700Y-112012300D02*
X144659700Y-112012300D01*
X145039700Y-113782300D02*
X145039700Y-112012300D01*
X145039700Y-116322300D02*
X145039700Y-116062300D01*
X141784000Y-79118722D02*
X141784000Y-79635878D01*
X143204000Y-79118722D02*
X143204000Y-79635878D01*
X132284400Y-98071678D02*
X132284400Y-97554522D01*
X133704400Y-98071678D02*
X133704400Y-97554522D01*
X134165214Y-106706600D02*
G75*
G03X134165214Y-106706600I-1414214J0D01*
G01*
X129631000Y-109676600D02*
X129631000Y-103736600D01*
X135871000Y-109676600D02*
X135871000Y-103736600D01*
X131411000Y-109826600D02*
X134091000Y-109826600D01*
X134091000Y-103586600D02*
X131411000Y-103586600D01*
D11*
X144506700Y-94570300D02*
X143931700Y-94570300D01*
X144506700Y-84220300D02*
X143831700Y-84220300D01*
X134156700Y-84220300D02*
X134831700Y-84220300D01*
X134156700Y-94570300D02*
X134831700Y-94570300D01*
X144506700Y-94570300D02*
X144506700Y-93895300D01*
X134156700Y-94570300D02*
X134156700Y-93895300D01*
X134156700Y-84220300D02*
X134156700Y-84895300D01*
X144506700Y-84220300D02*
X144506700Y-84895300D01*
X143931700Y-94570300D02*
X143931700Y-95845300D01*
D13*
X124368260Y-89098036D02*
X126701713Y-86764583D01*
X126701713Y-86764583D02*
X129530140Y-89593010D01*
D11*
X127217466Y-84802742D02*
X127265085Y-84850361D01*
X127407942Y-84897980D01*
X127503180Y-84897980D01*
X127646038Y-84850361D01*
X127741276Y-84755123D01*
X127788895Y-84659885D01*
X127836514Y-84469409D01*
X127836514Y-84326552D01*
X127788895Y-84136076D01*
X127741276Y-84040838D01*
X127646038Y-83945600D01*
X127503180Y-83897980D01*
X127407942Y-83897980D01*
X127265085Y-83945600D01*
X127217466Y-83993219D01*
X126312704Y-83897980D02*
X126788895Y-83897980D01*
X126836514Y-84374171D01*
X126788895Y-84326552D01*
X126693657Y-84278933D01*
X126455561Y-84278933D01*
X126360323Y-84326552D01*
X126312704Y-84374171D01*
X126265085Y-84469409D01*
X126265085Y-84707504D01*
X126312704Y-84802742D01*
X126360323Y-84850361D01*
X126455561Y-84897980D01*
X126693657Y-84897980D01*
X126788895Y-84850361D01*
X126836514Y-84802742D01*
X127131106Y-92691982D02*
X127178725Y-92739601D01*
X127321582Y-92787220D01*
X127416820Y-92787220D01*
X127559678Y-92739601D01*
X127654916Y-92644363D01*
X127702535Y-92549125D01*
X127750154Y-92358649D01*
X127750154Y-92215792D01*
X127702535Y-92025316D01*
X127654916Y-91930078D01*
X127559678Y-91834840D01*
X127416820Y-91787220D01*
X127321582Y-91787220D01*
X127178725Y-91834840D01*
X127131106Y-91882459D01*
X126273963Y-92120554D02*
X126273963Y-92787220D01*
X126512059Y-91739601D02*
X126750154Y-92453887D01*
X126131106Y-92453887D01*
X138451580Y-107760233D02*
X137975390Y-107426900D01*
X138451580Y-107188804D02*
X137451580Y-107188804D01*
X137451580Y-107569757D01*
X137499200Y-107664995D01*
X137546819Y-107712614D01*
X137642057Y-107760233D01*
X137784914Y-107760233D01*
X137880152Y-107712614D01*
X137927771Y-107664995D01*
X137975390Y-107569757D01*
X137975390Y-107188804D01*
X137546819Y-108141185D02*
X137499200Y-108188804D01*
X137451580Y-108284042D01*
X137451580Y-108522138D01*
X137499200Y-108617376D01*
X137546819Y-108664995D01*
X137642057Y-108712614D01*
X137737295Y-108712614D01*
X137880152Y-108664995D01*
X138451580Y-108093566D01*
X138451580Y-108712614D01*
X141956780Y-107760233D02*
X141480590Y-107426900D01*
X141956780Y-107188804D02*
X140956780Y-107188804D01*
X140956780Y-107569757D01*
X141004400Y-107664995D01*
X141052019Y-107712614D01*
X141147257Y-107760233D01*
X141290114Y-107760233D01*
X141385352Y-107712614D01*
X141432971Y-107664995D01*
X141480590Y-107569757D01*
X141480590Y-107188804D01*
X141956780Y-108712614D02*
X141956780Y-108141185D01*
X141956780Y-108426900D02*
X140956780Y-108426900D01*
X141099638Y-108331661D01*
X141194876Y-108236423D01*
X141242495Y-108141185D01*
X147269580Y-89444304D02*
X146269580Y-89444304D01*
X146269580Y-89682400D01*
X146317200Y-89825257D01*
X146412438Y-89920495D01*
X146507676Y-89968114D01*
X146698152Y-90015733D01*
X146841009Y-90015733D01*
X147031485Y-89968114D01*
X147126723Y-89920495D01*
X147221961Y-89825257D01*
X147269580Y-89682400D01*
X147269580Y-89444304D01*
X147269580Y-90491923D02*
X147269580Y-90682400D01*
X147221961Y-90777638D01*
X147174342Y-90825257D01*
X147031485Y-90920495D01*
X146841009Y-90968114D01*
X146460057Y-90968114D01*
X146364819Y-90920495D01*
X146317200Y-90872876D01*
X146269580Y-90777638D01*
X146269580Y-90587161D01*
X146317200Y-90491923D01*
X146364819Y-90444304D01*
X146460057Y-90396685D01*
X146698152Y-90396685D01*
X146793390Y-90444304D01*
X146841009Y-90491923D01*
X146888628Y-90587161D01*
X146888628Y-90777638D01*
X146841009Y-90872876D01*
X146793390Y-90920495D01*
X146698152Y-90968114D01*
X148635980Y-81113333D02*
X148159790Y-80780000D01*
X148635980Y-80541904D02*
X147635980Y-80541904D01*
X147635980Y-80922857D01*
X147683600Y-81018095D01*
X147731219Y-81065714D01*
X147826457Y-81113333D01*
X147969314Y-81113333D01*
X148064552Y-81065714D01*
X148112171Y-81018095D01*
X148159790Y-80922857D01*
X148159790Y-80541904D01*
X148064552Y-81684761D02*
X148016933Y-81589523D01*
X147969314Y-81541904D01*
X147874076Y-81494285D01*
X147826457Y-81494285D01*
X147731219Y-81541904D01*
X147683600Y-81589523D01*
X147635980Y-81684761D01*
X147635980Y-81875238D01*
X147683600Y-81970476D01*
X147731219Y-82018095D01*
X147826457Y-82065714D01*
X147874076Y-82065714D01*
X147969314Y-82018095D01*
X148016933Y-81970476D01*
X148064552Y-81875238D01*
X148064552Y-81684761D01*
X148112171Y-81589523D01*
X148159790Y-81541904D01*
X148255028Y-81494285D01*
X148445504Y-81494285D01*
X148540742Y-81541904D01*
X148588361Y-81589523D01*
X148635980Y-81684761D01*
X148635980Y-81875238D01*
X148588361Y-81970476D01*
X148540742Y-82018095D01*
X148445504Y-82065714D01*
X148255028Y-82065714D01*
X148159790Y-82018095D01*
X148112171Y-81970476D01*
X148064552Y-81875238D01*
X150667980Y-81113333D02*
X150191790Y-80780000D01*
X150667980Y-80541904D02*
X149667980Y-80541904D01*
X149667980Y-80922857D01*
X149715600Y-81018095D01*
X149763219Y-81065714D01*
X149858457Y-81113333D01*
X150001314Y-81113333D01*
X150096552Y-81065714D01*
X150144171Y-81018095D01*
X150191790Y-80922857D01*
X150191790Y-80541904D01*
X149667980Y-81446666D02*
X149667980Y-82113333D01*
X150667980Y-81684761D01*
X152750780Y-81164133D02*
X152274590Y-80830800D01*
X152750780Y-80592704D02*
X151750780Y-80592704D01*
X151750780Y-80973657D01*
X151798400Y-81068895D01*
X151846019Y-81116514D01*
X151941257Y-81164133D01*
X152084114Y-81164133D01*
X152179352Y-81116514D01*
X152226971Y-81068895D01*
X152274590Y-80973657D01*
X152274590Y-80592704D01*
X151750780Y-82021276D02*
X151750780Y-81830800D01*
X151798400Y-81735561D01*
X151846019Y-81687942D01*
X151988876Y-81592704D01*
X152179352Y-81545085D01*
X152560304Y-81545085D01*
X152655542Y-81592704D01*
X152703161Y-81640323D01*
X152750780Y-81735561D01*
X152750780Y-81926038D01*
X152703161Y-82021276D01*
X152655542Y-82068895D01*
X152560304Y-82116514D01*
X152322209Y-82116514D01*
X152226971Y-82068895D01*
X152179352Y-82021276D01*
X152131733Y-81926038D01*
X152131733Y-81735561D01*
X152179352Y-81640323D01*
X152226971Y-81592704D01*
X152322209Y-81545085D01*
X123211580Y-76412033D02*
X122735390Y-76078700D01*
X123211580Y-75840604D02*
X122211580Y-75840604D01*
X122211580Y-76221557D01*
X122259200Y-76316795D01*
X122306819Y-76364414D01*
X122402057Y-76412033D01*
X122544914Y-76412033D01*
X122640152Y-76364414D01*
X122687771Y-76316795D01*
X122735390Y-76221557D01*
X122735390Y-75840604D01*
X122211580Y-77316795D02*
X122211580Y-76840604D01*
X122687771Y-76792985D01*
X122640152Y-76840604D01*
X122592533Y-76935842D01*
X122592533Y-77173938D01*
X122640152Y-77269176D01*
X122687771Y-77316795D01*
X122783009Y-77364414D01*
X123021104Y-77364414D01*
X123116342Y-77316795D01*
X123163961Y-77269176D01*
X123211580Y-77173938D01*
X123211580Y-76935842D01*
X123163961Y-76840604D01*
X123116342Y-76792985D01*
X129484380Y-76462833D02*
X129008190Y-76129500D01*
X129484380Y-75891404D02*
X128484380Y-75891404D01*
X128484380Y-76272357D01*
X128532000Y-76367595D01*
X128579619Y-76415214D01*
X128674857Y-76462833D01*
X128817714Y-76462833D01*
X128912952Y-76415214D01*
X128960571Y-76367595D01*
X129008190Y-76272357D01*
X129008190Y-75891404D01*
X128817714Y-77319976D02*
X129484380Y-77319976D01*
X128436761Y-77081880D02*
X129151047Y-76843785D01*
X129151047Y-77462833D01*
X123211580Y-71610104D02*
X122211580Y-71610104D01*
X122211580Y-71848200D01*
X122259200Y-71991057D01*
X122354438Y-72086295D01*
X122449676Y-72133914D01*
X122640152Y-72181533D01*
X122783009Y-72181533D01*
X122973485Y-72133914D01*
X123068723Y-72086295D01*
X123163961Y-71991057D01*
X123211580Y-71848200D01*
X123211580Y-71610104D01*
X122640152Y-72752961D02*
X122592533Y-72657723D01*
X122544914Y-72610104D01*
X122449676Y-72562485D01*
X122402057Y-72562485D01*
X122306819Y-72610104D01*
X122259200Y-72657723D01*
X122211580Y-72752961D01*
X122211580Y-72943438D01*
X122259200Y-73038676D01*
X122306819Y-73086295D01*
X122402057Y-73133914D01*
X122449676Y-73133914D01*
X122544914Y-73086295D01*
X122592533Y-73038676D01*
X122640152Y-72943438D01*
X122640152Y-72752961D01*
X122687771Y-72657723D01*
X122735390Y-72610104D01*
X122830628Y-72562485D01*
X123021104Y-72562485D01*
X123116342Y-72610104D01*
X123163961Y-72657723D01*
X123211580Y-72752961D01*
X123211580Y-72943438D01*
X123163961Y-73038676D01*
X123116342Y-73086295D01*
X123021104Y-73133914D01*
X122830628Y-73133914D01*
X122735390Y-73086295D01*
X122687771Y-73038676D01*
X122640152Y-72943438D01*
X129687580Y-71651904D02*
X128687580Y-71651904D01*
X128687580Y-71890000D01*
X128735200Y-72032857D01*
X128830438Y-72128095D01*
X128925676Y-72175714D01*
X129116152Y-72223333D01*
X129259009Y-72223333D01*
X129449485Y-72175714D01*
X129544723Y-72128095D01*
X129639961Y-72032857D01*
X129687580Y-71890000D01*
X129687580Y-71651904D01*
X128687580Y-72556666D02*
X128687580Y-73223333D01*
X129687580Y-72794761D01*
X129021842Y-97684533D02*
X129069461Y-97636914D01*
X129117080Y-97494057D01*
X129117080Y-97398819D01*
X129069461Y-97255961D01*
X128974223Y-97160723D01*
X128878985Y-97113104D01*
X128688509Y-97065485D01*
X128545652Y-97065485D01*
X128355176Y-97113104D01*
X128259938Y-97160723D01*
X128164700Y-97255961D01*
X128117080Y-97398819D01*
X128117080Y-97494057D01*
X128164700Y-97636914D01*
X128212319Y-97684533D01*
X128117080Y-98303580D02*
X128117080Y-98398819D01*
X128164700Y-98494057D01*
X128212319Y-98541676D01*
X128307557Y-98589295D01*
X128498033Y-98636914D01*
X128736128Y-98636914D01*
X128926604Y-98589295D01*
X129021842Y-98541676D01*
X129069461Y-98494057D01*
X129117080Y-98398819D01*
X129117080Y-98303580D01*
X129069461Y-98208342D01*
X129021842Y-98160723D01*
X128926604Y-98113104D01*
X128736128Y-98065485D01*
X128498033Y-98065485D01*
X128307557Y-98113104D01*
X128212319Y-98160723D01*
X128164700Y-98208342D01*
X128117080Y-98303580D01*
X145363466Y-81559942D02*
X145411085Y-81607561D01*
X145553942Y-81655180D01*
X145649180Y-81655180D01*
X145792038Y-81607561D01*
X145887276Y-81512323D01*
X145934895Y-81417085D01*
X145982514Y-81226609D01*
X145982514Y-81083752D01*
X145934895Y-80893276D01*
X145887276Y-80798038D01*
X145792038Y-80702800D01*
X145649180Y-80655180D01*
X145553942Y-80655180D01*
X145411085Y-80702800D01*
X145363466Y-80750419D01*
X144411085Y-81655180D02*
X144982514Y-81655180D01*
X144696800Y-81655180D02*
X144696800Y-80655180D01*
X144792038Y-80798038D01*
X144887276Y-80893276D01*
X144982514Y-80940895D01*
X135131866Y-81559942D02*
X135179485Y-81607561D01*
X135322342Y-81655180D01*
X135417580Y-81655180D01*
X135560438Y-81607561D01*
X135655676Y-81512323D01*
X135703295Y-81417085D01*
X135750914Y-81226609D01*
X135750914Y-81083752D01*
X135703295Y-80893276D01*
X135655676Y-80798038D01*
X135560438Y-80702800D01*
X135417580Y-80655180D01*
X135322342Y-80655180D01*
X135179485Y-80702800D01*
X135131866Y-80750419D01*
X134750914Y-80750419D02*
X134703295Y-80702800D01*
X134608057Y-80655180D01*
X134369961Y-80655180D01*
X134274723Y-80702800D01*
X134227104Y-80750419D01*
X134179485Y-80845657D01*
X134179485Y-80940895D01*
X134227104Y-81083752D01*
X134798533Y-81655180D01*
X134179485Y-81655180D01*
X141340842Y-98675133D02*
X141388461Y-98627514D01*
X141436080Y-98484657D01*
X141436080Y-98389419D01*
X141388461Y-98246561D01*
X141293223Y-98151323D01*
X141197985Y-98103704D01*
X141007509Y-98056085D01*
X140864652Y-98056085D01*
X140674176Y-98103704D01*
X140578938Y-98151323D01*
X140483700Y-98246561D01*
X140436080Y-98389419D01*
X140436080Y-98484657D01*
X140483700Y-98627514D01*
X140531319Y-98675133D01*
X140436080Y-99008466D02*
X140436080Y-99627514D01*
X140817033Y-99294180D01*
X140817033Y-99437038D01*
X140864652Y-99532276D01*
X140912271Y-99579895D01*
X141007509Y-99627514D01*
X141245604Y-99627514D01*
X141340842Y-99579895D01*
X141388461Y-99532276D01*
X141436080Y-99437038D01*
X141436080Y-99151323D01*
X141388461Y-99056085D01*
X141340842Y-99008466D01*
X137276842Y-98753633D02*
X137324461Y-98706014D01*
X137372080Y-98563157D01*
X137372080Y-98467919D01*
X137324461Y-98325061D01*
X137229223Y-98229823D01*
X137133985Y-98182204D01*
X136943509Y-98134585D01*
X136800652Y-98134585D01*
X136610176Y-98182204D01*
X136514938Y-98229823D01*
X136419700Y-98325061D01*
X136372080Y-98467919D01*
X136372080Y-98563157D01*
X136419700Y-98706014D01*
X136467319Y-98753633D01*
X136372080Y-99610776D02*
X136372080Y-99420300D01*
X136419700Y-99325061D01*
X136467319Y-99277442D01*
X136610176Y-99182204D01*
X136800652Y-99134585D01*
X137181604Y-99134585D01*
X137276842Y-99182204D01*
X137324461Y-99229823D01*
X137372080Y-99325061D01*
X137372080Y-99515538D01*
X137324461Y-99610776D01*
X137276842Y-99658395D01*
X137181604Y-99706014D01*
X136943509Y-99706014D01*
X136848271Y-99658395D01*
X136800652Y-99610776D01*
X136753033Y-99515538D01*
X136753033Y-99325061D01*
X136800652Y-99229823D01*
X136848271Y-99182204D01*
X136943509Y-99134585D01*
X112498095Y-106275380D02*
X112498095Y-105275380D01*
X112260000Y-105275380D01*
X112117142Y-105323000D01*
X112021904Y-105418238D01*
X111974285Y-105513476D01*
X111926666Y-105703952D01*
X111926666Y-105846809D01*
X111974285Y-106037285D01*
X112021904Y-106132523D01*
X112117142Y-106227761D01*
X112260000Y-106275380D01*
X112498095Y-106275380D01*
X110974285Y-106275380D02*
X111545714Y-106275380D01*
X111260000Y-106275380D02*
X111260000Y-105275380D01*
X111355238Y-105418238D01*
X111450476Y-105513476D01*
X111545714Y-105561095D01*
X112497095Y-85955380D02*
X112497095Y-84955380D01*
X112259000Y-84955380D01*
X112116142Y-85003000D01*
X112020904Y-85098238D01*
X111973285Y-85193476D01*
X111925666Y-85383952D01*
X111925666Y-85526809D01*
X111973285Y-85717285D01*
X112020904Y-85812523D01*
X112116142Y-85907761D01*
X112259000Y-85955380D01*
X112497095Y-85955380D01*
X111544714Y-85050619D02*
X111497095Y-85003000D01*
X111401857Y-84955380D01*
X111163761Y-84955380D01*
X111068523Y-85003000D01*
X111020904Y-85050619D01*
X110973285Y-85145857D01*
X110973285Y-85241095D01*
X111020904Y-85383952D01*
X111592333Y-85955380D01*
X110973285Y-85955380D01*
X92178095Y-106522780D02*
X92178095Y-105522780D01*
X91940000Y-105522780D01*
X91797142Y-105570400D01*
X91701904Y-105665638D01*
X91654285Y-105760876D01*
X91606666Y-105951352D01*
X91606666Y-106094209D01*
X91654285Y-106284685D01*
X91701904Y-106379923D01*
X91797142Y-106475161D01*
X91940000Y-106522780D01*
X92178095Y-106522780D01*
X91273333Y-105522780D02*
X90654285Y-105522780D01*
X90987619Y-105903733D01*
X90844761Y-105903733D01*
X90749523Y-105951352D01*
X90701904Y-105998971D01*
X90654285Y-106094209D01*
X90654285Y-106332304D01*
X90701904Y-106427542D01*
X90749523Y-106475161D01*
X90844761Y-106522780D01*
X91130476Y-106522780D01*
X91225714Y-106475161D01*
X91273333Y-106427542D01*
X92127295Y-86405980D02*
X92127295Y-85405980D01*
X91889200Y-85405980D01*
X91746342Y-85453600D01*
X91651104Y-85548838D01*
X91603485Y-85644076D01*
X91555866Y-85834552D01*
X91555866Y-85977409D01*
X91603485Y-86167885D01*
X91651104Y-86263123D01*
X91746342Y-86358361D01*
X91889200Y-86405980D01*
X92127295Y-86405980D01*
X90698723Y-85739314D02*
X90698723Y-86405980D01*
X90936819Y-85358361D02*
X91174914Y-86072647D01*
X90555866Y-86072647D01*
X71732095Y-106725980D02*
X71732095Y-105725980D01*
X71494000Y-105725980D01*
X71351142Y-105773600D01*
X71255904Y-105868838D01*
X71208285Y-105964076D01*
X71160666Y-106154552D01*
X71160666Y-106297409D01*
X71208285Y-106487885D01*
X71255904Y-106583123D01*
X71351142Y-106678361D01*
X71494000Y-106725980D01*
X71732095Y-106725980D01*
X70255904Y-105725980D02*
X70732095Y-105725980D01*
X70779714Y-106202171D01*
X70732095Y-106154552D01*
X70636857Y-106106933D01*
X70398761Y-106106933D01*
X70303523Y-106154552D01*
X70255904Y-106202171D01*
X70208285Y-106297409D01*
X70208285Y-106535504D01*
X70255904Y-106630742D01*
X70303523Y-106678361D01*
X70398761Y-106725980D01*
X70636857Y-106725980D01*
X70732095Y-106678361D01*
X70779714Y-106630742D01*
X71858095Y-86405980D02*
X71858095Y-85405980D01*
X71620000Y-85405980D01*
X71477142Y-85453600D01*
X71381904Y-85548838D01*
X71334285Y-85644076D01*
X71286666Y-85834552D01*
X71286666Y-85977409D01*
X71334285Y-86167885D01*
X71381904Y-86263123D01*
X71477142Y-86358361D01*
X71620000Y-86405980D01*
X71858095Y-86405980D01*
X70429523Y-85405980D02*
X70620000Y-85405980D01*
X70715238Y-85453600D01*
X70762857Y-85501219D01*
X70858095Y-85644076D01*
X70905714Y-85834552D01*
X70905714Y-86215504D01*
X70858095Y-86310742D01*
X70810476Y-86358361D01*
X70715238Y-86405980D01*
X70524761Y-86405980D01*
X70429523Y-86358361D01*
X70381904Y-86310742D01*
X70334285Y-86215504D01*
X70334285Y-85977409D01*
X70381904Y-85882171D01*
X70429523Y-85834552D01*
X70524761Y-85786933D01*
X70715238Y-85786933D01*
X70810476Y-85834552D01*
X70858095Y-85882171D01*
X70905714Y-85977409D01*
X144755471Y-107461266D02*
X144755471Y-107127933D01*
X145279280Y-107127933D02*
X144279280Y-107127933D01*
X144279280Y-107604123D01*
X145279280Y-108508885D02*
X145279280Y-107937457D01*
X145279280Y-108223171D02*
X144279280Y-108223171D01*
X144422138Y-108127933D01*
X144517376Y-108032695D01*
X144564995Y-107937457D01*
X141563033Y-109874680D02*
X141563033Y-110588966D01*
X141610652Y-110731823D01*
X141705890Y-110827061D01*
X141848747Y-110874680D01*
X141943985Y-110874680D01*
X140563033Y-110874680D02*
X141134461Y-110874680D01*
X140848747Y-110874680D02*
X140848747Y-109874680D01*
X140943985Y-110017538D01*
X141039223Y-110112776D01*
X141134461Y-110160395D01*
X141296380Y-79210633D02*
X140820190Y-78877300D01*
X141296380Y-78639204D02*
X140296380Y-78639204D01*
X140296380Y-79020157D01*
X140344000Y-79115395D01*
X140391619Y-79163014D01*
X140486857Y-79210633D01*
X140629714Y-79210633D01*
X140724952Y-79163014D01*
X140772571Y-79115395D01*
X140820190Y-79020157D01*
X140820190Y-78639204D01*
X140296380Y-79829680D02*
X140296380Y-79924919D01*
X140344000Y-80020157D01*
X140391619Y-80067776D01*
X140486857Y-80115395D01*
X140677333Y-80163014D01*
X140915428Y-80163014D01*
X141105904Y-80115395D01*
X141201142Y-80067776D01*
X141248761Y-80020157D01*
X141296380Y-79924919D01*
X141296380Y-79829680D01*
X141248761Y-79734442D01*
X141201142Y-79686823D01*
X141105904Y-79639204D01*
X140915428Y-79591585D01*
X140677333Y-79591585D01*
X140486857Y-79639204D01*
X140391619Y-79686823D01*
X140344000Y-79734442D01*
X140296380Y-79829680D01*
X135096780Y-97646433D02*
X134620590Y-97313100D01*
X135096780Y-97075004D02*
X134096780Y-97075004D01*
X134096780Y-97455957D01*
X134144400Y-97551195D01*
X134192019Y-97598814D01*
X134287257Y-97646433D01*
X134430114Y-97646433D01*
X134525352Y-97598814D01*
X134572971Y-97551195D01*
X134620590Y-97455957D01*
X134620590Y-97075004D01*
X134096780Y-97979766D02*
X134096780Y-98598814D01*
X134477733Y-98265480D01*
X134477733Y-98408338D01*
X134525352Y-98503576D01*
X134572971Y-98551195D01*
X134668209Y-98598814D01*
X134906304Y-98598814D01*
X135001542Y-98551195D01*
X135049161Y-98503576D01*
X135096780Y-98408338D01*
X135096780Y-98122623D01*
X135049161Y-98027385D01*
X135001542Y-97979766D01*
X128877961Y-105346666D02*
X128925580Y-105489523D01*
X128925580Y-105727619D01*
X128877961Y-105822857D01*
X128830342Y-105870476D01*
X128735104Y-105918095D01*
X128639866Y-105918095D01*
X128544628Y-105870476D01*
X128497009Y-105822857D01*
X128449390Y-105727619D01*
X128401771Y-105537142D01*
X128354152Y-105441904D01*
X128306533Y-105394285D01*
X128211295Y-105346666D01*
X128116057Y-105346666D01*
X128020819Y-105394285D01*
X127973200Y-105441904D01*
X127925580Y-105537142D01*
X127925580Y-105775238D01*
X127973200Y-105918095D01*
X127925580Y-106251428D02*
X128925580Y-106489523D01*
X128211295Y-106680000D01*
X128925580Y-106870476D01*
X127925580Y-107108571D01*
X127925580Y-107680000D02*
X127925580Y-107775238D01*
X127973200Y-107870476D01*
X128020819Y-107918095D01*
X128116057Y-107965714D01*
X128306533Y-108013333D01*
X128544628Y-108013333D01*
X128735104Y-107965714D01*
X128830342Y-107918095D01*
X128877961Y-107870476D01*
X128925580Y-107775238D01*
X128925580Y-107680000D01*
X128877961Y-107584761D01*
X128830342Y-107537142D01*
X128735104Y-107489523D01*
X128544628Y-107441904D01*
X128306533Y-107441904D01*
X128116057Y-107489523D01*
X128020819Y-107537142D01*
X127973200Y-107584761D01*
X127925580Y-107680000D01*
X138745980Y-88633395D02*
X139555504Y-88633395D01*
X139650742Y-88681014D01*
X139698361Y-88728633D01*
X139745980Y-88823871D01*
X139745980Y-89014347D01*
X139698361Y-89109585D01*
X139650742Y-89157204D01*
X139555504Y-89204823D01*
X138745980Y-89204823D01*
X139745980Y-90204823D02*
X139745980Y-89633395D01*
X139745980Y-89919109D02*
X138745980Y-89919109D01*
X138888838Y-89823871D01*
X138984076Y-89728633D01*
X139031695Y-89633395D01*
X125237081Y-86870046D02*
X125573799Y-87206764D01*
X125102394Y-86263955D02*
X125237081Y-86870046D01*
X124630990Y-86735359D01*
X124260600Y-87105748D02*
X124193257Y-87173092D01*
X124159585Y-87274107D01*
X124159585Y-87341451D01*
X124193257Y-87442466D01*
X124294272Y-87610825D01*
X124462631Y-87779183D01*
X124630990Y-87880199D01*
X124732005Y-87913870D01*
X124799348Y-87913870D01*
X124900364Y-87880199D01*
X124967707Y-87812855D01*
X125001379Y-87711840D01*
X125001379Y-87644496D01*
X124967707Y-87543481D01*
X124866692Y-87375122D01*
X124698333Y-87206764D01*
X124529974Y-87105748D01*
X124428959Y-87072077D01*
X124361616Y-87072077D01*
X124260600Y-87105748D01*
M02*
