G04 #@! TF.GenerationSoftware,KiCad,Pcbnew,5.1.5-52549c5~84~ubuntu18.04.1*
G04 #@! TF.CreationDate,2020-02-23T16:11:41-08:00*
G04 #@! TF.ProjectId,dotkb_micro,646f746b-625f-46d6-9963-726f2e6b6963,rev?*
G04 #@! TF.SameCoordinates,Original*
G04 #@! TF.FileFunction,Soldermask,Bot*
G04 #@! TF.FilePolarity,Negative*
%FSLAX46Y46*%
G04 Gerber Fmt 4.6, Leading zero omitted, Abs format (unit mm)*
G04 Created by KiCad (PCBNEW 5.1.5-52549c5~84~ubuntu18.04.1) date 2020-02-23 16:11:41*
%MOMM*%
%LPD*%
G04 APERTURE LIST*
%ADD10C,0.100000*%
G04 APERTURE END LIST*
D10*
G36*
X143330500Y-115923100D02*
G01*
X141428900Y-115923100D01*
X141428900Y-113921500D01*
X143330500Y-113921500D01*
X143330500Y-115923100D01*
G37*
G36*
X140230500Y-115923100D02*
G01*
X139128900Y-115923100D01*
X139128900Y-113921500D01*
X140230500Y-113921500D01*
X140230500Y-115923100D01*
G37*
G36*
X138730500Y-115623100D02*
G01*
X136978900Y-115623100D01*
X136978900Y-114221500D01*
X138730500Y-114221500D01*
X138730500Y-115623100D01*
G37*
G36*
X145480500Y-115623100D02*
G01*
X143728900Y-115623100D01*
X143728900Y-114221500D01*
X145480500Y-114221500D01*
X145480500Y-115623100D01*
G37*
G36*
X144480500Y-113173100D02*
G01*
X142953900Y-113173100D01*
X142953900Y-111521500D01*
X144480500Y-111521500D01*
X144480500Y-113173100D01*
G37*
G36*
X139505500Y-113173100D02*
G01*
X137978900Y-113173100D01*
X137978900Y-111521500D01*
X139505500Y-111521500D01*
X139505500Y-113173100D01*
G37*
G36*
X142805500Y-113003100D02*
G01*
X139653900Y-113003100D01*
X139653900Y-111521500D01*
X142805500Y-111521500D01*
X142805500Y-113003100D01*
G37*
G36*
X130763752Y-109090416D02*
G01*
X130927687Y-109158320D01*
X130927689Y-109158321D01*
X131075227Y-109256903D01*
X131200697Y-109382373D01*
X131200698Y-109382375D01*
X131299280Y-109529913D01*
X131367184Y-109693848D01*
X131401800Y-109867877D01*
X131401800Y-110045323D01*
X131367184Y-110219352D01*
X131367183Y-110219354D01*
X131299279Y-110383289D01*
X131200697Y-110530827D01*
X131075227Y-110656297D01*
X130927689Y-110754879D01*
X130927688Y-110754880D01*
X130927687Y-110754880D01*
X130763752Y-110822784D01*
X130589723Y-110857400D01*
X130412277Y-110857400D01*
X130238248Y-110822784D01*
X130074313Y-110754880D01*
X130074312Y-110754880D01*
X130074311Y-110754879D01*
X129926773Y-110656297D01*
X129801303Y-110530827D01*
X129702721Y-110383289D01*
X129634817Y-110219354D01*
X129634816Y-110219352D01*
X129600200Y-110045323D01*
X129600200Y-109867877D01*
X129634816Y-109693848D01*
X129702720Y-109529913D01*
X129801302Y-109382375D01*
X129801303Y-109382373D01*
X129926773Y-109256903D01*
X130074311Y-109158321D01*
X130074313Y-109158320D01*
X130238248Y-109090416D01*
X130412277Y-109055800D01*
X130589723Y-109055800D01*
X130763752Y-109090416D01*
G37*
G36*
X135263752Y-109090416D02*
G01*
X135427687Y-109158320D01*
X135427689Y-109158321D01*
X135575227Y-109256903D01*
X135700697Y-109382373D01*
X135700698Y-109382375D01*
X135799280Y-109529913D01*
X135867184Y-109693848D01*
X135901800Y-109867877D01*
X135901800Y-110045323D01*
X135867184Y-110219352D01*
X135867183Y-110219354D01*
X135799279Y-110383289D01*
X135700697Y-110530827D01*
X135575227Y-110656297D01*
X135427689Y-110754879D01*
X135427688Y-110754880D01*
X135427687Y-110754880D01*
X135263752Y-110822784D01*
X135089723Y-110857400D01*
X134912277Y-110857400D01*
X134738248Y-110822784D01*
X134574313Y-110754880D01*
X134574312Y-110754880D01*
X134574311Y-110754879D01*
X134426773Y-110656297D01*
X134301303Y-110530827D01*
X134202721Y-110383289D01*
X134134817Y-110219354D01*
X134134816Y-110219352D01*
X134100200Y-110045323D01*
X134100200Y-109867877D01*
X134134816Y-109693848D01*
X134202720Y-109529913D01*
X134301302Y-109382375D01*
X134301303Y-109382373D01*
X134426773Y-109256903D01*
X134574311Y-109158321D01*
X134574313Y-109158320D01*
X134738248Y-109090416D01*
X134912277Y-109055800D01*
X135089723Y-109055800D01*
X135263752Y-109090416D01*
G37*
G36*
X147379215Y-108523654D02*
G01*
X147424253Y-108537316D01*
X147465761Y-108559503D01*
X147502141Y-108589359D01*
X147531997Y-108625739D01*
X147554184Y-108667247D01*
X147567846Y-108712285D01*
X147572700Y-108761573D01*
X147572700Y-109627627D01*
X147567846Y-109676915D01*
X147554184Y-109721953D01*
X147531997Y-109763461D01*
X147502141Y-109799841D01*
X147465761Y-109829697D01*
X147424253Y-109851884D01*
X147379215Y-109865546D01*
X147329927Y-109870400D01*
X145963873Y-109870400D01*
X145914585Y-109865546D01*
X145869547Y-109851884D01*
X145828039Y-109829697D01*
X145791659Y-109799841D01*
X145761803Y-109763461D01*
X145739616Y-109721953D01*
X145725954Y-109676915D01*
X145721100Y-109627627D01*
X145721100Y-108761573D01*
X145725954Y-108712285D01*
X145739616Y-108667247D01*
X145761803Y-108625739D01*
X145791659Y-108589359D01*
X145828039Y-108559503D01*
X145869547Y-108537316D01*
X145914585Y-108523654D01*
X145963873Y-108518800D01*
X147329927Y-108518800D01*
X147379215Y-108523654D01*
G37*
G36*
X140203434Y-108331028D02*
G01*
X140249191Y-108344909D01*
X140291356Y-108367446D01*
X140328319Y-108397781D01*
X140358654Y-108434744D01*
X140381191Y-108476909D01*
X140395072Y-108522666D01*
X140400000Y-108572704D01*
X140400000Y-109156096D01*
X140395072Y-109206134D01*
X140381191Y-109251891D01*
X140358654Y-109294056D01*
X140328319Y-109331019D01*
X140291356Y-109361354D01*
X140249191Y-109383891D01*
X140203434Y-109397772D01*
X140153396Y-109402700D01*
X139145004Y-109402700D01*
X139094966Y-109397772D01*
X139049209Y-109383891D01*
X139007044Y-109361354D01*
X138970081Y-109331019D01*
X138939746Y-109294056D01*
X138917209Y-109251891D01*
X138903328Y-109206134D01*
X138898400Y-109156096D01*
X138898400Y-108572704D01*
X138903328Y-108522666D01*
X138917209Y-108476909D01*
X138939746Y-108434744D01*
X138970081Y-108397781D01*
X139007044Y-108367446D01*
X139049209Y-108344909D01*
X139094966Y-108331028D01*
X139145004Y-108326100D01*
X140153396Y-108326100D01*
X140203434Y-108331028D01*
G37*
G36*
X143708634Y-108331028D02*
G01*
X143754391Y-108344909D01*
X143796556Y-108367446D01*
X143833519Y-108397781D01*
X143863854Y-108434744D01*
X143886391Y-108476909D01*
X143900272Y-108522666D01*
X143905200Y-108572704D01*
X143905200Y-109156096D01*
X143900272Y-109206134D01*
X143886391Y-109251891D01*
X143863854Y-109294056D01*
X143833519Y-109331019D01*
X143796556Y-109361354D01*
X143754391Y-109383891D01*
X143708634Y-109397772D01*
X143658596Y-109402700D01*
X142650204Y-109402700D01*
X142600166Y-109397772D01*
X142554409Y-109383891D01*
X142512244Y-109361354D01*
X142475281Y-109331019D01*
X142444946Y-109294056D01*
X142422409Y-109251891D01*
X142408528Y-109206134D01*
X142403600Y-109156096D01*
X142403600Y-108572704D01*
X142408528Y-108522666D01*
X142422409Y-108476909D01*
X142444946Y-108434744D01*
X142475281Y-108397781D01*
X142512244Y-108367446D01*
X142554409Y-108344909D01*
X142600166Y-108331028D01*
X142650204Y-108326100D01*
X143658596Y-108326100D01*
X143708634Y-108331028D01*
G37*
G36*
X69844800Y-108473800D02*
G01*
X68843200Y-108473800D01*
X68843200Y-107172200D01*
X69844800Y-107172200D01*
X69844800Y-108473800D01*
G37*
G36*
X110610800Y-108473800D02*
G01*
X109609200Y-108473800D01*
X109609200Y-107172200D01*
X110610800Y-107172200D01*
X110610800Y-108473800D01*
G37*
G36*
X73144800Y-108473800D02*
G01*
X72143200Y-108473800D01*
X72143200Y-107172200D01*
X73144800Y-107172200D01*
X73144800Y-108473800D01*
G37*
G36*
X113910800Y-108473800D02*
G01*
X112909200Y-108473800D01*
X112909200Y-107172200D01*
X113910800Y-107172200D01*
X113910800Y-108473800D01*
G37*
G36*
X93590800Y-108346800D02*
G01*
X92589200Y-108346800D01*
X92589200Y-107045200D01*
X93590800Y-107045200D01*
X93590800Y-108346800D01*
G37*
G36*
X90290800Y-108346800D02*
G01*
X89289200Y-108346800D01*
X89289200Y-107045200D01*
X90290800Y-107045200D01*
X90290800Y-108346800D01*
G37*
G36*
X143708634Y-106456028D02*
G01*
X143754391Y-106469909D01*
X143796556Y-106492446D01*
X143833519Y-106522781D01*
X143863854Y-106559744D01*
X143886391Y-106601909D01*
X143900272Y-106647666D01*
X143905200Y-106697704D01*
X143905200Y-107281096D01*
X143900272Y-107331134D01*
X143886391Y-107376891D01*
X143863854Y-107419056D01*
X143833519Y-107456019D01*
X143796556Y-107486354D01*
X143754391Y-107508891D01*
X143708634Y-107522772D01*
X143658596Y-107527700D01*
X142650204Y-107527700D01*
X142600166Y-107522772D01*
X142554409Y-107508891D01*
X142512244Y-107486354D01*
X142475281Y-107456019D01*
X142444946Y-107419056D01*
X142422409Y-107376891D01*
X142408528Y-107331134D01*
X142403600Y-107281096D01*
X142403600Y-106697704D01*
X142408528Y-106647666D01*
X142422409Y-106601909D01*
X142444946Y-106559744D01*
X142475281Y-106522781D01*
X142512244Y-106492446D01*
X142554409Y-106469909D01*
X142600166Y-106456028D01*
X142650204Y-106451100D01*
X143658596Y-106451100D01*
X143708634Y-106456028D01*
G37*
G36*
X140203434Y-106456028D02*
G01*
X140249191Y-106469909D01*
X140291356Y-106492446D01*
X140328319Y-106522781D01*
X140358654Y-106559744D01*
X140381191Y-106601909D01*
X140395072Y-106647666D01*
X140400000Y-106697704D01*
X140400000Y-107281096D01*
X140395072Y-107331134D01*
X140381191Y-107376891D01*
X140358654Y-107419056D01*
X140328319Y-107456019D01*
X140291356Y-107486354D01*
X140249191Y-107508891D01*
X140203434Y-107522772D01*
X140153396Y-107527700D01*
X139145004Y-107527700D01*
X139094966Y-107522772D01*
X139049209Y-107508891D01*
X139007044Y-107486354D01*
X138970081Y-107456019D01*
X138939746Y-107419056D01*
X138917209Y-107376891D01*
X138903328Y-107331134D01*
X138898400Y-107281096D01*
X138898400Y-106697704D01*
X138903328Y-106647666D01*
X138917209Y-106601909D01*
X138939746Y-106559744D01*
X138970081Y-106522781D01*
X139007044Y-106492446D01*
X139049209Y-106469909D01*
X139094966Y-106456028D01*
X139145004Y-106451100D01*
X140153396Y-106451100D01*
X140203434Y-106456028D01*
G37*
G36*
X147379215Y-105723654D02*
G01*
X147424253Y-105737316D01*
X147465761Y-105759503D01*
X147502141Y-105789359D01*
X147531997Y-105825739D01*
X147554184Y-105867247D01*
X147567846Y-105912285D01*
X147572700Y-105961573D01*
X147572700Y-106827627D01*
X147567846Y-106876915D01*
X147554184Y-106921953D01*
X147531997Y-106963461D01*
X147502141Y-106999841D01*
X147465761Y-107029697D01*
X147424253Y-107051884D01*
X147379215Y-107065546D01*
X147329927Y-107070400D01*
X145963873Y-107070400D01*
X145914585Y-107065546D01*
X145869547Y-107051884D01*
X145828039Y-107029697D01*
X145791659Y-106999841D01*
X145761803Y-106963461D01*
X145739616Y-106921953D01*
X145725954Y-106876915D01*
X145721100Y-106827627D01*
X145721100Y-105961573D01*
X145725954Y-105912285D01*
X145739616Y-105867247D01*
X145761803Y-105825739D01*
X145791659Y-105789359D01*
X145828039Y-105759503D01*
X145869547Y-105737316D01*
X145914585Y-105723654D01*
X145963873Y-105718800D01*
X147329927Y-105718800D01*
X147379215Y-105723654D01*
G37*
G36*
X112320196Y-100726011D02*
G01*
X112693418Y-100880605D01*
X112860223Y-100992061D01*
X113029310Y-101105041D01*
X113314961Y-101390692D01*
X113314962Y-101390694D01*
X113539397Y-101726584D01*
X113693991Y-102099806D01*
X113772801Y-102496013D01*
X113772801Y-102899989D01*
X113693991Y-103296196D01*
X113539397Y-103669418D01*
X113539396Y-103669419D01*
X113314961Y-104005310D01*
X113029310Y-104290961D01*
X112981685Y-104322783D01*
X112693418Y-104515397D01*
X112320196Y-104669991D01*
X111923989Y-104748801D01*
X111520013Y-104748801D01*
X111123806Y-104669991D01*
X110750584Y-104515397D01*
X110462317Y-104322783D01*
X110414692Y-104290961D01*
X110129041Y-104005310D01*
X109904606Y-103669419D01*
X109904605Y-103669418D01*
X109750011Y-103296196D01*
X109671201Y-102899989D01*
X109671201Y-102496013D01*
X109750011Y-102099806D01*
X109904605Y-101726584D01*
X110129040Y-101390694D01*
X110129041Y-101390692D01*
X110414692Y-101105041D01*
X110583779Y-100992061D01*
X110750584Y-100880605D01*
X111123806Y-100726011D01*
X111520013Y-100647201D01*
X111923989Y-100647201D01*
X112320196Y-100726011D01*
G37*
G36*
X71920196Y-100726011D02*
G01*
X72293418Y-100880605D01*
X72460223Y-100992061D01*
X72629310Y-101105041D01*
X72914961Y-101390692D01*
X72914962Y-101390694D01*
X73139397Y-101726584D01*
X73293991Y-102099806D01*
X73372801Y-102496013D01*
X73372801Y-102899989D01*
X73293991Y-103296196D01*
X73139397Y-103669418D01*
X73139396Y-103669419D01*
X72914961Y-104005310D01*
X72629310Y-104290961D01*
X72581685Y-104322783D01*
X72293418Y-104515397D01*
X71920196Y-104669991D01*
X71523989Y-104748801D01*
X71120013Y-104748801D01*
X70723806Y-104669991D01*
X70350584Y-104515397D01*
X70062317Y-104322783D01*
X70014692Y-104290961D01*
X69729041Y-104005310D01*
X69504606Y-103669419D01*
X69504605Y-103669418D01*
X69350011Y-103296196D01*
X69271201Y-102899989D01*
X69271201Y-102496013D01*
X69350011Y-102099806D01*
X69504605Y-101726584D01*
X69729040Y-101390694D01*
X69729041Y-101390692D01*
X70014692Y-101105041D01*
X70183779Y-100992061D01*
X70350584Y-100880605D01*
X70723806Y-100726011D01*
X71120013Y-100647201D01*
X71523989Y-100647201D01*
X71920196Y-100726011D01*
G37*
G36*
X92120196Y-100726011D02*
G01*
X92493418Y-100880605D01*
X92660223Y-100992061D01*
X92829310Y-101105041D01*
X93114961Y-101390692D01*
X93114962Y-101390694D01*
X93339397Y-101726584D01*
X93493991Y-102099806D01*
X93572801Y-102496013D01*
X93572801Y-102899989D01*
X93493991Y-103296196D01*
X93339397Y-103669418D01*
X93339396Y-103669419D01*
X93114961Y-104005310D01*
X92829310Y-104290961D01*
X92781685Y-104322783D01*
X92493418Y-104515397D01*
X92120196Y-104669991D01*
X91723989Y-104748801D01*
X91320013Y-104748801D01*
X90923806Y-104669991D01*
X90550584Y-104515397D01*
X90262317Y-104322783D01*
X90214692Y-104290961D01*
X89929041Y-104005310D01*
X89704606Y-103669419D01*
X89704605Y-103669418D01*
X89550011Y-103296196D01*
X89471201Y-102899989D01*
X89471201Y-102496013D01*
X89550011Y-102099806D01*
X89704605Y-101726584D01*
X89929040Y-101390694D01*
X89929041Y-101390692D01*
X90214692Y-101105041D01*
X90383779Y-100992061D01*
X90550584Y-100880605D01*
X90923806Y-100726011D01*
X91320013Y-100647201D01*
X91723989Y-100647201D01*
X92120196Y-100726011D01*
G37*
G36*
X135263752Y-102590416D02*
G01*
X135427687Y-102658320D01*
X135427689Y-102658321D01*
X135575227Y-102756903D01*
X135700697Y-102882373D01*
X135753069Y-102960753D01*
X135799280Y-103029913D01*
X135867184Y-103193848D01*
X135901800Y-103367877D01*
X135901800Y-103545323D01*
X135867184Y-103719352D01*
X135867183Y-103719354D01*
X135799279Y-103883289D01*
X135700697Y-104030827D01*
X135575227Y-104156297D01*
X135427689Y-104254879D01*
X135427688Y-104254880D01*
X135427687Y-104254880D01*
X135263752Y-104322784D01*
X135089723Y-104357400D01*
X134912277Y-104357400D01*
X134738248Y-104322784D01*
X134574313Y-104254880D01*
X134574312Y-104254880D01*
X134574311Y-104254879D01*
X134426773Y-104156297D01*
X134301303Y-104030827D01*
X134202721Y-103883289D01*
X134134817Y-103719354D01*
X134134816Y-103719352D01*
X134100200Y-103545323D01*
X134100200Y-103367877D01*
X134134816Y-103193848D01*
X134202720Y-103029913D01*
X134248931Y-102960753D01*
X134301303Y-102882373D01*
X134426773Y-102756903D01*
X134574311Y-102658321D01*
X134574313Y-102658320D01*
X134738248Y-102590416D01*
X134912277Y-102555800D01*
X135089723Y-102555800D01*
X135263752Y-102590416D01*
G37*
G36*
X130763752Y-102590416D02*
G01*
X130927687Y-102658320D01*
X130927689Y-102658321D01*
X131075227Y-102756903D01*
X131200697Y-102882373D01*
X131253069Y-102960753D01*
X131299280Y-103029913D01*
X131367184Y-103193848D01*
X131401800Y-103367877D01*
X131401800Y-103545323D01*
X131367184Y-103719352D01*
X131367183Y-103719354D01*
X131299279Y-103883289D01*
X131200697Y-104030827D01*
X131075227Y-104156297D01*
X130927689Y-104254879D01*
X130927688Y-104254880D01*
X130927687Y-104254880D01*
X130763752Y-104322784D01*
X130589723Y-104357400D01*
X130412277Y-104357400D01*
X130238248Y-104322784D01*
X130074313Y-104254880D01*
X130074312Y-104254880D01*
X130074311Y-104254879D01*
X129926773Y-104156297D01*
X129801303Y-104030827D01*
X129702721Y-103883289D01*
X129634817Y-103719354D01*
X129634816Y-103719352D01*
X129600200Y-103545323D01*
X129600200Y-103367877D01*
X129634816Y-103193848D01*
X129702720Y-103029913D01*
X129748931Y-102960753D01*
X129801303Y-102882373D01*
X129926773Y-102756903D01*
X130074311Y-102658321D01*
X130074313Y-102658320D01*
X130238248Y-102590416D01*
X130412277Y-102555800D01*
X130589723Y-102555800D01*
X130763752Y-102590416D01*
G37*
G36*
X96864753Y-101831817D02*
G01*
X96864756Y-101831818D01*
X96864755Y-101831818D01*
X97028690Y-101899722D01*
X97176228Y-101998304D01*
X97301698Y-102123774D01*
X97301699Y-102123776D01*
X97400281Y-102271314D01*
X97468185Y-102435249D01*
X97502801Y-102609278D01*
X97502801Y-102786724D01*
X97468185Y-102960753D01*
X97468184Y-102960755D01*
X97400280Y-103124690D01*
X97301698Y-103272228D01*
X97176228Y-103397698D01*
X97028690Y-103496280D01*
X97028689Y-103496281D01*
X97028688Y-103496281D01*
X96864753Y-103564185D01*
X96690724Y-103598801D01*
X96513278Y-103598801D01*
X96339249Y-103564185D01*
X96175314Y-103496281D01*
X96175313Y-103496281D01*
X96175312Y-103496280D01*
X96027774Y-103397698D01*
X95902304Y-103272228D01*
X95803722Y-103124690D01*
X95735818Y-102960755D01*
X95735817Y-102960753D01*
X95701201Y-102786724D01*
X95701201Y-102609278D01*
X95735817Y-102435249D01*
X95803721Y-102271314D01*
X95902303Y-102123776D01*
X95902304Y-102123774D01*
X96027774Y-101998304D01*
X96175312Y-101899722D01*
X96339247Y-101831818D01*
X96339246Y-101831818D01*
X96339249Y-101831817D01*
X96513278Y-101797201D01*
X96690724Y-101797201D01*
X96864753Y-101831817D01*
G37*
G36*
X117064753Y-101831817D02*
G01*
X117064756Y-101831818D01*
X117064755Y-101831818D01*
X117228690Y-101899722D01*
X117376228Y-101998304D01*
X117501698Y-102123774D01*
X117501699Y-102123776D01*
X117600281Y-102271314D01*
X117668185Y-102435249D01*
X117702801Y-102609278D01*
X117702801Y-102786724D01*
X117668185Y-102960753D01*
X117668184Y-102960755D01*
X117600280Y-103124690D01*
X117501698Y-103272228D01*
X117376228Y-103397698D01*
X117228690Y-103496280D01*
X117228689Y-103496281D01*
X117228688Y-103496281D01*
X117064753Y-103564185D01*
X116890724Y-103598801D01*
X116713278Y-103598801D01*
X116539249Y-103564185D01*
X116375314Y-103496281D01*
X116375313Y-103496281D01*
X116375312Y-103496280D01*
X116227774Y-103397698D01*
X116102304Y-103272228D01*
X116003722Y-103124690D01*
X115935818Y-102960755D01*
X115935817Y-102960753D01*
X115901201Y-102786724D01*
X115901201Y-102609278D01*
X115935817Y-102435249D01*
X116003721Y-102271314D01*
X116102303Y-102123776D01*
X116102304Y-102123774D01*
X116227774Y-101998304D01*
X116375312Y-101899722D01*
X116539247Y-101831818D01*
X116539246Y-101831818D01*
X116539249Y-101831817D01*
X116713278Y-101797201D01*
X116890724Y-101797201D01*
X117064753Y-101831817D01*
G37*
G36*
X76664753Y-101831817D02*
G01*
X76664756Y-101831818D01*
X76664755Y-101831818D01*
X76828690Y-101899722D01*
X76976228Y-101998304D01*
X77101698Y-102123774D01*
X77101699Y-102123776D01*
X77200281Y-102271314D01*
X77268185Y-102435249D01*
X77302801Y-102609278D01*
X77302801Y-102786724D01*
X77268185Y-102960753D01*
X77268184Y-102960755D01*
X77200280Y-103124690D01*
X77101698Y-103272228D01*
X76976228Y-103397698D01*
X76828690Y-103496280D01*
X76828689Y-103496281D01*
X76828688Y-103496281D01*
X76664753Y-103564185D01*
X76490724Y-103598801D01*
X76313278Y-103598801D01*
X76139249Y-103564185D01*
X75975314Y-103496281D01*
X75975313Y-103496281D01*
X75975312Y-103496280D01*
X75827774Y-103397698D01*
X75702304Y-103272228D01*
X75603722Y-103124690D01*
X75535818Y-102960755D01*
X75535817Y-102960753D01*
X75501201Y-102786724D01*
X75501201Y-102609278D01*
X75535817Y-102435249D01*
X75603721Y-102271314D01*
X75702303Y-102123776D01*
X75702304Y-102123774D01*
X75827774Y-101998304D01*
X75975312Y-101899722D01*
X76139247Y-101831818D01*
X76139246Y-101831818D01*
X76139249Y-101831817D01*
X76313278Y-101797201D01*
X76490724Y-101797201D01*
X76664753Y-101831817D01*
G37*
G36*
X66504753Y-101831817D02*
G01*
X66504756Y-101831818D01*
X66504755Y-101831818D01*
X66668690Y-101899722D01*
X66816228Y-101998304D01*
X66941698Y-102123774D01*
X66941699Y-102123776D01*
X67040281Y-102271314D01*
X67108185Y-102435249D01*
X67142801Y-102609278D01*
X67142801Y-102786724D01*
X67108185Y-102960753D01*
X67108184Y-102960755D01*
X67040280Y-103124690D01*
X66941698Y-103272228D01*
X66816228Y-103397698D01*
X66668690Y-103496280D01*
X66668689Y-103496281D01*
X66668688Y-103496281D01*
X66504753Y-103564185D01*
X66330724Y-103598801D01*
X66153278Y-103598801D01*
X65979249Y-103564185D01*
X65815314Y-103496281D01*
X65815313Y-103496281D01*
X65815312Y-103496280D01*
X65667774Y-103397698D01*
X65542304Y-103272228D01*
X65443722Y-103124690D01*
X65375818Y-102960755D01*
X65375817Y-102960753D01*
X65341201Y-102786724D01*
X65341201Y-102609278D01*
X65375817Y-102435249D01*
X65443721Y-102271314D01*
X65542303Y-102123776D01*
X65542304Y-102123774D01*
X65667774Y-101998304D01*
X65815312Y-101899722D01*
X65979247Y-101831818D01*
X65979246Y-101831818D01*
X65979249Y-101831817D01*
X66153278Y-101797201D01*
X66330724Y-101797201D01*
X66504753Y-101831817D01*
G37*
G36*
X86704753Y-101831817D02*
G01*
X86704756Y-101831818D01*
X86704755Y-101831818D01*
X86868690Y-101899722D01*
X87016228Y-101998304D01*
X87141698Y-102123774D01*
X87141699Y-102123776D01*
X87240281Y-102271314D01*
X87308185Y-102435249D01*
X87342801Y-102609278D01*
X87342801Y-102786724D01*
X87308185Y-102960753D01*
X87308184Y-102960755D01*
X87240280Y-103124690D01*
X87141698Y-103272228D01*
X87016228Y-103397698D01*
X86868690Y-103496280D01*
X86868689Y-103496281D01*
X86868688Y-103496281D01*
X86704753Y-103564185D01*
X86530724Y-103598801D01*
X86353278Y-103598801D01*
X86179249Y-103564185D01*
X86015314Y-103496281D01*
X86015313Y-103496281D01*
X86015312Y-103496280D01*
X85867774Y-103397698D01*
X85742304Y-103272228D01*
X85643722Y-103124690D01*
X85575818Y-102960755D01*
X85575817Y-102960753D01*
X85541201Y-102786724D01*
X85541201Y-102609278D01*
X85575817Y-102435249D01*
X85643721Y-102271314D01*
X85742303Y-102123776D01*
X85742304Y-102123774D01*
X85867774Y-101998304D01*
X86015312Y-101899722D01*
X86179247Y-101831818D01*
X86179246Y-101831818D01*
X86179249Y-101831817D01*
X86353278Y-101797201D01*
X86530724Y-101797201D01*
X86704753Y-101831817D01*
G37*
G36*
X106904753Y-101831817D02*
G01*
X106904756Y-101831818D01*
X106904755Y-101831818D01*
X107068690Y-101899722D01*
X107216228Y-101998304D01*
X107341698Y-102123774D01*
X107341699Y-102123776D01*
X107440281Y-102271314D01*
X107508185Y-102435249D01*
X107542801Y-102609278D01*
X107542801Y-102786724D01*
X107508185Y-102960753D01*
X107508184Y-102960755D01*
X107440280Y-103124690D01*
X107341698Y-103272228D01*
X107216228Y-103397698D01*
X107068690Y-103496280D01*
X107068689Y-103496281D01*
X107068688Y-103496281D01*
X106904753Y-103564185D01*
X106730724Y-103598801D01*
X106553278Y-103598801D01*
X106379249Y-103564185D01*
X106215314Y-103496281D01*
X106215313Y-103496281D01*
X106215312Y-103496280D01*
X106067774Y-103397698D01*
X105942304Y-103272228D01*
X105843722Y-103124690D01*
X105775818Y-102960755D01*
X105775817Y-102960753D01*
X105741201Y-102786724D01*
X105741201Y-102609278D01*
X105775817Y-102435249D01*
X105843721Y-102271314D01*
X105942303Y-102123776D01*
X105942304Y-102123774D01*
X106067774Y-101998304D01*
X106215312Y-101899722D01*
X106379247Y-101831818D01*
X106379246Y-101831818D01*
X106379249Y-101831817D01*
X106553278Y-101797201D01*
X106730724Y-101797201D01*
X106904753Y-101831817D01*
G37*
G36*
X108247675Y-99051425D02*
G01*
X108247678Y-99051426D01*
X108247677Y-99051426D01*
X108457109Y-99138175D01*
X108645593Y-99264116D01*
X108805886Y-99424409D01*
X108931827Y-99612893D01*
X108931827Y-99612894D01*
X109018577Y-99822327D01*
X109062801Y-100044656D01*
X109062801Y-100271346D01*
X109018577Y-100493675D01*
X109018576Y-100493677D01*
X108931827Y-100703109D01*
X108805886Y-100891593D01*
X108645593Y-101051886D01*
X108457109Y-101177827D01*
X108309018Y-101239168D01*
X108247675Y-101264577D01*
X108025346Y-101308801D01*
X107798656Y-101308801D01*
X107576327Y-101264577D01*
X107514984Y-101239168D01*
X107366893Y-101177827D01*
X107178409Y-101051886D01*
X107018116Y-100891593D01*
X106892175Y-100703109D01*
X106805426Y-100493677D01*
X106805425Y-100493675D01*
X106761201Y-100271346D01*
X106761201Y-100044656D01*
X106805425Y-99822327D01*
X106892175Y-99612894D01*
X106892175Y-99612893D01*
X107018116Y-99424409D01*
X107178409Y-99264116D01*
X107366893Y-99138175D01*
X107576325Y-99051426D01*
X107576324Y-99051426D01*
X107576327Y-99051425D01*
X107798656Y-99007201D01*
X108025346Y-99007201D01*
X108247675Y-99051425D01*
G37*
G36*
X88047675Y-99051425D02*
G01*
X88047678Y-99051426D01*
X88047677Y-99051426D01*
X88257109Y-99138175D01*
X88445593Y-99264116D01*
X88605886Y-99424409D01*
X88731827Y-99612893D01*
X88731827Y-99612894D01*
X88818577Y-99822327D01*
X88862801Y-100044656D01*
X88862801Y-100271346D01*
X88818577Y-100493675D01*
X88818576Y-100493677D01*
X88731827Y-100703109D01*
X88605886Y-100891593D01*
X88445593Y-101051886D01*
X88257109Y-101177827D01*
X88109018Y-101239168D01*
X88047675Y-101264577D01*
X87825346Y-101308801D01*
X87598656Y-101308801D01*
X87376327Y-101264577D01*
X87314984Y-101239168D01*
X87166893Y-101177827D01*
X86978409Y-101051886D01*
X86818116Y-100891593D01*
X86692175Y-100703109D01*
X86605426Y-100493677D01*
X86605425Y-100493675D01*
X86561201Y-100271346D01*
X86561201Y-100044656D01*
X86605425Y-99822327D01*
X86692175Y-99612894D01*
X86692175Y-99612893D01*
X86818116Y-99424409D01*
X86978409Y-99264116D01*
X87166893Y-99138175D01*
X87376325Y-99051426D01*
X87376324Y-99051426D01*
X87376327Y-99051425D01*
X87598656Y-99007201D01*
X87825346Y-99007201D01*
X88047675Y-99051425D01*
G37*
G36*
X67847675Y-99051425D02*
G01*
X67847678Y-99051426D01*
X67847677Y-99051426D01*
X68057109Y-99138175D01*
X68245593Y-99264116D01*
X68405886Y-99424409D01*
X68531827Y-99612893D01*
X68531827Y-99612894D01*
X68618577Y-99822327D01*
X68662801Y-100044656D01*
X68662801Y-100271346D01*
X68618577Y-100493675D01*
X68618576Y-100493677D01*
X68531827Y-100703109D01*
X68405886Y-100891593D01*
X68245593Y-101051886D01*
X68057109Y-101177827D01*
X67909018Y-101239168D01*
X67847675Y-101264577D01*
X67625346Y-101308801D01*
X67398656Y-101308801D01*
X67176327Y-101264577D01*
X67114984Y-101239168D01*
X66966893Y-101177827D01*
X66778409Y-101051886D01*
X66618116Y-100891593D01*
X66492175Y-100703109D01*
X66405426Y-100493677D01*
X66405425Y-100493675D01*
X66361201Y-100271346D01*
X66361201Y-100044656D01*
X66405425Y-99822327D01*
X66492175Y-99612894D01*
X66492175Y-99612893D01*
X66618116Y-99424409D01*
X66778409Y-99264116D01*
X66966893Y-99138175D01*
X67176325Y-99051426D01*
X67176324Y-99051426D01*
X67176327Y-99051425D01*
X67398656Y-99007201D01*
X67625346Y-99007201D01*
X67847675Y-99051425D01*
G37*
G36*
X139123934Y-99324428D02*
G01*
X139169691Y-99338309D01*
X139211856Y-99360846D01*
X139248819Y-99391181D01*
X139279154Y-99428144D01*
X139301691Y-99470309D01*
X139315572Y-99516066D01*
X139320500Y-99566104D01*
X139320500Y-100149496D01*
X139315572Y-100199534D01*
X139301691Y-100245291D01*
X139279154Y-100287456D01*
X139248819Y-100324419D01*
X139211856Y-100354754D01*
X139169691Y-100377291D01*
X139123934Y-100391172D01*
X139073896Y-100396100D01*
X138065504Y-100396100D01*
X138015466Y-100391172D01*
X137969709Y-100377291D01*
X137927544Y-100354754D01*
X137890581Y-100324419D01*
X137860246Y-100287456D01*
X137837709Y-100245291D01*
X137823828Y-100199534D01*
X137818900Y-100149496D01*
X137818900Y-99566104D01*
X137823828Y-99516066D01*
X137837709Y-99470309D01*
X137860246Y-99428144D01*
X137890581Y-99391181D01*
X137927544Y-99360846D01*
X137969709Y-99338309D01*
X138015466Y-99324428D01*
X138065504Y-99319500D01*
X139073896Y-99319500D01*
X139123934Y-99324428D01*
G37*
G36*
X143187934Y-99245928D02*
G01*
X143233691Y-99259809D01*
X143275856Y-99282346D01*
X143312819Y-99312681D01*
X143343154Y-99349644D01*
X143365691Y-99391809D01*
X143379572Y-99437566D01*
X143384500Y-99487604D01*
X143384500Y-100070996D01*
X143379572Y-100121034D01*
X143365691Y-100166791D01*
X143343154Y-100208956D01*
X143312819Y-100245919D01*
X143275856Y-100276254D01*
X143233691Y-100298791D01*
X143187934Y-100312672D01*
X143137896Y-100317600D01*
X142129504Y-100317600D01*
X142079466Y-100312672D01*
X142033709Y-100298791D01*
X141991544Y-100276254D01*
X141954581Y-100245919D01*
X141924246Y-100208956D01*
X141901709Y-100166791D01*
X141887828Y-100121034D01*
X141882900Y-100070996D01*
X141882900Y-99487604D01*
X141887828Y-99437566D01*
X141901709Y-99391809D01*
X141924246Y-99349644D01*
X141954581Y-99312681D01*
X141991544Y-99282346D01*
X142033709Y-99259809D01*
X142079466Y-99245928D01*
X142129504Y-99241000D01*
X143137896Y-99241000D01*
X143187934Y-99245928D01*
G37*
G36*
X130868934Y-98255328D02*
G01*
X130914691Y-98269209D01*
X130956856Y-98291746D01*
X130993819Y-98322081D01*
X131024154Y-98359044D01*
X131046691Y-98401209D01*
X131060572Y-98446966D01*
X131065500Y-98497004D01*
X131065500Y-99080396D01*
X131060572Y-99130434D01*
X131046691Y-99176191D01*
X131024154Y-99218356D01*
X130993819Y-99255319D01*
X130956856Y-99285654D01*
X130914691Y-99308191D01*
X130868934Y-99322072D01*
X130818896Y-99327000D01*
X129810504Y-99327000D01*
X129760466Y-99322072D01*
X129714709Y-99308191D01*
X129672544Y-99285654D01*
X129635581Y-99255319D01*
X129605246Y-99218356D01*
X129582709Y-99176191D01*
X129568828Y-99130434D01*
X129563900Y-99080396D01*
X129563900Y-98497004D01*
X129568828Y-98446966D01*
X129582709Y-98401209D01*
X129605246Y-98359044D01*
X129635581Y-98322081D01*
X129672544Y-98291746D01*
X129714709Y-98269209D01*
X129760466Y-98255328D01*
X129810504Y-98250400D01*
X130818896Y-98250400D01*
X130868934Y-98255328D01*
G37*
G36*
X133548634Y-98217228D02*
G01*
X133594391Y-98231109D01*
X133636556Y-98253646D01*
X133673519Y-98283981D01*
X133703854Y-98320944D01*
X133726391Y-98363109D01*
X133740272Y-98408866D01*
X133745200Y-98458904D01*
X133745200Y-99042296D01*
X133740272Y-99092334D01*
X133726391Y-99138091D01*
X133703854Y-99180256D01*
X133673519Y-99217219D01*
X133636556Y-99247554D01*
X133594391Y-99270091D01*
X133548634Y-99283972D01*
X133498596Y-99288900D01*
X132490204Y-99288900D01*
X132440166Y-99283972D01*
X132394409Y-99270091D01*
X132352244Y-99247554D01*
X132315281Y-99217219D01*
X132284946Y-99180256D01*
X132262409Y-99138091D01*
X132248528Y-99092334D01*
X132243600Y-99042296D01*
X132243600Y-98458904D01*
X132248528Y-98408866D01*
X132262409Y-98363109D01*
X132284946Y-98320944D01*
X132315281Y-98283981D01*
X132352244Y-98253646D01*
X132394409Y-98231109D01*
X132440166Y-98217228D01*
X132490204Y-98212300D01*
X133498596Y-98212300D01*
X133548634Y-98217228D01*
G37*
G36*
X74197675Y-96511425D02*
G01*
X74197678Y-96511426D01*
X74197677Y-96511426D01*
X74407109Y-96598175D01*
X74595593Y-96724116D01*
X74755886Y-96884409D01*
X74881827Y-97072893D01*
X74881827Y-97072894D01*
X74968577Y-97282327D01*
X75012801Y-97504656D01*
X75012801Y-97731346D01*
X74968577Y-97953675D01*
X74968576Y-97953677D01*
X74881827Y-98163109D01*
X74755886Y-98351593D01*
X74595593Y-98511886D01*
X74407109Y-98637827D01*
X74259018Y-98699168D01*
X74197675Y-98724577D01*
X73975346Y-98768801D01*
X73748656Y-98768801D01*
X73526327Y-98724577D01*
X73464984Y-98699168D01*
X73316893Y-98637827D01*
X73128409Y-98511886D01*
X72968116Y-98351593D01*
X72842175Y-98163109D01*
X72755426Y-97953677D01*
X72755425Y-97953675D01*
X72711201Y-97731346D01*
X72711201Y-97504656D01*
X72755425Y-97282327D01*
X72842175Y-97072894D01*
X72842175Y-97072893D01*
X72968116Y-96884409D01*
X73128409Y-96724116D01*
X73316893Y-96598175D01*
X73526325Y-96511426D01*
X73526324Y-96511426D01*
X73526327Y-96511425D01*
X73748656Y-96467201D01*
X73975346Y-96467201D01*
X74197675Y-96511425D01*
G37*
G36*
X94397675Y-96511425D02*
G01*
X94397678Y-96511426D01*
X94397677Y-96511426D01*
X94607109Y-96598175D01*
X94795593Y-96724116D01*
X94955886Y-96884409D01*
X95081827Y-97072893D01*
X95081827Y-97072894D01*
X95168577Y-97282327D01*
X95212801Y-97504656D01*
X95212801Y-97731346D01*
X95168577Y-97953675D01*
X95168576Y-97953677D01*
X95081827Y-98163109D01*
X94955886Y-98351593D01*
X94795593Y-98511886D01*
X94607109Y-98637827D01*
X94459018Y-98699168D01*
X94397675Y-98724577D01*
X94175346Y-98768801D01*
X93948656Y-98768801D01*
X93726327Y-98724577D01*
X93664984Y-98699168D01*
X93516893Y-98637827D01*
X93328409Y-98511886D01*
X93168116Y-98351593D01*
X93042175Y-98163109D01*
X92955426Y-97953677D01*
X92955425Y-97953675D01*
X92911201Y-97731346D01*
X92911201Y-97504656D01*
X92955425Y-97282327D01*
X93042175Y-97072894D01*
X93042175Y-97072893D01*
X93168116Y-96884409D01*
X93328409Y-96724116D01*
X93516893Y-96598175D01*
X93726325Y-96511426D01*
X93726324Y-96511426D01*
X93726327Y-96511425D01*
X93948656Y-96467201D01*
X94175346Y-96467201D01*
X94397675Y-96511425D01*
G37*
G36*
X114597675Y-96511425D02*
G01*
X114597678Y-96511426D01*
X114597677Y-96511426D01*
X114807109Y-96598175D01*
X114995593Y-96724116D01*
X115155886Y-96884409D01*
X115281827Y-97072893D01*
X115281827Y-97072894D01*
X115368577Y-97282327D01*
X115412801Y-97504656D01*
X115412801Y-97731346D01*
X115368577Y-97953675D01*
X115368576Y-97953677D01*
X115281827Y-98163109D01*
X115155886Y-98351593D01*
X114995593Y-98511886D01*
X114807109Y-98637827D01*
X114659018Y-98699168D01*
X114597675Y-98724577D01*
X114375346Y-98768801D01*
X114148656Y-98768801D01*
X113926327Y-98724577D01*
X113864984Y-98699168D01*
X113716893Y-98637827D01*
X113528409Y-98511886D01*
X113368116Y-98351593D01*
X113242175Y-98163109D01*
X113155426Y-97953677D01*
X113155425Y-97953675D01*
X113111201Y-97731346D01*
X113111201Y-97504656D01*
X113155425Y-97282327D01*
X113242175Y-97072894D01*
X113242175Y-97072893D01*
X113368116Y-96884409D01*
X113528409Y-96724116D01*
X113716893Y-96598175D01*
X113926325Y-96511426D01*
X113926324Y-96511426D01*
X113926327Y-96511425D01*
X114148656Y-96467201D01*
X114375346Y-96467201D01*
X114597675Y-96511425D01*
G37*
G36*
X139123934Y-97449428D02*
G01*
X139169691Y-97463309D01*
X139211856Y-97485846D01*
X139248819Y-97516181D01*
X139279154Y-97553144D01*
X139301691Y-97595309D01*
X139315572Y-97641066D01*
X139320500Y-97691104D01*
X139320500Y-98274496D01*
X139315572Y-98324534D01*
X139301691Y-98370291D01*
X139279154Y-98412456D01*
X139248819Y-98449419D01*
X139211856Y-98479754D01*
X139169691Y-98502291D01*
X139123934Y-98516172D01*
X139073896Y-98521100D01*
X138065504Y-98521100D01*
X138015466Y-98516172D01*
X137969709Y-98502291D01*
X137927544Y-98479754D01*
X137890581Y-98449419D01*
X137860246Y-98412456D01*
X137837709Y-98370291D01*
X137823828Y-98324534D01*
X137818900Y-98274496D01*
X137818900Y-97691104D01*
X137823828Y-97641066D01*
X137837709Y-97595309D01*
X137860246Y-97553144D01*
X137890581Y-97516181D01*
X137927544Y-97485846D01*
X137969709Y-97463309D01*
X138015466Y-97449428D01*
X138065504Y-97444500D01*
X139073896Y-97444500D01*
X139123934Y-97449428D01*
G37*
G36*
X143187934Y-97370928D02*
G01*
X143233691Y-97384809D01*
X143275856Y-97407346D01*
X143312819Y-97437681D01*
X143343154Y-97474644D01*
X143365691Y-97516809D01*
X143379572Y-97562566D01*
X143384500Y-97612604D01*
X143384500Y-98195996D01*
X143379572Y-98246034D01*
X143365691Y-98291791D01*
X143343154Y-98333956D01*
X143312819Y-98370919D01*
X143275856Y-98401254D01*
X143233691Y-98423791D01*
X143187934Y-98437672D01*
X143137896Y-98442600D01*
X142129504Y-98442600D01*
X142079466Y-98437672D01*
X142033709Y-98423791D01*
X141991544Y-98401254D01*
X141954581Y-98370919D01*
X141924246Y-98333956D01*
X141901709Y-98291791D01*
X141887828Y-98246034D01*
X141882900Y-98195996D01*
X141882900Y-97612604D01*
X141887828Y-97562566D01*
X141901709Y-97516809D01*
X141924246Y-97474644D01*
X141954581Y-97437681D01*
X141991544Y-97407346D01*
X142033709Y-97384809D01*
X142079466Y-97370928D01*
X142129504Y-97366000D01*
X143137896Y-97366000D01*
X143187934Y-97370928D01*
G37*
G36*
X130868934Y-96380328D02*
G01*
X130914691Y-96394209D01*
X130956856Y-96416746D01*
X130993819Y-96447081D01*
X131024154Y-96484044D01*
X131046691Y-96526209D01*
X131060572Y-96571966D01*
X131065500Y-96622004D01*
X131065500Y-97205396D01*
X131060572Y-97255434D01*
X131046691Y-97301191D01*
X131024154Y-97343356D01*
X130993819Y-97380319D01*
X130956856Y-97410654D01*
X130914691Y-97433191D01*
X130868934Y-97447072D01*
X130818896Y-97452000D01*
X129810504Y-97452000D01*
X129760466Y-97447072D01*
X129714709Y-97433191D01*
X129672544Y-97410654D01*
X129635581Y-97380319D01*
X129605246Y-97343356D01*
X129582709Y-97301191D01*
X129568828Y-97255434D01*
X129563900Y-97205396D01*
X129563900Y-96622004D01*
X129568828Y-96571966D01*
X129582709Y-96526209D01*
X129605246Y-96484044D01*
X129635581Y-96447081D01*
X129672544Y-96416746D01*
X129714709Y-96394209D01*
X129760466Y-96380328D01*
X129810504Y-96375400D01*
X130818896Y-96375400D01*
X130868934Y-96380328D01*
G37*
G36*
X133548634Y-96342228D02*
G01*
X133594391Y-96356109D01*
X133636556Y-96378646D01*
X133673519Y-96408981D01*
X133703854Y-96445944D01*
X133726391Y-96488109D01*
X133740272Y-96533866D01*
X133745200Y-96583904D01*
X133745200Y-97167296D01*
X133740272Y-97217334D01*
X133726391Y-97263091D01*
X133703854Y-97305256D01*
X133673519Y-97342219D01*
X133636556Y-97372554D01*
X133594391Y-97395091D01*
X133548634Y-97408972D01*
X133498596Y-97413900D01*
X132490204Y-97413900D01*
X132440166Y-97408972D01*
X132394409Y-97395091D01*
X132352244Y-97372554D01*
X132315281Y-97342219D01*
X132284946Y-97305256D01*
X132262409Y-97263091D01*
X132248528Y-97217334D01*
X132243600Y-97167296D01*
X132243600Y-96583904D01*
X132248528Y-96533866D01*
X132262409Y-96488109D01*
X132284946Y-96445944D01*
X132315281Y-96408981D01*
X132352244Y-96378646D01*
X132394409Y-96356109D01*
X132440166Y-96342228D01*
X132490204Y-96337300D01*
X133498596Y-96337300D01*
X133548634Y-96342228D01*
G37*
G36*
X140457500Y-95896100D02*
G01*
X139805900Y-95896100D01*
X139805900Y-94294500D01*
X140457500Y-94294500D01*
X140457500Y-95896100D01*
G37*
G36*
X141257500Y-95896100D02*
G01*
X140605900Y-95896100D01*
X140605900Y-94294500D01*
X141257500Y-94294500D01*
X141257500Y-95896100D01*
G37*
G36*
X139657500Y-95896100D02*
G01*
X139005900Y-95896100D01*
X139005900Y-94294500D01*
X139657500Y-94294500D01*
X139657500Y-95896100D01*
G37*
G36*
X138857500Y-95896100D02*
G01*
X138205900Y-95896100D01*
X138205900Y-94294500D01*
X138857500Y-94294500D01*
X138857500Y-95896100D01*
G37*
G36*
X138057500Y-95896100D02*
G01*
X137405900Y-95896100D01*
X137405900Y-94294500D01*
X138057500Y-94294500D01*
X138057500Y-95896100D01*
G37*
G36*
X142857500Y-95896100D02*
G01*
X142205900Y-95896100D01*
X142205900Y-94294500D01*
X142857500Y-94294500D01*
X142857500Y-95896100D01*
G37*
G36*
X135657500Y-95896100D02*
G01*
X135005900Y-95896100D01*
X135005900Y-94294500D01*
X135657500Y-94294500D01*
X135657500Y-95896100D01*
G37*
G36*
X142057500Y-95896100D02*
G01*
X141405900Y-95896100D01*
X141405900Y-94294500D01*
X142057500Y-94294500D01*
X142057500Y-95896100D01*
G37*
G36*
X143657500Y-95896100D02*
G01*
X143005900Y-95896100D01*
X143005900Y-94294500D01*
X143657500Y-94294500D01*
X143657500Y-95896100D01*
G37*
G36*
X137257500Y-95896100D02*
G01*
X136605900Y-95896100D01*
X136605900Y-94294500D01*
X137257500Y-94294500D01*
X137257500Y-95896100D01*
G37*
G36*
X136457500Y-95896100D02*
G01*
X135805900Y-95896100D01*
X135805900Y-94294500D01*
X136457500Y-94294500D01*
X136457500Y-95896100D01*
G37*
G36*
X134432500Y-93721100D02*
G01*
X132830900Y-93721100D01*
X132830900Y-93069500D01*
X134432500Y-93069500D01*
X134432500Y-93721100D01*
G37*
G36*
X145832500Y-93721100D02*
G01*
X144230900Y-93721100D01*
X144230900Y-93069500D01*
X145832500Y-93069500D01*
X145832500Y-93721100D01*
G37*
G36*
X149218000Y-93633200D02*
G01*
X148016400Y-93633200D01*
X148016400Y-91531600D01*
X149218000Y-91531600D01*
X149218000Y-93633200D01*
G37*
G36*
X150918000Y-93633200D02*
G01*
X149716400Y-93633200D01*
X149716400Y-91531600D01*
X150918000Y-91531600D01*
X150918000Y-93633200D01*
G37*
G36*
X152618000Y-93633200D02*
G01*
X151416400Y-93633200D01*
X151416400Y-91531600D01*
X152618000Y-91531600D01*
X152618000Y-93633200D01*
G37*
G36*
X126904501Y-93135726D02*
G01*
X126918600Y-93140003D01*
X126931597Y-93146950D01*
X126932719Y-93147871D01*
X126940868Y-93153317D01*
X126949924Y-93157068D01*
X126959537Y-93158981D01*
X126969338Y-93158981D01*
X126978952Y-93157070D01*
X126988007Y-93153319D01*
X126996161Y-93147871D01*
X126997283Y-93146950D01*
X127010280Y-93140003D01*
X127024379Y-93135726D01*
X127041496Y-93134040D01*
X127387384Y-93134040D01*
X127404501Y-93135726D01*
X127418600Y-93140003D01*
X127431597Y-93146950D01*
X127442984Y-93156296D01*
X127452330Y-93167683D01*
X127459277Y-93180680D01*
X127463554Y-93194779D01*
X127465240Y-93211896D01*
X127465240Y-93457784D01*
X127463554Y-93474901D01*
X127459277Y-93489000D01*
X127452330Y-93501997D01*
X127442984Y-93513384D01*
X127431597Y-93522730D01*
X127418600Y-93529677D01*
X127404501Y-93533954D01*
X127387384Y-93535640D01*
X127041496Y-93535640D01*
X127024379Y-93533954D01*
X127010280Y-93529677D01*
X126997283Y-93522730D01*
X126996161Y-93521809D01*
X126988012Y-93516363D01*
X126978956Y-93512612D01*
X126969343Y-93510699D01*
X126959542Y-93510699D01*
X126949928Y-93512610D01*
X126940873Y-93516361D01*
X126932719Y-93521809D01*
X126931597Y-93522730D01*
X126918600Y-93529677D01*
X126904501Y-93533954D01*
X126887384Y-93535640D01*
X126541496Y-93535640D01*
X126524379Y-93533954D01*
X126510280Y-93529677D01*
X126497283Y-93522730D01*
X126485896Y-93513384D01*
X126476550Y-93501997D01*
X126469603Y-93489000D01*
X126465326Y-93474901D01*
X126463640Y-93457784D01*
X126463640Y-93211896D01*
X126465326Y-93194779D01*
X126469603Y-93180680D01*
X126476550Y-93167683D01*
X126485896Y-93156296D01*
X126497283Y-93146950D01*
X126510280Y-93140003D01*
X126524379Y-93135726D01*
X126541496Y-93134040D01*
X126887384Y-93134040D01*
X126904501Y-93135726D01*
G37*
G36*
X145832500Y-92921100D02*
G01*
X144230900Y-92921100D01*
X144230900Y-92269500D01*
X145832500Y-92269500D01*
X145832500Y-92921100D01*
G37*
G36*
X134432500Y-92921100D02*
G01*
X132830900Y-92921100D01*
X132830900Y-92269500D01*
X134432500Y-92269500D01*
X134432500Y-92921100D01*
G37*
G36*
X145832500Y-92121100D02*
G01*
X144230900Y-92121100D01*
X144230900Y-91469500D01*
X145832500Y-91469500D01*
X145832500Y-92121100D01*
G37*
G36*
X134432500Y-92121100D02*
G01*
X132830900Y-92121100D01*
X132830900Y-91469500D01*
X134432500Y-91469500D01*
X134432500Y-92121100D01*
G37*
G36*
X128117058Y-90795092D02*
G01*
X127196688Y-91715462D01*
X126134896Y-90653670D01*
X127055266Y-89733300D01*
X128117058Y-90795092D01*
G37*
G36*
X145832500Y-91321100D02*
G01*
X144230900Y-91321100D01*
X144230900Y-90669500D01*
X145832500Y-90669500D01*
X145832500Y-91321100D01*
G37*
G36*
X134432500Y-91321100D02*
G01*
X132830900Y-91321100D01*
X132830900Y-90669500D01*
X134432500Y-90669500D01*
X134432500Y-91321100D01*
G37*
G36*
X134432500Y-90521100D02*
G01*
X132830900Y-90521100D01*
X132830900Y-89869500D01*
X134432500Y-89869500D01*
X134432500Y-90521100D01*
G37*
G36*
X145832500Y-90521100D02*
G01*
X144230900Y-90521100D01*
X144230900Y-89869500D01*
X145832500Y-89869500D01*
X145832500Y-90521100D01*
G37*
G36*
X129319139Y-89593011D02*
G01*
X128398769Y-90513381D01*
X127336977Y-89451589D01*
X128257347Y-88531219D01*
X129319139Y-89593011D01*
G37*
G36*
X126561423Y-89239457D02*
G01*
X125641053Y-90159827D01*
X124579261Y-89098035D01*
X125499631Y-88177665D01*
X126561423Y-89239457D01*
G37*
G36*
X145832500Y-89721100D02*
G01*
X144230900Y-89721100D01*
X144230900Y-89069500D01*
X145832500Y-89069500D01*
X145832500Y-89721100D01*
G37*
G36*
X134432500Y-89721100D02*
G01*
X132830900Y-89721100D01*
X132830900Y-89069500D01*
X134432500Y-89069500D01*
X134432500Y-89721100D01*
G37*
G36*
X127763504Y-88037376D02*
G01*
X126843134Y-88957746D01*
X125781342Y-87895954D01*
X126701712Y-86975584D01*
X127763504Y-88037376D01*
G37*
G36*
X145832500Y-88921100D02*
G01*
X144230900Y-88921100D01*
X144230900Y-88269500D01*
X145832500Y-88269500D01*
X145832500Y-88921100D01*
G37*
G36*
X134432500Y-88921100D02*
G01*
X132830900Y-88921100D01*
X132830900Y-88269500D01*
X134432500Y-88269500D01*
X134432500Y-88921100D01*
G37*
G36*
X149218000Y-88833200D02*
G01*
X148016400Y-88833200D01*
X148016400Y-86731600D01*
X149218000Y-86731600D01*
X149218000Y-88833200D01*
G37*
G36*
X152618000Y-88833200D02*
G01*
X151416400Y-88833200D01*
X151416400Y-86731600D01*
X152618000Y-86731600D01*
X152618000Y-88833200D01*
G37*
G36*
X150918000Y-88833200D02*
G01*
X149716400Y-88833200D01*
X149716400Y-86731600D01*
X150918000Y-86731600D01*
X150918000Y-88833200D01*
G37*
G36*
X113909800Y-88153800D02*
G01*
X112908200Y-88153800D01*
X112908200Y-86852200D01*
X113909800Y-86852200D01*
X113909800Y-88153800D01*
G37*
G36*
X90289800Y-88153800D02*
G01*
X89288200Y-88153800D01*
X89288200Y-86852200D01*
X90289800Y-86852200D01*
X90289800Y-88153800D01*
G37*
G36*
X93589800Y-88153800D02*
G01*
X92588200Y-88153800D01*
X92588200Y-86852200D01*
X93589800Y-86852200D01*
X93589800Y-88153800D01*
G37*
G36*
X110609800Y-88153800D02*
G01*
X109608200Y-88153800D01*
X109608200Y-86852200D01*
X110609800Y-86852200D01*
X110609800Y-88153800D01*
G37*
G36*
X69971800Y-88153800D02*
G01*
X68970200Y-88153800D01*
X68970200Y-86852200D01*
X69971800Y-86852200D01*
X69971800Y-88153800D01*
G37*
G36*
X73271800Y-88153800D02*
G01*
X72270200Y-88153800D01*
X72270200Y-86852200D01*
X73271800Y-86852200D01*
X73271800Y-88153800D01*
G37*
G36*
X145832500Y-88121100D02*
G01*
X144230900Y-88121100D01*
X144230900Y-87469500D01*
X145832500Y-87469500D01*
X145832500Y-88121100D01*
G37*
G36*
X134432500Y-88121100D02*
G01*
X132830900Y-88121100D01*
X132830900Y-87469500D01*
X134432500Y-87469500D01*
X134432500Y-88121100D01*
G37*
G36*
X134432500Y-87321100D02*
G01*
X132830900Y-87321100D01*
X132830900Y-86669500D01*
X134432500Y-86669500D01*
X134432500Y-87321100D01*
G37*
G36*
X145832500Y-87321100D02*
G01*
X144230900Y-87321100D01*
X144230900Y-86669500D01*
X145832500Y-86669500D01*
X145832500Y-87321100D01*
G37*
G36*
X145832500Y-86521100D02*
G01*
X144230900Y-86521100D01*
X144230900Y-85869500D01*
X145832500Y-85869500D01*
X145832500Y-86521100D01*
G37*
G36*
X134432500Y-86521100D02*
G01*
X132830900Y-86521100D01*
X132830900Y-85869500D01*
X134432500Y-85869500D01*
X134432500Y-86521100D01*
G37*
G36*
X145832500Y-85721100D02*
G01*
X144230900Y-85721100D01*
X144230900Y-85069500D01*
X145832500Y-85069500D01*
X145832500Y-85721100D01*
G37*
G36*
X134432500Y-85721100D02*
G01*
X132830900Y-85721100D01*
X132830900Y-85069500D01*
X134432500Y-85069500D01*
X134432500Y-85721100D01*
G37*
G36*
X126990861Y-85246486D02*
G01*
X127004960Y-85250763D01*
X127017957Y-85257710D01*
X127019079Y-85258631D01*
X127027228Y-85264077D01*
X127036284Y-85267828D01*
X127045897Y-85269741D01*
X127055698Y-85269741D01*
X127065312Y-85267830D01*
X127074367Y-85264079D01*
X127082521Y-85258631D01*
X127083643Y-85257710D01*
X127096640Y-85250763D01*
X127110739Y-85246486D01*
X127127856Y-85244800D01*
X127473744Y-85244800D01*
X127490861Y-85246486D01*
X127504960Y-85250763D01*
X127517957Y-85257710D01*
X127529344Y-85267056D01*
X127538690Y-85278443D01*
X127545637Y-85291440D01*
X127549914Y-85305539D01*
X127551600Y-85322656D01*
X127551600Y-85568544D01*
X127549914Y-85585661D01*
X127545637Y-85599760D01*
X127538690Y-85612757D01*
X127529344Y-85624144D01*
X127517957Y-85633490D01*
X127504960Y-85640437D01*
X127490861Y-85644714D01*
X127473744Y-85646400D01*
X127127856Y-85646400D01*
X127110739Y-85644714D01*
X127096640Y-85640437D01*
X127083643Y-85633490D01*
X127082521Y-85632569D01*
X127074372Y-85627123D01*
X127065316Y-85623372D01*
X127055703Y-85621459D01*
X127045902Y-85621459D01*
X127036288Y-85623370D01*
X127027233Y-85627121D01*
X127019079Y-85632569D01*
X127017957Y-85633490D01*
X127004960Y-85640437D01*
X126990861Y-85644714D01*
X126973744Y-85646400D01*
X126627856Y-85646400D01*
X126610739Y-85644714D01*
X126596640Y-85640437D01*
X126583643Y-85633490D01*
X126572256Y-85624144D01*
X126562910Y-85612757D01*
X126555963Y-85599760D01*
X126551686Y-85585661D01*
X126550000Y-85568544D01*
X126550000Y-85322656D01*
X126551686Y-85305539D01*
X126555963Y-85291440D01*
X126562910Y-85278443D01*
X126572256Y-85267056D01*
X126583643Y-85257710D01*
X126596640Y-85250763D01*
X126610739Y-85246486D01*
X126627856Y-85244800D01*
X126973744Y-85244800D01*
X126990861Y-85246486D01*
G37*
G36*
X150769834Y-84353428D02*
G01*
X150815591Y-84367309D01*
X150857756Y-84389846D01*
X150894719Y-84420181D01*
X150925054Y-84457144D01*
X150947591Y-84499309D01*
X150961472Y-84545066D01*
X150966400Y-84595104D01*
X150966400Y-85178496D01*
X150961472Y-85228534D01*
X150947591Y-85274291D01*
X150925054Y-85316456D01*
X150894719Y-85353419D01*
X150857756Y-85383754D01*
X150815591Y-85406291D01*
X150769834Y-85420172D01*
X150719796Y-85425100D01*
X149711404Y-85425100D01*
X149661366Y-85420172D01*
X149615609Y-85406291D01*
X149573444Y-85383754D01*
X149536481Y-85353419D01*
X149506146Y-85316456D01*
X149483609Y-85274291D01*
X149469728Y-85228534D01*
X149464800Y-85178496D01*
X149464800Y-84595104D01*
X149469728Y-84545066D01*
X149483609Y-84499309D01*
X149506146Y-84457144D01*
X149536481Y-84420181D01*
X149573444Y-84389846D01*
X149615609Y-84367309D01*
X149661366Y-84353428D01*
X149711404Y-84348500D01*
X150719796Y-84348500D01*
X150769834Y-84353428D01*
G37*
G36*
X148687034Y-84353428D02*
G01*
X148732791Y-84367309D01*
X148774956Y-84389846D01*
X148811919Y-84420181D01*
X148842254Y-84457144D01*
X148864791Y-84499309D01*
X148878672Y-84545066D01*
X148883600Y-84595104D01*
X148883600Y-85178496D01*
X148878672Y-85228534D01*
X148864791Y-85274291D01*
X148842254Y-85316456D01*
X148811919Y-85353419D01*
X148774956Y-85383754D01*
X148732791Y-85406291D01*
X148687034Y-85420172D01*
X148636996Y-85425100D01*
X147628604Y-85425100D01*
X147578566Y-85420172D01*
X147532809Y-85406291D01*
X147490644Y-85383754D01*
X147453681Y-85353419D01*
X147423346Y-85316456D01*
X147400809Y-85274291D01*
X147386928Y-85228534D01*
X147382000Y-85178496D01*
X147382000Y-84595104D01*
X147386928Y-84545066D01*
X147400809Y-84499309D01*
X147423346Y-84457144D01*
X147453681Y-84420181D01*
X147490644Y-84389846D01*
X147532809Y-84367309D01*
X147578566Y-84353428D01*
X147628604Y-84348500D01*
X148636996Y-84348500D01*
X148687034Y-84353428D01*
G37*
G36*
X152903434Y-84353428D02*
G01*
X152949191Y-84367309D01*
X152991356Y-84389846D01*
X153028319Y-84420181D01*
X153058654Y-84457144D01*
X153081191Y-84499309D01*
X153095072Y-84545066D01*
X153100000Y-84595104D01*
X153100000Y-85178496D01*
X153095072Y-85228534D01*
X153081191Y-85274291D01*
X153058654Y-85316456D01*
X153028319Y-85353419D01*
X152991356Y-85383754D01*
X152949191Y-85406291D01*
X152903434Y-85420172D01*
X152853396Y-85425100D01*
X151845004Y-85425100D01*
X151794966Y-85420172D01*
X151749209Y-85406291D01*
X151707044Y-85383754D01*
X151670081Y-85353419D01*
X151639746Y-85316456D01*
X151617209Y-85274291D01*
X151603328Y-85228534D01*
X151598400Y-85178496D01*
X151598400Y-84595104D01*
X151603328Y-84545066D01*
X151617209Y-84499309D01*
X151639746Y-84457144D01*
X151670081Y-84420181D01*
X151707044Y-84389846D01*
X151749209Y-84367309D01*
X151794966Y-84353428D01*
X151845004Y-84348500D01*
X152853396Y-84348500D01*
X152903434Y-84353428D01*
G37*
G36*
X92120196Y-80526011D02*
G01*
X92493418Y-80680605D01*
X92633594Y-80774268D01*
X92829310Y-80905041D01*
X93114961Y-81190692D01*
X93114962Y-81190694D01*
X93339397Y-81526584D01*
X93493991Y-81899806D01*
X93572801Y-82296013D01*
X93572801Y-82699989D01*
X93493991Y-83096196D01*
X93339397Y-83469418D01*
X93288943Y-83544928D01*
X93114961Y-83805310D01*
X92829310Y-84090961D01*
X92660223Y-84203941D01*
X92493418Y-84315397D01*
X92120196Y-84469991D01*
X91723989Y-84548801D01*
X91320013Y-84548801D01*
X90923806Y-84469991D01*
X90550584Y-84315397D01*
X90383779Y-84203941D01*
X90214692Y-84090961D01*
X89929041Y-83805310D01*
X89755059Y-83544928D01*
X89704605Y-83469418D01*
X89550011Y-83096196D01*
X89471201Y-82699989D01*
X89471201Y-82296013D01*
X89550011Y-81899806D01*
X89704605Y-81526584D01*
X89929040Y-81190694D01*
X89929041Y-81190692D01*
X90214692Y-80905041D01*
X90410408Y-80774268D01*
X90550584Y-80680605D01*
X90923806Y-80526011D01*
X91320013Y-80447201D01*
X91723989Y-80447201D01*
X92120196Y-80526011D01*
G37*
G36*
X71920196Y-80526011D02*
G01*
X72293418Y-80680605D01*
X72433594Y-80774268D01*
X72629310Y-80905041D01*
X72914961Y-81190692D01*
X72914962Y-81190694D01*
X73139397Y-81526584D01*
X73293991Y-81899806D01*
X73372801Y-82296013D01*
X73372801Y-82699989D01*
X73293991Y-83096196D01*
X73139397Y-83469418D01*
X73088943Y-83544928D01*
X72914961Y-83805310D01*
X72629310Y-84090961D01*
X72460223Y-84203941D01*
X72293418Y-84315397D01*
X71920196Y-84469991D01*
X71523989Y-84548801D01*
X71120013Y-84548801D01*
X70723806Y-84469991D01*
X70350584Y-84315397D01*
X70183779Y-84203941D01*
X70014692Y-84090961D01*
X69729041Y-83805310D01*
X69555059Y-83544928D01*
X69504605Y-83469418D01*
X69350011Y-83096196D01*
X69271201Y-82699989D01*
X69271201Y-82296013D01*
X69350011Y-81899806D01*
X69504605Y-81526584D01*
X69729040Y-81190694D01*
X69729041Y-81190692D01*
X70014692Y-80905041D01*
X70210408Y-80774268D01*
X70350584Y-80680605D01*
X70723806Y-80526011D01*
X71120013Y-80447201D01*
X71523989Y-80447201D01*
X71920196Y-80526011D01*
G37*
G36*
X112320196Y-80526011D02*
G01*
X112693418Y-80680605D01*
X112833594Y-80774268D01*
X113029310Y-80905041D01*
X113314961Y-81190692D01*
X113314962Y-81190694D01*
X113539397Y-81526584D01*
X113693991Y-81899806D01*
X113772801Y-82296013D01*
X113772801Y-82699989D01*
X113693991Y-83096196D01*
X113539397Y-83469418D01*
X113488943Y-83544928D01*
X113314961Y-83805310D01*
X113029310Y-84090961D01*
X112860223Y-84203941D01*
X112693418Y-84315397D01*
X112320196Y-84469991D01*
X111923989Y-84548801D01*
X111520013Y-84548801D01*
X111123806Y-84469991D01*
X110750584Y-84315397D01*
X110583779Y-84203941D01*
X110414692Y-84090961D01*
X110129041Y-83805310D01*
X109955059Y-83544928D01*
X109904605Y-83469418D01*
X109750011Y-83096196D01*
X109671201Y-82699989D01*
X109671201Y-82296013D01*
X109750011Y-81899806D01*
X109904605Y-81526584D01*
X110129040Y-81190694D01*
X110129041Y-81190692D01*
X110414692Y-80905041D01*
X110610408Y-80774268D01*
X110750584Y-80680605D01*
X111123806Y-80526011D01*
X111520013Y-80447201D01*
X111923989Y-80447201D01*
X112320196Y-80526011D01*
G37*
G36*
X141257500Y-84496100D02*
G01*
X140605900Y-84496100D01*
X140605900Y-82894500D01*
X141257500Y-82894500D01*
X141257500Y-84496100D01*
G37*
G36*
X135657500Y-84496100D02*
G01*
X135005900Y-84496100D01*
X135005900Y-82894500D01*
X135657500Y-82894500D01*
X135657500Y-84496100D01*
G37*
G36*
X136457500Y-84496100D02*
G01*
X135805900Y-84496100D01*
X135805900Y-82894500D01*
X136457500Y-82894500D01*
X136457500Y-84496100D01*
G37*
G36*
X137257500Y-84496100D02*
G01*
X136605900Y-84496100D01*
X136605900Y-82894500D01*
X137257500Y-82894500D01*
X137257500Y-84496100D01*
G37*
G36*
X138057500Y-84496100D02*
G01*
X137405900Y-84496100D01*
X137405900Y-82894500D01*
X138057500Y-82894500D01*
X138057500Y-84496100D01*
G37*
G36*
X138857500Y-84496100D02*
G01*
X138205900Y-84496100D01*
X138205900Y-82894500D01*
X138857500Y-82894500D01*
X138857500Y-84496100D01*
G37*
G36*
X140457500Y-84496100D02*
G01*
X139805900Y-84496100D01*
X139805900Y-82894500D01*
X140457500Y-82894500D01*
X140457500Y-84496100D01*
G37*
G36*
X139657500Y-84496100D02*
G01*
X139005900Y-84496100D01*
X139005900Y-82894500D01*
X139657500Y-82894500D01*
X139657500Y-84496100D01*
G37*
G36*
X142057500Y-84496100D02*
G01*
X141405900Y-84496100D01*
X141405900Y-82894500D01*
X142057500Y-82894500D01*
X142057500Y-84496100D01*
G37*
G36*
X142857500Y-84496100D02*
G01*
X142205900Y-84496100D01*
X142205900Y-82894500D01*
X142857500Y-82894500D01*
X142857500Y-84496100D01*
G37*
G36*
X143657500Y-84496100D02*
G01*
X143005900Y-84496100D01*
X143005900Y-82894500D01*
X143657500Y-82894500D01*
X143657500Y-84496100D01*
G37*
G36*
X152903434Y-82478428D02*
G01*
X152949191Y-82492309D01*
X152991356Y-82514846D01*
X153028319Y-82545181D01*
X153058654Y-82582144D01*
X153081191Y-82624309D01*
X153095072Y-82670066D01*
X153100000Y-82720104D01*
X153100000Y-83303496D01*
X153095072Y-83353534D01*
X153081191Y-83399291D01*
X153058654Y-83441456D01*
X153028319Y-83478419D01*
X152991356Y-83508754D01*
X152949191Y-83531291D01*
X152903434Y-83545172D01*
X152853396Y-83550100D01*
X151845004Y-83550100D01*
X151794966Y-83545172D01*
X151749209Y-83531291D01*
X151707044Y-83508754D01*
X151670081Y-83478419D01*
X151639746Y-83441456D01*
X151617209Y-83399291D01*
X151603328Y-83353534D01*
X151598400Y-83303496D01*
X151598400Y-82720104D01*
X151603328Y-82670066D01*
X151617209Y-82624309D01*
X151639746Y-82582144D01*
X151670081Y-82545181D01*
X151707044Y-82514846D01*
X151749209Y-82492309D01*
X151794966Y-82478428D01*
X151845004Y-82473500D01*
X152853396Y-82473500D01*
X152903434Y-82478428D01*
G37*
G36*
X150769834Y-82478428D02*
G01*
X150815591Y-82492309D01*
X150857756Y-82514846D01*
X150894719Y-82545181D01*
X150925054Y-82582144D01*
X150947591Y-82624309D01*
X150961472Y-82670066D01*
X150966400Y-82720104D01*
X150966400Y-83303496D01*
X150961472Y-83353534D01*
X150947591Y-83399291D01*
X150925054Y-83441456D01*
X150894719Y-83478419D01*
X150857756Y-83508754D01*
X150815591Y-83531291D01*
X150769834Y-83545172D01*
X150719796Y-83550100D01*
X149711404Y-83550100D01*
X149661366Y-83545172D01*
X149615609Y-83531291D01*
X149573444Y-83508754D01*
X149536481Y-83478419D01*
X149506146Y-83441456D01*
X149483609Y-83399291D01*
X149469728Y-83353534D01*
X149464800Y-83303496D01*
X149464800Y-82720104D01*
X149469728Y-82670066D01*
X149483609Y-82624309D01*
X149506146Y-82582144D01*
X149536481Y-82545181D01*
X149573444Y-82514846D01*
X149615609Y-82492309D01*
X149661366Y-82478428D01*
X149711404Y-82473500D01*
X150719796Y-82473500D01*
X150769834Y-82478428D01*
G37*
G36*
X148687034Y-82478428D02*
G01*
X148732791Y-82492309D01*
X148774956Y-82514846D01*
X148811919Y-82545181D01*
X148842254Y-82582144D01*
X148864791Y-82624309D01*
X148878672Y-82670066D01*
X148883600Y-82720104D01*
X148883600Y-83303496D01*
X148878672Y-83353534D01*
X148864791Y-83399291D01*
X148842254Y-83441456D01*
X148811919Y-83478419D01*
X148774956Y-83508754D01*
X148732791Y-83531291D01*
X148687034Y-83545172D01*
X148636996Y-83550100D01*
X147628604Y-83550100D01*
X147578566Y-83545172D01*
X147532809Y-83531291D01*
X147490644Y-83508754D01*
X147453681Y-83478419D01*
X147423346Y-83441456D01*
X147400809Y-83399291D01*
X147386928Y-83353534D01*
X147382000Y-83303496D01*
X147382000Y-82720104D01*
X147386928Y-82670066D01*
X147400809Y-82624309D01*
X147423346Y-82582144D01*
X147453681Y-82545181D01*
X147490644Y-82514846D01*
X147532809Y-82492309D01*
X147578566Y-82478428D01*
X147628604Y-82473500D01*
X148636996Y-82473500D01*
X148687034Y-82478428D01*
G37*
G36*
X117064753Y-81631817D02*
G01*
X117064756Y-81631818D01*
X117064755Y-81631818D01*
X117228690Y-81699722D01*
X117376228Y-81798304D01*
X117501698Y-81923774D01*
X117501699Y-81923776D01*
X117600281Y-82071314D01*
X117668185Y-82235249D01*
X117702801Y-82409278D01*
X117702801Y-82586724D01*
X117668185Y-82760753D01*
X117668184Y-82760755D01*
X117600280Y-82924690D01*
X117501698Y-83072228D01*
X117376228Y-83197698D01*
X117228690Y-83296280D01*
X117228689Y-83296281D01*
X117228688Y-83296281D01*
X117064753Y-83364185D01*
X116890724Y-83398801D01*
X116713278Y-83398801D01*
X116539249Y-83364185D01*
X116375314Y-83296281D01*
X116375313Y-83296281D01*
X116375312Y-83296280D01*
X116227774Y-83197698D01*
X116102304Y-83072228D01*
X116003722Y-82924690D01*
X115935818Y-82760755D01*
X115935817Y-82760753D01*
X115901201Y-82586724D01*
X115901201Y-82409278D01*
X115935817Y-82235249D01*
X116003721Y-82071314D01*
X116102303Y-81923776D01*
X116102304Y-81923774D01*
X116227774Y-81798304D01*
X116375312Y-81699722D01*
X116539247Y-81631818D01*
X116539246Y-81631818D01*
X116539249Y-81631817D01*
X116713278Y-81597201D01*
X116890724Y-81597201D01*
X117064753Y-81631817D01*
G37*
G36*
X96864753Y-81631817D02*
G01*
X96864756Y-81631818D01*
X96864755Y-81631818D01*
X97028690Y-81699722D01*
X97176228Y-81798304D01*
X97301698Y-81923774D01*
X97301699Y-81923776D01*
X97400281Y-82071314D01*
X97468185Y-82235249D01*
X97502801Y-82409278D01*
X97502801Y-82586724D01*
X97468185Y-82760753D01*
X97468184Y-82760755D01*
X97400280Y-82924690D01*
X97301698Y-83072228D01*
X97176228Y-83197698D01*
X97028690Y-83296280D01*
X97028689Y-83296281D01*
X97028688Y-83296281D01*
X96864753Y-83364185D01*
X96690724Y-83398801D01*
X96513278Y-83398801D01*
X96339249Y-83364185D01*
X96175314Y-83296281D01*
X96175313Y-83296281D01*
X96175312Y-83296280D01*
X96027774Y-83197698D01*
X95902304Y-83072228D01*
X95803722Y-82924690D01*
X95735818Y-82760755D01*
X95735817Y-82760753D01*
X95701201Y-82586724D01*
X95701201Y-82409278D01*
X95735817Y-82235249D01*
X95803721Y-82071314D01*
X95902303Y-81923776D01*
X95902304Y-81923774D01*
X96027774Y-81798304D01*
X96175312Y-81699722D01*
X96339247Y-81631818D01*
X96339246Y-81631818D01*
X96339249Y-81631817D01*
X96513278Y-81597201D01*
X96690724Y-81597201D01*
X96864753Y-81631817D01*
G37*
G36*
X86704753Y-81631817D02*
G01*
X86704756Y-81631818D01*
X86704755Y-81631818D01*
X86868690Y-81699722D01*
X87016228Y-81798304D01*
X87141698Y-81923774D01*
X87141699Y-81923776D01*
X87240281Y-82071314D01*
X87308185Y-82235249D01*
X87342801Y-82409278D01*
X87342801Y-82586724D01*
X87308185Y-82760753D01*
X87308184Y-82760755D01*
X87240280Y-82924690D01*
X87141698Y-83072228D01*
X87016228Y-83197698D01*
X86868690Y-83296280D01*
X86868689Y-83296281D01*
X86868688Y-83296281D01*
X86704753Y-83364185D01*
X86530724Y-83398801D01*
X86353278Y-83398801D01*
X86179249Y-83364185D01*
X86015314Y-83296281D01*
X86015313Y-83296281D01*
X86015312Y-83296280D01*
X85867774Y-83197698D01*
X85742304Y-83072228D01*
X85643722Y-82924690D01*
X85575818Y-82760755D01*
X85575817Y-82760753D01*
X85541201Y-82586724D01*
X85541201Y-82409278D01*
X85575817Y-82235249D01*
X85643721Y-82071314D01*
X85742303Y-81923776D01*
X85742304Y-81923774D01*
X85867774Y-81798304D01*
X86015312Y-81699722D01*
X86179247Y-81631818D01*
X86179246Y-81631818D01*
X86179249Y-81631817D01*
X86353278Y-81597201D01*
X86530724Y-81597201D01*
X86704753Y-81631817D01*
G37*
G36*
X76664753Y-81631817D02*
G01*
X76664756Y-81631818D01*
X76664755Y-81631818D01*
X76828690Y-81699722D01*
X76976228Y-81798304D01*
X77101698Y-81923774D01*
X77101699Y-81923776D01*
X77200281Y-82071314D01*
X77268185Y-82235249D01*
X77302801Y-82409278D01*
X77302801Y-82586724D01*
X77268185Y-82760753D01*
X77268184Y-82760755D01*
X77200280Y-82924690D01*
X77101698Y-83072228D01*
X76976228Y-83197698D01*
X76828690Y-83296280D01*
X76828689Y-83296281D01*
X76828688Y-83296281D01*
X76664753Y-83364185D01*
X76490724Y-83398801D01*
X76313278Y-83398801D01*
X76139249Y-83364185D01*
X75975314Y-83296281D01*
X75975313Y-83296281D01*
X75975312Y-83296280D01*
X75827774Y-83197698D01*
X75702304Y-83072228D01*
X75603722Y-82924690D01*
X75535818Y-82760755D01*
X75535817Y-82760753D01*
X75501201Y-82586724D01*
X75501201Y-82409278D01*
X75535817Y-82235249D01*
X75603721Y-82071314D01*
X75702303Y-81923776D01*
X75702304Y-81923774D01*
X75827774Y-81798304D01*
X75975312Y-81699722D01*
X76139247Y-81631818D01*
X76139246Y-81631818D01*
X76139249Y-81631817D01*
X76313278Y-81597201D01*
X76490724Y-81597201D01*
X76664753Y-81631817D01*
G37*
G36*
X66504753Y-81631817D02*
G01*
X66504756Y-81631818D01*
X66504755Y-81631818D01*
X66668690Y-81699722D01*
X66816228Y-81798304D01*
X66941698Y-81923774D01*
X66941699Y-81923776D01*
X67040281Y-82071314D01*
X67108185Y-82235249D01*
X67142801Y-82409278D01*
X67142801Y-82586724D01*
X67108185Y-82760753D01*
X67108184Y-82760755D01*
X67040280Y-82924690D01*
X66941698Y-83072228D01*
X66816228Y-83197698D01*
X66668690Y-83296280D01*
X66668689Y-83296281D01*
X66668688Y-83296281D01*
X66504753Y-83364185D01*
X66330724Y-83398801D01*
X66153278Y-83398801D01*
X65979249Y-83364185D01*
X65815314Y-83296281D01*
X65815313Y-83296281D01*
X65815312Y-83296280D01*
X65667774Y-83197698D01*
X65542304Y-83072228D01*
X65443722Y-82924690D01*
X65375818Y-82760755D01*
X65375817Y-82760753D01*
X65341201Y-82586724D01*
X65341201Y-82409278D01*
X65375817Y-82235249D01*
X65443721Y-82071314D01*
X65542303Y-81923776D01*
X65542304Y-81923774D01*
X65667774Y-81798304D01*
X65815312Y-81699722D01*
X65979247Y-81631818D01*
X65979246Y-81631818D01*
X65979249Y-81631817D01*
X66153278Y-81597201D01*
X66330724Y-81597201D01*
X66504753Y-81631817D01*
G37*
G36*
X106904753Y-81631817D02*
G01*
X106904756Y-81631818D01*
X106904755Y-81631818D01*
X107068690Y-81699722D01*
X107216228Y-81798304D01*
X107341698Y-81923774D01*
X107341699Y-81923776D01*
X107440281Y-82071314D01*
X107508185Y-82235249D01*
X107542801Y-82409278D01*
X107542801Y-82586724D01*
X107508185Y-82760753D01*
X107508184Y-82760755D01*
X107440280Y-82924690D01*
X107341698Y-83072228D01*
X107216228Y-83197698D01*
X107068690Y-83296280D01*
X107068689Y-83296281D01*
X107068688Y-83296281D01*
X106904753Y-83364185D01*
X106730724Y-83398801D01*
X106553278Y-83398801D01*
X106379249Y-83364185D01*
X106215314Y-83296281D01*
X106215313Y-83296281D01*
X106215312Y-83296280D01*
X106067774Y-83197698D01*
X105942304Y-83072228D01*
X105843722Y-82924690D01*
X105775818Y-82760755D01*
X105775817Y-82760753D01*
X105741201Y-82586724D01*
X105741201Y-82409278D01*
X105775817Y-82235249D01*
X105843721Y-82071314D01*
X105942303Y-81923776D01*
X105942304Y-81923774D01*
X106067774Y-81798304D01*
X106215312Y-81699722D01*
X106379247Y-81631818D01*
X106379246Y-81631818D01*
X106379249Y-81631817D01*
X106553278Y-81597201D01*
X106730724Y-81597201D01*
X106904753Y-81631817D01*
G37*
G36*
X67847675Y-78851425D02*
G01*
X67847678Y-78851426D01*
X67847677Y-78851426D01*
X68057109Y-78938175D01*
X68245593Y-79064116D01*
X68405886Y-79224409D01*
X68531827Y-79412893D01*
X68531827Y-79412894D01*
X68618577Y-79622327D01*
X68662801Y-79844656D01*
X68662801Y-80071346D01*
X68618577Y-80293675D01*
X68618576Y-80293677D01*
X68531827Y-80503109D01*
X68405886Y-80691593D01*
X68245593Y-80851886D01*
X68057109Y-80977827D01*
X67909018Y-81039168D01*
X67847675Y-81064577D01*
X67625346Y-81108801D01*
X67398656Y-81108801D01*
X67176327Y-81064577D01*
X67114984Y-81039168D01*
X66966893Y-80977827D01*
X66778409Y-80851886D01*
X66618116Y-80691593D01*
X66492175Y-80503109D01*
X66405426Y-80293677D01*
X66405425Y-80293675D01*
X66361201Y-80071346D01*
X66361201Y-79844656D01*
X66405425Y-79622327D01*
X66492175Y-79412894D01*
X66492175Y-79412893D01*
X66618116Y-79224409D01*
X66778409Y-79064116D01*
X66966893Y-78938175D01*
X67176325Y-78851426D01*
X67176324Y-78851426D01*
X67176327Y-78851425D01*
X67398656Y-78807201D01*
X67625346Y-78807201D01*
X67847675Y-78851425D01*
G37*
G36*
X108247675Y-78851425D02*
G01*
X108247678Y-78851426D01*
X108247677Y-78851426D01*
X108457109Y-78938175D01*
X108645593Y-79064116D01*
X108805886Y-79224409D01*
X108931827Y-79412893D01*
X108931827Y-79412894D01*
X109018577Y-79622327D01*
X109062801Y-79844656D01*
X109062801Y-80071346D01*
X109018577Y-80293675D01*
X109018576Y-80293677D01*
X108931827Y-80503109D01*
X108805886Y-80691593D01*
X108645593Y-80851886D01*
X108457109Y-80977827D01*
X108309018Y-81039168D01*
X108247675Y-81064577D01*
X108025346Y-81108801D01*
X107798656Y-81108801D01*
X107576327Y-81064577D01*
X107514984Y-81039168D01*
X107366893Y-80977827D01*
X107178409Y-80851886D01*
X107018116Y-80691593D01*
X106892175Y-80503109D01*
X106805426Y-80293677D01*
X106805425Y-80293675D01*
X106761201Y-80071346D01*
X106761201Y-79844656D01*
X106805425Y-79622327D01*
X106892175Y-79412894D01*
X106892175Y-79412893D01*
X107018116Y-79224409D01*
X107178409Y-79064116D01*
X107366893Y-78938175D01*
X107576325Y-78851426D01*
X107576324Y-78851426D01*
X107576327Y-78851425D01*
X107798656Y-78807201D01*
X108025346Y-78807201D01*
X108247675Y-78851425D01*
G37*
G36*
X88047675Y-78851425D02*
G01*
X88047678Y-78851426D01*
X88047677Y-78851426D01*
X88257109Y-78938175D01*
X88445593Y-79064116D01*
X88605886Y-79224409D01*
X88731827Y-79412893D01*
X88731827Y-79412894D01*
X88818577Y-79622327D01*
X88862801Y-79844656D01*
X88862801Y-80071346D01*
X88818577Y-80293675D01*
X88818576Y-80293677D01*
X88731827Y-80503109D01*
X88605886Y-80691593D01*
X88445593Y-80851886D01*
X88257109Y-80977827D01*
X88109018Y-81039168D01*
X88047675Y-81064577D01*
X87825346Y-81108801D01*
X87598656Y-81108801D01*
X87376327Y-81064577D01*
X87314984Y-81039168D01*
X87166893Y-80977827D01*
X86978409Y-80851886D01*
X86818116Y-80691593D01*
X86692175Y-80503109D01*
X86605426Y-80293677D01*
X86605425Y-80293675D01*
X86561201Y-80071346D01*
X86561201Y-79844656D01*
X86605425Y-79622327D01*
X86692175Y-79412894D01*
X86692175Y-79412893D01*
X86818116Y-79224409D01*
X86978409Y-79064116D01*
X87166893Y-78938175D01*
X87376325Y-78851426D01*
X87376324Y-78851426D01*
X87376327Y-78851425D01*
X87598656Y-78807201D01*
X87825346Y-78807201D01*
X88047675Y-78851425D01*
G37*
G36*
X143048234Y-79781428D02*
G01*
X143093991Y-79795309D01*
X143136156Y-79817846D01*
X143173119Y-79848181D01*
X143203454Y-79885144D01*
X143225991Y-79927309D01*
X143239872Y-79973066D01*
X143244800Y-80023104D01*
X143244800Y-80606496D01*
X143239872Y-80656534D01*
X143225991Y-80702291D01*
X143203454Y-80744456D01*
X143173119Y-80781419D01*
X143136156Y-80811754D01*
X143093991Y-80834291D01*
X143048234Y-80848172D01*
X142998196Y-80853100D01*
X141989804Y-80853100D01*
X141939766Y-80848172D01*
X141894009Y-80834291D01*
X141851844Y-80811754D01*
X141814881Y-80781419D01*
X141784546Y-80744456D01*
X141762009Y-80702291D01*
X141748128Y-80656534D01*
X141743200Y-80606496D01*
X141743200Y-80023104D01*
X141748128Y-79973066D01*
X141762009Y-79927309D01*
X141784546Y-79885144D01*
X141814881Y-79848181D01*
X141851844Y-79817846D01*
X141894009Y-79795309D01*
X141939766Y-79781428D01*
X141989804Y-79776500D01*
X142998196Y-79776500D01*
X143048234Y-79781428D01*
G37*
G36*
X136244434Y-78806928D02*
G01*
X136290191Y-78820809D01*
X136332356Y-78843346D01*
X136369319Y-78873681D01*
X136399654Y-78910644D01*
X136422191Y-78952809D01*
X136436072Y-78998566D01*
X136441000Y-79048604D01*
X136441000Y-80056996D01*
X136436072Y-80107034D01*
X136422191Y-80152791D01*
X136399654Y-80194956D01*
X136369319Y-80231919D01*
X136332356Y-80262254D01*
X136290191Y-80284791D01*
X136244434Y-80298672D01*
X136194396Y-80303600D01*
X135611004Y-80303600D01*
X135560966Y-80298672D01*
X135515209Y-80284791D01*
X135473044Y-80262254D01*
X135436081Y-80231919D01*
X135405746Y-80194956D01*
X135383209Y-80152791D01*
X135369328Y-80107034D01*
X135364400Y-80056996D01*
X135364400Y-79048604D01*
X135369328Y-78998566D01*
X135383209Y-78952809D01*
X135405746Y-78910644D01*
X135436081Y-78873681D01*
X135473044Y-78843346D01*
X135515209Y-78820809D01*
X135560966Y-78806928D01*
X135611004Y-78802000D01*
X136194396Y-78802000D01*
X136244434Y-78806928D01*
G37*
G36*
X144601034Y-78806928D02*
G01*
X144646791Y-78820809D01*
X144688956Y-78843346D01*
X144725919Y-78873681D01*
X144756254Y-78910644D01*
X144778791Y-78952809D01*
X144792672Y-78998566D01*
X144797600Y-79048604D01*
X144797600Y-80056996D01*
X144792672Y-80107034D01*
X144778791Y-80152791D01*
X144756254Y-80194956D01*
X144725919Y-80231919D01*
X144688956Y-80262254D01*
X144646791Y-80284791D01*
X144601034Y-80298672D01*
X144550996Y-80303600D01*
X143967604Y-80303600D01*
X143917566Y-80298672D01*
X143871809Y-80284791D01*
X143829644Y-80262254D01*
X143792681Y-80231919D01*
X143762346Y-80194956D01*
X143739809Y-80152791D01*
X143725928Y-80107034D01*
X143721000Y-80056996D01*
X143721000Y-79048604D01*
X143725928Y-78998566D01*
X143739809Y-78952809D01*
X143762346Y-78910644D01*
X143792681Y-78873681D01*
X143829644Y-78843346D01*
X143871809Y-78820809D01*
X143917566Y-78806928D01*
X143967604Y-78802000D01*
X144550996Y-78802000D01*
X144601034Y-78806928D01*
G37*
G36*
X146476034Y-78806928D02*
G01*
X146521791Y-78820809D01*
X146563956Y-78843346D01*
X146600919Y-78873681D01*
X146631254Y-78910644D01*
X146653791Y-78952809D01*
X146667672Y-78998566D01*
X146672600Y-79048604D01*
X146672600Y-80056996D01*
X146667672Y-80107034D01*
X146653791Y-80152791D01*
X146631254Y-80194956D01*
X146600919Y-80231919D01*
X146563956Y-80262254D01*
X146521791Y-80284791D01*
X146476034Y-80298672D01*
X146425996Y-80303600D01*
X145842604Y-80303600D01*
X145792566Y-80298672D01*
X145746809Y-80284791D01*
X145704644Y-80262254D01*
X145667681Y-80231919D01*
X145637346Y-80194956D01*
X145614809Y-80152791D01*
X145600928Y-80107034D01*
X145596000Y-80056996D01*
X145596000Y-79048604D01*
X145600928Y-78998566D01*
X145614809Y-78952809D01*
X145637346Y-78910644D01*
X145667681Y-78873681D01*
X145704644Y-78843346D01*
X145746809Y-78820809D01*
X145792566Y-78806928D01*
X145842604Y-78802000D01*
X146425996Y-78802000D01*
X146476034Y-78806928D01*
G37*
G36*
X134369434Y-78806928D02*
G01*
X134415191Y-78820809D01*
X134457356Y-78843346D01*
X134494319Y-78873681D01*
X134524654Y-78910644D01*
X134547191Y-78952809D01*
X134561072Y-78998566D01*
X134566000Y-79048604D01*
X134566000Y-80056996D01*
X134561072Y-80107034D01*
X134547191Y-80152791D01*
X134524654Y-80194956D01*
X134494319Y-80231919D01*
X134457356Y-80262254D01*
X134415191Y-80284791D01*
X134369434Y-80298672D01*
X134319396Y-80303600D01*
X133736004Y-80303600D01*
X133685966Y-80298672D01*
X133640209Y-80284791D01*
X133598044Y-80262254D01*
X133561081Y-80231919D01*
X133530746Y-80194956D01*
X133508209Y-80152791D01*
X133494328Y-80107034D01*
X133489400Y-80056996D01*
X133489400Y-79048604D01*
X133494328Y-78998566D01*
X133508209Y-78952809D01*
X133530746Y-78910644D01*
X133561081Y-78873681D01*
X133598044Y-78843346D01*
X133640209Y-78820809D01*
X133685966Y-78806928D01*
X133736004Y-78802000D01*
X134319396Y-78802000D01*
X134369434Y-78806928D01*
G37*
G36*
X143048234Y-77906428D02*
G01*
X143093991Y-77920309D01*
X143136156Y-77942846D01*
X143173119Y-77973181D01*
X143203454Y-78010144D01*
X143225991Y-78052309D01*
X143239872Y-78098066D01*
X143244800Y-78148104D01*
X143244800Y-78731496D01*
X143239872Y-78781534D01*
X143225991Y-78827291D01*
X143203454Y-78869456D01*
X143173119Y-78906419D01*
X143136156Y-78936754D01*
X143093991Y-78959291D01*
X143048234Y-78973172D01*
X142998196Y-78978100D01*
X141989804Y-78978100D01*
X141939766Y-78973172D01*
X141894009Y-78959291D01*
X141851844Y-78936754D01*
X141814881Y-78906419D01*
X141784546Y-78869456D01*
X141762009Y-78827291D01*
X141748128Y-78781534D01*
X141743200Y-78731496D01*
X141743200Y-78148104D01*
X141748128Y-78098066D01*
X141762009Y-78052309D01*
X141784546Y-78010144D01*
X141814881Y-77973181D01*
X141851844Y-77942846D01*
X141894009Y-77920309D01*
X141939766Y-77906428D01*
X141989804Y-77901500D01*
X142998196Y-77901500D01*
X143048234Y-77906428D01*
G37*
G36*
X114597675Y-76311425D02*
G01*
X114597678Y-76311426D01*
X114597677Y-76311426D01*
X114807109Y-76398175D01*
X114995593Y-76524116D01*
X115155886Y-76684409D01*
X115281827Y-76872893D01*
X115281827Y-76872894D01*
X115368577Y-77082327D01*
X115412801Y-77304656D01*
X115412801Y-77531346D01*
X115368577Y-77753675D01*
X115368576Y-77753677D01*
X115281827Y-77963109D01*
X115155886Y-78151593D01*
X114995593Y-78311886D01*
X114807109Y-78437827D01*
X114659018Y-78499168D01*
X114597675Y-78524577D01*
X114375346Y-78568801D01*
X114148656Y-78568801D01*
X113926327Y-78524577D01*
X113864984Y-78499168D01*
X113716893Y-78437827D01*
X113528409Y-78311886D01*
X113368116Y-78151593D01*
X113242175Y-77963109D01*
X113155426Y-77753677D01*
X113155425Y-77753675D01*
X113111201Y-77531346D01*
X113111201Y-77304656D01*
X113155425Y-77082327D01*
X113242175Y-76872894D01*
X113242175Y-76872893D01*
X113368116Y-76684409D01*
X113528409Y-76524116D01*
X113716893Y-76398175D01*
X113926325Y-76311426D01*
X113926324Y-76311426D01*
X113926327Y-76311425D01*
X114148656Y-76267201D01*
X114375346Y-76267201D01*
X114597675Y-76311425D01*
G37*
G36*
X94397675Y-76311425D02*
G01*
X94397678Y-76311426D01*
X94397677Y-76311426D01*
X94607109Y-76398175D01*
X94795593Y-76524116D01*
X94955886Y-76684409D01*
X95081827Y-76872893D01*
X95081827Y-76872894D01*
X95168577Y-77082327D01*
X95212801Y-77304656D01*
X95212801Y-77531346D01*
X95168577Y-77753675D01*
X95168576Y-77753677D01*
X95081827Y-77963109D01*
X94955886Y-78151593D01*
X94795593Y-78311886D01*
X94607109Y-78437827D01*
X94459018Y-78499168D01*
X94397675Y-78524577D01*
X94175346Y-78568801D01*
X93948656Y-78568801D01*
X93726327Y-78524577D01*
X93664984Y-78499168D01*
X93516893Y-78437827D01*
X93328409Y-78311886D01*
X93168116Y-78151593D01*
X93042175Y-77963109D01*
X92955426Y-77753677D01*
X92955425Y-77753675D01*
X92911201Y-77531346D01*
X92911201Y-77304656D01*
X92955425Y-77082327D01*
X93042175Y-76872894D01*
X93042175Y-76872893D01*
X93168116Y-76684409D01*
X93328409Y-76524116D01*
X93516893Y-76398175D01*
X93726325Y-76311426D01*
X93726324Y-76311426D01*
X93726327Y-76311425D01*
X93948656Y-76267201D01*
X94175346Y-76267201D01*
X94397675Y-76311425D01*
G37*
G36*
X74197675Y-76311425D02*
G01*
X74197678Y-76311426D01*
X74197677Y-76311426D01*
X74407109Y-76398175D01*
X74595593Y-76524116D01*
X74755886Y-76684409D01*
X74881827Y-76872893D01*
X74881827Y-76872894D01*
X74968577Y-77082327D01*
X75012801Y-77304656D01*
X75012801Y-77531346D01*
X74968577Y-77753675D01*
X74968576Y-77753677D01*
X74881827Y-77963109D01*
X74755886Y-78151593D01*
X74595593Y-78311886D01*
X74407109Y-78437827D01*
X74259018Y-78499168D01*
X74197675Y-78524577D01*
X73975346Y-78568801D01*
X73748656Y-78568801D01*
X73526327Y-78524577D01*
X73464984Y-78499168D01*
X73316893Y-78437827D01*
X73128409Y-78311886D01*
X72968116Y-78151593D01*
X72842175Y-77963109D01*
X72755426Y-77753677D01*
X72755425Y-77753675D01*
X72711201Y-77531346D01*
X72711201Y-77304656D01*
X72755425Y-77082327D01*
X72842175Y-76872894D01*
X72842175Y-76872893D01*
X72968116Y-76684409D01*
X73128409Y-76524116D01*
X73316893Y-76398175D01*
X73526325Y-76311426D01*
X73526324Y-76311426D01*
X73526327Y-76311425D01*
X73748656Y-76267201D01*
X73975346Y-76267201D01*
X74197675Y-76311425D01*
G37*
G36*
X127909834Y-77033628D02*
G01*
X127955591Y-77047509D01*
X127997756Y-77070046D01*
X128034719Y-77100381D01*
X128065054Y-77137344D01*
X128087591Y-77179509D01*
X128101472Y-77225266D01*
X128106400Y-77275304D01*
X128106400Y-77858696D01*
X128101472Y-77908734D01*
X128087591Y-77954491D01*
X128065054Y-77996656D01*
X128034719Y-78033619D01*
X127997756Y-78063954D01*
X127955591Y-78086491D01*
X127909834Y-78100372D01*
X127859796Y-78105300D01*
X126851404Y-78105300D01*
X126801366Y-78100372D01*
X126755609Y-78086491D01*
X126713444Y-78063954D01*
X126676481Y-78033619D01*
X126646146Y-77996656D01*
X126623609Y-77954491D01*
X126609728Y-77908734D01*
X126604800Y-77858696D01*
X126604800Y-77275304D01*
X126609728Y-77225266D01*
X126623609Y-77179509D01*
X126646146Y-77137344D01*
X126676481Y-77100381D01*
X126713444Y-77070046D01*
X126755609Y-77047509D01*
X126801366Y-77033628D01*
X126851404Y-77028700D01*
X127859796Y-77028700D01*
X127909834Y-77033628D01*
G37*
G36*
X124963434Y-76982828D02*
G01*
X125009191Y-76996709D01*
X125051356Y-77019246D01*
X125088319Y-77049581D01*
X125118654Y-77086544D01*
X125141191Y-77128709D01*
X125155072Y-77174466D01*
X125160000Y-77224504D01*
X125160000Y-77807896D01*
X125155072Y-77857934D01*
X125141191Y-77903691D01*
X125118654Y-77945856D01*
X125088319Y-77982819D01*
X125051356Y-78013154D01*
X125009191Y-78035691D01*
X124963434Y-78049572D01*
X124913396Y-78054500D01*
X123905004Y-78054500D01*
X123854966Y-78049572D01*
X123809209Y-78035691D01*
X123767044Y-78013154D01*
X123730081Y-77982819D01*
X123699746Y-77945856D01*
X123677209Y-77903691D01*
X123663328Y-77857934D01*
X123658400Y-77807896D01*
X123658400Y-77224504D01*
X123663328Y-77174466D01*
X123677209Y-77128709D01*
X123699746Y-77086544D01*
X123730081Y-77049581D01*
X123767044Y-77019246D01*
X123809209Y-76996709D01*
X123854966Y-76982828D01*
X123905004Y-76977900D01*
X124913396Y-76977900D01*
X124963434Y-76982828D01*
G37*
G36*
X127909834Y-75158628D02*
G01*
X127955591Y-75172509D01*
X127997756Y-75195046D01*
X128034719Y-75225381D01*
X128065054Y-75262344D01*
X128087591Y-75304509D01*
X128101472Y-75350266D01*
X128106400Y-75400304D01*
X128106400Y-75983696D01*
X128101472Y-76033734D01*
X128087591Y-76079491D01*
X128065054Y-76121656D01*
X128034719Y-76158619D01*
X127997756Y-76188954D01*
X127955591Y-76211491D01*
X127909834Y-76225372D01*
X127859796Y-76230300D01*
X126851404Y-76230300D01*
X126801366Y-76225372D01*
X126755609Y-76211491D01*
X126713444Y-76188954D01*
X126676481Y-76158619D01*
X126646146Y-76121656D01*
X126623609Y-76079491D01*
X126609728Y-76033734D01*
X126604800Y-75983696D01*
X126604800Y-75400304D01*
X126609728Y-75350266D01*
X126623609Y-75304509D01*
X126646146Y-75262344D01*
X126676481Y-75225381D01*
X126713444Y-75195046D01*
X126755609Y-75172509D01*
X126801366Y-75158628D01*
X126851404Y-75153700D01*
X127859796Y-75153700D01*
X127909834Y-75158628D01*
G37*
G36*
X124963434Y-75107828D02*
G01*
X125009191Y-75121709D01*
X125051356Y-75144246D01*
X125088319Y-75174581D01*
X125118654Y-75211544D01*
X125141191Y-75253709D01*
X125155072Y-75299466D01*
X125160000Y-75349504D01*
X125160000Y-75932896D01*
X125155072Y-75982934D01*
X125141191Y-76028691D01*
X125118654Y-76070856D01*
X125088319Y-76107819D01*
X125051356Y-76138154D01*
X125009191Y-76160691D01*
X124963434Y-76174572D01*
X124913396Y-76179500D01*
X123905004Y-76179500D01*
X123854966Y-76174572D01*
X123809209Y-76160691D01*
X123767044Y-76138154D01*
X123730081Y-76107819D01*
X123699746Y-76070856D01*
X123677209Y-76028691D01*
X123663328Y-75982934D01*
X123658400Y-75932896D01*
X123658400Y-75349504D01*
X123663328Y-75299466D01*
X123677209Y-75253709D01*
X123699746Y-75211544D01*
X123730081Y-75174581D01*
X123767044Y-75144246D01*
X123809209Y-75121709D01*
X123854966Y-75107828D01*
X123905004Y-75102900D01*
X124913396Y-75102900D01*
X124963434Y-75107828D01*
G37*
G36*
X127910094Y-72803122D02*
G01*
X127955791Y-72816984D01*
X127997900Y-72839491D01*
X128034814Y-72869786D01*
X128065109Y-72906700D01*
X128087616Y-72948809D01*
X128101478Y-72994506D01*
X128106400Y-73044480D01*
X128106400Y-73803520D01*
X128101478Y-73853494D01*
X128087616Y-73899191D01*
X128065109Y-73941300D01*
X128034814Y-73978214D01*
X127997900Y-74008509D01*
X127955791Y-74031016D01*
X127910094Y-74044878D01*
X127860120Y-74049800D01*
X126851080Y-74049800D01*
X126801106Y-74044878D01*
X126755409Y-74031016D01*
X126713300Y-74008509D01*
X126676386Y-73978214D01*
X126646091Y-73941300D01*
X126623584Y-73899191D01*
X126609722Y-73853494D01*
X126604800Y-73803520D01*
X126604800Y-73044480D01*
X126609722Y-72994506D01*
X126623584Y-72948809D01*
X126646091Y-72906700D01*
X126676386Y-72869786D01*
X126713300Y-72839491D01*
X126755409Y-72816984D01*
X126801106Y-72803122D01*
X126851080Y-72798200D01*
X127860120Y-72798200D01*
X127910094Y-72803122D01*
G37*
G36*
X124963694Y-72752322D02*
G01*
X125009391Y-72766184D01*
X125051500Y-72788691D01*
X125088414Y-72818986D01*
X125118709Y-72855900D01*
X125141216Y-72898009D01*
X125155078Y-72943706D01*
X125160000Y-72993680D01*
X125160000Y-73752720D01*
X125155078Y-73802694D01*
X125141216Y-73848391D01*
X125118709Y-73890500D01*
X125088414Y-73927414D01*
X125051500Y-73957709D01*
X125009391Y-73980216D01*
X124963694Y-73994078D01*
X124913720Y-73999000D01*
X123904680Y-73999000D01*
X123854706Y-73994078D01*
X123809009Y-73980216D01*
X123766900Y-73957709D01*
X123729986Y-73927414D01*
X123699691Y-73890500D01*
X123677184Y-73848391D01*
X123663322Y-73802694D01*
X123658400Y-73752720D01*
X123658400Y-72993680D01*
X123663322Y-72943706D01*
X123677184Y-72898009D01*
X123699691Y-72855900D01*
X123729986Y-72818986D01*
X123766900Y-72788691D01*
X123809009Y-72766184D01*
X123854706Y-72752322D01*
X123904680Y-72747400D01*
X124913720Y-72747400D01*
X124963694Y-72752322D01*
G37*
G36*
X127910094Y-70753122D02*
G01*
X127955791Y-70766984D01*
X127997900Y-70789491D01*
X128034814Y-70819786D01*
X128065109Y-70856700D01*
X128087616Y-70898809D01*
X128101478Y-70944506D01*
X128106400Y-70994480D01*
X128106400Y-71753520D01*
X128101478Y-71803494D01*
X128087616Y-71849191D01*
X128065109Y-71891300D01*
X128034814Y-71928214D01*
X127997900Y-71958509D01*
X127955791Y-71981016D01*
X127910094Y-71994878D01*
X127860120Y-71999800D01*
X126851080Y-71999800D01*
X126801106Y-71994878D01*
X126755409Y-71981016D01*
X126713300Y-71958509D01*
X126676386Y-71928214D01*
X126646091Y-71891300D01*
X126623584Y-71849191D01*
X126609722Y-71803494D01*
X126604800Y-71753520D01*
X126604800Y-70994480D01*
X126609722Y-70944506D01*
X126623584Y-70898809D01*
X126646091Y-70856700D01*
X126676386Y-70819786D01*
X126713300Y-70789491D01*
X126755409Y-70766984D01*
X126801106Y-70753122D01*
X126851080Y-70748200D01*
X127860120Y-70748200D01*
X127910094Y-70753122D01*
G37*
G36*
X124963694Y-70702322D02*
G01*
X125009391Y-70716184D01*
X125051500Y-70738691D01*
X125088414Y-70768986D01*
X125118709Y-70805900D01*
X125141216Y-70848009D01*
X125155078Y-70893706D01*
X125160000Y-70943680D01*
X125160000Y-71702720D01*
X125155078Y-71752694D01*
X125141216Y-71798391D01*
X125118709Y-71840500D01*
X125088414Y-71877414D01*
X125051500Y-71907709D01*
X125009391Y-71930216D01*
X124963694Y-71944078D01*
X124913720Y-71949000D01*
X123904680Y-71949000D01*
X123854706Y-71944078D01*
X123809009Y-71930216D01*
X123766900Y-71907709D01*
X123729986Y-71877414D01*
X123699691Y-71840500D01*
X123677184Y-71798391D01*
X123663322Y-71752694D01*
X123658400Y-71702720D01*
X123658400Y-70943680D01*
X123663322Y-70893706D01*
X123677184Y-70848009D01*
X123699691Y-70805900D01*
X123729986Y-70768986D01*
X123766900Y-70738691D01*
X123809009Y-70716184D01*
X123854706Y-70702322D01*
X123904680Y-70697400D01*
X124913720Y-70697400D01*
X124963694Y-70702322D01*
G37*
M02*
